<?xml version="1.0" encoding="utf-8"?>
<!-- Generator: Adobe Illustrator 22.0.0, SVG Export Plug-In . SVG Version: 6.00 Build 0)  -->
<svg version="1.0" id="Capa_1" xmlns="http://www.w3.org/2000/svg" xmlns:xlink="http://www.w3.org/1999/xlink" x="0px" y="0px"
	 viewBox="0 0 768 768" style="enable-background:new 0 0 768 768;" xml:space="preserve">
<style type="text/css">
	.st0{fill:#999999;stroke:#FFFFFF;stroke-width:0.1;stroke-miterlimit:10;}
	.st1{fill-rule:evenodd;clip-rule:evenodd;fill:#999999;stroke:#FFFFFF;stroke-width:0.1;stroke-miterlimit:10;}
</style>
<g>
	<path class="st0" d="M398.7,423.8c0.4,0.1,0.8,0.2,1.3,0.2C399.5,423.9,399.1,423.9,398.7,423.8L398.7,423.8z M438.2,417.2
		c-0.7-0.3-1.4-0.5-2.1-0.7l0,0c0,0,0.1,0.1,0.1,0.1l-0.3,0.1l0.2-0.2c-1.3-1-2.6-1.7-4.5-1.8c-1.7-0.1-3.5-0.2-5.2-0.6
		c-2-0.4-3.8,0.5-5.7,0.4c-1.5-0.1-3.1,0.2-4.6,0.2c-0.4,0-0.9,0-1.3-0.1c-0.1,0.2-0.1,0.4-0.1,0.5c0.3,0.7-0.6-0.3-1.5,0.9
		c-0.9,1.3-1.2,1.2-1.8,1.2c-0.5,0-1.1,0.7-2.1,1.3c-1,0.7-0.3,1.1-0.4,1.8c-0.1,0.7-0.9,0.8-1.5,1.5c-0.6,0.6-0.8,0.6-1.5,0.8
		c-0.7,0.1-1.4,0.2-1.6,1.1c-0.1,0.4-0.3,0.7-0.6,1c-0.2,0-0.4-0.1-0.5-0.1c1.4,0.3,2.8,0.7,4.2,1.1c2.7,0.8,5.5,1.8,8.5,1.6
		c0.3,0,0.5,0.1,0.7,0.2c0.9-0.1,2-0.3,2.5-0.5c1-0.3,1.4,0.2,1.1-3c0,0,1,0,1.4-0.2c0.4-0.1,1.4-0.8,2.1-0.7
		c0.7,0.1,0.9,0.5,1.3,0.5c0.4,0,1.1,0.1,1.1,0.1s0-0.4,0.3-0.4c0.3,0,1.1-0.4,1.1-0.4l0.9-0.9l0.5-0.3c0,0,0.1-0.9,0.8-1.4l0.8-0.1
		c0,0,0.3-0.9,0.7-0.6c0.4,0.2-0.1,0.6,1.3,0.6c1.4,0,1-0.4,1.4-0.4c0.4,0,1.1-0.3,1.7-0.7c0.5-0.3,0.4-1,1.3-0.9
		c0.7,0.1-0.1,0.3,2.1,0.2c0-0.2,0-0.4,0-0.5C438.8,417.7,438.5,417.3,438.2,417.2z"/>
</g>
<g>
	<path class="st0" d="M270.8,210.6c0.2,0.1,0.4,0.2,0.6,0.3C271.5,210.6,271.6,210.2,270.8,210.6z M282,229.4c0,0,0.1,0,0.1,0.1
		c0-0.1,0-0.1,0-0.2c-0.1,0-0.1,0-0.1,0C282,229.3,282,229.3,282,229.4z M547,160.1c-0.3,0.1-0.7,0.4-0.7,0.6c0,0.2,0.3,0.5,0.6,0.7
		c0.3,0.2,0.7,0,0.9-0.3c0.1-0.3,0.1-0.6,0.2-0.9C547.7,160.1,547.3,160,547,160.1z M280.1,227.8c-0.2-0.8-0.6-1.6-0.8-2.4
		c-0.5-1.8-1.8-3-3.8-3.5c-1.6-0.3-2.8-1.1-4-2c-0.8-0.5-1.5-1.1-2.3-1.6c-0.5-0.3-1.1-0.3-1.7-0.4c-0.5-0.1-1.2,0.5-1.2,0.9
		c0.2,1,0.6,1.9,0.5,3c0,0.4,0.3,1,0.6,1.4c0.8,0.9,1.8,1.8,2.6,2.7c2.2,3,5.2,5.4,7.4,8.4c0.3,0.4,0.9,0.7,1.3,1l-0.2-0.1l0.1,0.1
		c-0.4,0.1-0.7,0.3-1,0.5c0.8,0,1.5,0.1,2,0.5l0.2,0.1l-0.1-0.1c0.5,0.1,1.1,0.2,1.6,0.2c1.1,0,1.7-0.6,1.8-1.5
		c0.2-2-0.3-3.9-1.1-5.7C281.2,229,280.4,228.7,280.1,227.8z M306.6,54.2c-0.1,0-0.1,0-0.2,0c0,0,0,0,0,0
		C306.5,54.3,306.6,54.3,306.6,54.2C306.6,54.3,306.6,54.3,306.6,54.2z M308,54.1c0.1-0.1,0.1-0.3,0.1-0.3c-0.3-0.1-0.7-0.2-0.9-0.2
		c-0.2,0.1-0.4,0.4-0.5,0.6c0.3,0,0.6,0.1,0.9,0C307.7,54.3,307.9,54.2,308,54.1z M588.9,129.7c0,0.3,0,0.5,0,0.8
		C589.4,130.1,589.4,130,588.9,129.7z M508.3,93c0.1,0,0.1,0,0.2,0c0,0,0,0,0,0C508.4,92.9,508.4,92.9,508.3,93
		C508.4,92.9,508.3,93,508.3,93z M505.4,93c-0.3,0.3,0.2,0.9,0.8,1c1.1,0.2,1.7-0.2,2.1-1c-0.7-0.2-1.4-0.3-2-0.4
		C506,92.6,505.6,92.8,505.4,93z M492.1,130.6c0,0-0.1,0.1-0.1,0.1L492.1,130.6c-0.3,0.9-0.7,1.9-1,2.9c-1.1,3.1-3.3,5.8-4.1,8.9
		c-0.2,0.7-0.8,1.1-1.5,1.4c-0.5,0.3-0.9,0.6-1.3,1c-0.6,0.6-0.2,1.8,0.6,2.2c0.3,0.2,0.7,0.2,1.1,0.3c0.8,0.3,1.3,0.7,1.2,1.5
		c0,0.3-0.1,0.7-0.1,1c0,1.2,0.9,1.8,2.3,1.5c0.7-0.2,1.7-0.3,2.1-0.7c1.9-1.9,5-2.6,6.3-5.1c0.1-0.2,0.8-0.3,1-0.2
		c1.2,0.6,2.4,1.2,2.5,2.6c0,0.6,0.3,1,0.8,1.2c1.4,0.5,2.9,1,4.4,1.4c0.3,0.1,0.8,0,1.1-0.2c0.7-0.5,1.5-1.1,2.1-1.7
		c0.6-0.6,0.2-1.7-0.7-2.1c-0.2-0.1-0.4-0.1-0.5-0.2c-1.3-0.3-1.9-1-1.9-2.2c0-1.4-0.5-2.6-1.7-3.7c-0.7-0.6-1.5-1.2-1.8-2
		c-0.9-2-3.5-2.7-4.5-4.5c-0.1-0.2-0.7-0.2-1.1-0.3c-1.2-0.4-1.2-0.5-0.4-1.2c0.6-0.6,1.3-1.2,1.9-1.9c0.2-0.2,0-0.7-0.1-0.9
		c-0.1-0.3-0.5-0.4-1-0.2c-0.7,0.3-1.3,0.6-2.2,0.3c-0.7-0.2-1.5-0.1-2.3-0.2C492.8,129.9,492.4,130.2,492.1,130.6L492.1,130.6z
		 M555,269.1c0-0.1,0.1-0.1,0.2-0.2c-0.1,0-0.1,0-0.2,0C555,269,555,269,555,269.1C555,269.1,555,269.1,555,269.1z M552.8,269
		c-0.1,0-0.1,0-0.2,0C552.7,269,552.7,269,552.8,269C552.8,269.1,552.8,269.1,552.8,269C552.8,269,552.8,269,552.8,269z M552.8,269
		c0.8,0,1.5,0,2.3,0c0.3-3.1,0.5-2.4-2.3-3.5c-1.5-0.6-3.2-1-4.4-2.2c-0.1-0.1-0.6,0.2-0.9,0.4c-0.1,0.1-0.1,0.3-0.1,0.4
		c0.6,1,1.3,1.9,1.9,2.9c0.6,0.2,1.3,0.3,1.9,0.5C552,267.7,552.5,268.2,552.8,269z M472.3,91.9c0,0-0.1,0-0.1,0c0,0.1,0,0.1,0,0.2
		c0.1,0,0.1,0,0.2,0C472.3,92,472.3,91.9,472.3,91.9z M549.3,266.9c0,0-0.1,0-0.1,0c0,0,0,0.1,0,0.1c0.1,0,0.1,0,0.2,0
		C549.3,267,549.3,266.9,549.3,266.9z M544.6,64.4C544.6,64.4,544.6,64.4,544.6,64.4c0,0-0.1,0.1-0.1,0.1c0,0,0,0,0,0
		C544.5,64.5,544.6,64.4,544.6,64.4z M517.7,97.1c0.1,0,0.1,0,0.2,0c-0.1-0.1-0.1-0.1-0.2-0.1c0,0,0,0,0,0
		C517.7,97,517.7,97,517.7,97.1z M523.7,103l-0.2,0.1c0,0,0,0.1,0.1,0.1c0,0,0.1,0,0.1,0L523.7,103z M448.9,42.7
		c0.1,0,0.3-0.1,0.4-0.1c0-0.1-0.1-0.3-0.1-0.3C448.7,42.4,448.6,42.5,448.9,42.7z M440.4,95.9c0.1,0.1,0.3,0.3,0.4,0.3
		c0.4,0.1,0.8-0.1,0.8-0.5c0-0.4-0.3-0.5-0.7-0.5C440.4,95.3,440.2,95.5,440.4,95.9z M449.9,87.9c0-0.1,0.1-0.1,0.1-0.1
		c0-0.1-0.1-0.1-0.1-0.1c0,0,0,0,0,0C449.9,87.7,449.9,87.8,449.9,87.9z M449.8,89.1c0.1,0,0.1-0.3,0.1-0.5c0-0.2,0-0.5,0-0.7
		c-0.2,0.2-0.4,0.4-0.5,0.7C449.1,89,449.3,89.2,449.8,89.1z M418.5,40.1c0,0,0.1,0,0.1-0.1L418.5,40.1
		C418.5,40,418.5,40.1,418.5,40.1C418.5,40.1,418.5,40.1,418.5,40.1z M451.3,92.7c-0.7,0.3-1.4,0.5-2,0.9c-0.6,0.4-0.8,1.1-0.6,1.7
		c0.1,0.4,0.5,0.6,0.9,0.4c1.1-0.6,2.1-1.4,2.4-2.5c-0.1-0.1-0.1-0.3-0.3-0.4C451.7,92.7,451.5,92.7,451.3,92.7z M457.8,78.9
		c0.1,0,0.1-0.2,0.2-0.3c-0.1-0.1-0.1-0.3-0.2-0.3c-0.1,0-0.3,0.1-0.3,0.2C457.3,78.8,457.5,79,457.8,78.9z M507,158.9
		c-1.8,1-2.7,2.9-2,4.7c0.1,0.4,0.7,0.7,1.1,0.9c0.5-0.1,0.9-0.2,1.1-0.4c0.7-0.8,1.4-1.6,2-2.4c0.2-0.3,0.3-0.6,0.4-0.9
		c0.3-0.6,0.1-1.4-0.5-1.8C508.5,158.6,507.6,158.5,507,158.9z M502.2,129.1c-0.2,0.2-0.6,0.3-0.7,0.5c-0.1,0.3-0.1,0.7,0.1,0.9
		c0.4,0.5,0.9,1,1.4,1.5c0.1,0.1,0.4,0.1,0.5,0.1c0.4-0.1,0.6-0.4,0.5-0.7C503.7,130.5,503.4,129.6,502.2,129.1z M516.2,151.9
		c-0.6,0.3-0.5,1.2,0.3,2.2c0.2,0.3,0.5,0.5,0.8,0.7c0.5,0.3,1.1,0.5,1.6,0.1c0.4-0.3,0.7-0.7,1-1c0-0.8-0.3-1.4-1-1.8
		C518,151.7,517.2,151.3,516.2,151.9z M494.2,204.9c1.4-0.3,2.5-0.8,3.2-1.9c0.2-0.2,0.1-0.7,0-1c-0.3-0.7-1.1-1.1-1.8-0.9
		c-0.7,0.2-1.5,0.4-2.2,0.6c-0.9,0.3-1,0.9-0.8,1.6c0,0.2,0,0.4,0,0.5C492.6,204.6,493.5,205.1,494.2,204.9z M552,245.9
		c-0.2,0-0.5,0.1-0.9,0.2c-0.4,0.2-0.3,0.8,0.1,1.3c0.3,0.2,0.6,0.5,0.8,0.7c1,1,2,2,3.5,2.5c1.4,0.5,2.9,0.8,4.4,1.1
		c0.2,0,0.4,0,0.6-0.1c0.3-0.2,0.6-0.4,0.8-0.6c0.1-0.1,0-0.4,0-0.5C559.1,247.8,556,246.4,552,245.9z M479.3,222
		c-0.4,0.2-0.8,0.7-1,1.1c-0.1,0.2,0.1,0.7,0.3,0.8c0.9,0.3,1.8,0.5,2.3,0.6c0.6,0,0.8,0.1,1,0.1c0.3-0.1,0.7-0.2,1-0.4
		c0.3-0.2,0.3-1,0-1.4C482,221.9,480.5,221.5,479.3,222z M500.5,155.8c0.2-0.2,0.2-0.7,0.1-0.9c-0.1-0.3-0.5-0.6-0.8-0.7
		c-0.5-0.1-1.1-0.1-1.2-0.2c-1.2,0.1-2,0-2.8,0.1c-0.5,0.1-1.2,0.2-1.6,0.5c-0.9,0.6-1.7,1.3-2.5,2.1c-0.4,0.4-0.5,0.9-0.2,1.4
		c0.3,0.4,0.5,1,1.2,1c0.8,0.1,1.6,0.2,2.3,0C497.2,158.6,499,157.4,500.5,155.8z M552,177c-0.4,0.3-0.8,0.7-1.1,1.1
		c-0.1,0.1-0.1,0.4,0,0.5c0.3,0.2,0.6,0.3,1,0.5c0.4-0.2,1-0.5,1.3-0.8c0.2-0.2,0.3-0.6,0.2-0.9C553.3,176.9,552.5,176.7,552,177z
		 M567.6,169.6c-0.3,0-0.7,0.1-0.9,0.2c-0.4,0.3-0.8,0.7-0.9,1.2c-0.1,0.4,0.2,0.9,0.5,1.3c0.2,0.2,0.8,0.4,1,0.3
		c0.4-0.3,0.6-0.7,0.9-1c-0.1-0.6-0.2-1.1-0.3-1.5C567.8,169.8,567.7,169.6,567.6,169.6z M522,150.8c-0.4,0.1-0.6,0.4-0.5,0.8
		c0.3,0.6,0.7,1.2,1.5,1.4c0.4,0.1,0.9-0.3,1.3-0.5c0-0.3,0-0.5-0.1-0.6C523.8,151,523.1,150.7,522,150.8z M441.2,254.7
		c-0.4,0-0.8,0-1.1,0c-0.4,0.1-0.8,0.2-1,0.4c0,0,0,0,0,0l2.4,1c0.2-0.2,0.3-0.3,0.4-0.5c0.3-0.3,0.2-0.6-0.1-0.8
		C441.5,254.8,441.3,254.7,441.2,254.7z M599.3,259.8c0,0,0.1,0.1,0.1,0.1l0,0C599.4,259.8,599.4,259.8,599.3,259.8z M599.2,259.9
		l-0.2,0.3c0-0.1,0-0.2,0.1-0.2C599.1,259.9,599.2,259.9,599.2,259.9c0-0.1,0.1-0.1,0.1-0.2c-0.6-0.6-1.4-0.8-2.4-0.6
		c-0.4,0.1-0.6-0.3-0.5-0.7c0.2-0.5,0.4-0.9,0.8-1.3c0.5-0.5,1.1-0.9,1.6-1.4c0.1-0.1,0.1-0.3,0.1-0.4c-0.1-0.4-0.5-0.5-0.9-0.5
		c-0.5,0-1.2,0.4-1.5-0.1c-0.3-0.5,0-0.9,0.3-1.4c0.3-0.4,0.8-0.8,1-1.2c0.1-0.4,0-1-0.2-1.4c-0.3-0.4-0.8-0.7-1.2-1
		c-0.4-0.3-0.9-0.6-1.5-0.3c-0.5,0.2-1,0.5-1.5,0.7c-1.3,0.7-2.6,0.5-3.9,0.2c-0.7-0.2-1-0.6-0.9-1.5c0-0.2,0.1-0.3,0.1-0.5
		c0.1-1-0.5-1.6-1.5-1.8c-0.5-0.1-1,0-1.5,0c0,0,0,0.1-0.1,0.1l-0.2,0.2l0.1-0.3c0.1,0,0.1,0,0.2,0c0.6-1.4,1.7-2.6,2.9-3.5
		c1.2-0.9,1.7-2.2,2.6-3.3c0.2-0.2,0.1-0.6,0.1-0.9c0-0.3-1-0.5-1.6-0.4c-1.9,0.4-3.6,1.2-4.9,2.5c-2.7,2.8-5.1,5.9-7.1,9.2
		c-1.1,1.7-2.4,3-4.5,3.7c-0.7,0.2-0.6,0.7-0.2,1.2c0.5,0.7,0.4,1.2-0.2,1.8c-0.7,0.6-1.3,1.2-1.9,1.9c-0.3,0.3,0,1.2,0.5,1.3
		c0.5,0.1,1.1,0.4,1.6,0.3c1.9-0.2,3.9-0.2,5.8,0.2c1.6,0.4,3,0.4,4.6,0.1c1.6-0.3,2.9,0.7,4.4,1.1c0,0,0.1,0.3,0,0.4
		c-0.5,0.5-1.1,0.9-1.6,1.5c-0.2,0.2-0.2,0.7,0,0.9c0.2,0.2,0.6,0.4,1,0.4c0.8,0,1.5-0.3,2-0.9c1-1.4,2.9-1.7,4.1-2.7
		c0,0,0.4,0.2,0.4,0.3c-0.1,0.8-0.4,1.6-0.5,2.5c0,0.3,0.1,0.8,0.3,0.9c1.1,0.6,2.2,1.4,3.6,1.5c0.7,0.1,1.7-0.3,2-0.8
		c0.5-1.1,0.9-2.2,1.4-3.3c0.4-0.9-0.1-1.5-0.7-2.1C599.4,259.9,599.3,259.9,599.2,259.9z M556.2,2.3c0,0.1-0.1,0.1-0.1,0.1l0.1,0
		c0-0.1,0.1-0.1,0.1-0.2C556.3,2.3,556.2,2.3,556.2,2.3z M257.2,191.7c-0.6-0.2-1.7,0.1-2.1,0.6c-0.6,0.7-1,1.5-1,2.3
		c0,1,0.2,2,0.3,3c0,0-0.1,0-0.1,0c0.1,0.8,0.3,1.7,0.3,2.5c-0.1,2.1,0.7,4,1.9,5.8c0.2,0.3,0.6,0.4,0.9,0.6c0.1,0.1,0.4,0.1,0.5,0
		c0.2-0.1,0.4-0.3,0.4-0.4c-1.1-2.7-0.3-5.3,0.7-7.9c0.5-1.4,1.2-2.9,1.7-4.3c0.1-0.2-0.1-0.7-0.4-0.9
		C259.3,192.6,258.2,192.2,257.2,191.7z M257.9,186.8c0.2,0.1,0.4,0.2,0.6,0.3c0.1-0.1,0.1-0.2,0.2-0.3
		C258.5,186.8,258.2,186.8,257.9,186.8z M261.1,187.3c0.1,0.2,0.6,0.4,0.9,0.4c0.3,0,0.8-0.2,0.9-0.5c0.1-0.2,0.2-0.3,0.3-0.5
		c-0.7,0-1.5,0.1-2.3,0.1C261,187,261,187.1,261.1,187.3z M280.7,237.1c4.8,3.1,5.1,0.5,5.1,0.5c-0.5,0.3-1.1,0.7-1.5,0.6
		C283.1,237.8,281.8,237.7,280.7,237.1z M567.9-14C567.9-14,567.9-14,567.9-14c-0.1,0-0.1,0-0.2,0.1c0,0,0,0.1,0,0.1
		C567.8-13.9,567.9-13.9,567.9-14z M562,1.3c0,0-0.1,0.1-0.1,0.1c0,0,0.1,0,0.1,0c0.1,0,0.1-0.1,0.2-0.1
		C562.1,1.3,562.1,1.3,562,1.3z M491.7,40.7l-0.1-0.3l-0.2,0.3L491.7,40.7z M572.9,244c1.5-0.8,2.9-1.7,3.9-3c0.8-1,2-1.5,3.4-1.7
		c1-0.1,1.9-0.4,2.9-0.4c2.9-0.1,5.1-1.4,7.3-2.8c1.1-0.7,1.8-1.8,1.2-3.1c-0.4-0.8-0.6-1.6-0.1-2.4c0.3-0.6,0.6-1.2,0.8-1.9
		c0.1-0.5,0-1.1-0.3-1.5c-0.9-1.3-2.1-2.3-4.1-2.1c0,0,0,0,0,0l-0.4,0.2l0.3-0.2c0,0,0.1,0,0.1,0c-0.1-0.5-0.1-1-0.3-1.5
		c-0.3-0.9-0.9-1.5-2-1.7c-0.6-0.1-1.2-0.1-1.7-0.1c-0.2,0-0.4-0.1-0.5-0.1c0.2-0.2,0.4-0.4,0.7-0.5c0.5-0.2,1.1-0.3,1.6-0.5
		c0.7-0.3,0.8-1.1,0.3-1.7c-0.5-0.7-1.1-1.4-2.3-1.3c-0.4,0-1,0.1-1.1-0.1c-1.4-1.6-3.5-2-5.4-2.9c-0.3-0.1-0.7-0.4-0.8-0.7
		c-0.4-1.8-2-2.8-3.4-4c-0.7-0.6-1.3-1.3-1.9-1.9c-0.6-0.6-0.6-1.3-0.1-1.8c0.7-0.6,1.4-1.2,2-1.8c0.6-0.6,0.7-1.2,0.2-1.8
		c-0.9-1.2-1.4-2.3-1.1-3.8c0.1-0.4-0.4-0.9-0.8-1.3c-0.8-0.6-0.2-1.6-1.2-2.2c-0.8-0.4-0.1-1.2-0.3-1.9c-0.3-0.8-0.1-1.7-0.3-2.5
		c-0.2-1-0.5-2-0.9-2.9c-1-2.2-1.4-4.5-1.8-6.9c-0.1-0.7-0.2-1.4-0.4-2c-0.1-0.2-0.5-0.4-0.9-0.5c-0.1-0.1-0.5,0-0.5,0.1
		c-1.4,2-3.3,3.7-4.4,5.9c-1.2,2.2-2.6,4.1-5.4,5.1c-0.7,0.2-1.2,0.9-1.8,1.2c-0.8,0.4-1.7,0.8-2.6,1.1c-1,0.4-1.9,0-2.7-0.6
		c-0.6-0.4-1.1-0.9-1.3-1.6c-0.3-0.8-1-1.4-1.9-1.8c-1.2-0.6-1.4-1.6-1.3-2.6c0.1-1.6,1.3-3.2,0.5-4.9c-0.2-0.4,0.3-0.9,0.5-1.4
		c0.7-1.6,1.3-3.2,2.4-4.6c0.3-0.4-0.1-1.2-0.6-1.2c-1.7-0.2-2.8-1.7-4.7-1.7c-0.7,0-1.4-0.5-2.1-0.9c-0.6-0.3-0.8-0.7-0.7-1.3
		c0-0.5,0.2-1-0.3-1.4c-1-1-1.8-2.1-2.3-3.5c-0.3-0.8-1-1.4-1.6-2.1c-1-1.2-2.2-1.9-4-1.2c-0.7,0.2-1.6,0.3-2.3,0.2
		c-2.2-0.4-4.6-0.4-6.6-1.7c-0.7-0.5-1.8-0.7-2.7-1c-2.3-0.6-4.8,0.7-5.6,2.6c-0.5,1.2-0.6,2.3,0.1,3.4c0.5,0.8,0.7,1.6,0,2.4
		c-0.9,1.1-2.1,2.1-2.7,3.3c-0.7,1.4,0.8,2.9,0.4,4.4c-0.2,0.6,0,1.4,0.3,2c0.4,1.2-0.3,1.9-1.3,2.5c-0.5,0.3-1.2,0.5-1.4,0.8
		c-1.1,2.1-3.2,3.4-4.9,5c-0.8,0.8-0.8,1.8,0,2.8c0.6,0.7,1.3,1.3,1.8,2c0.4,0.6,0.8,1.2,1,1.8c0.4,1.8,0.5,3.7,1,5.5
		c0.5,2-1.2,3.9-0.4,6c0.1,0.2-0.3,0.6-0.6,0.8c-0.8,0.5-1.7,0.8-2.4,1.4c-2.4,2.1-5.2,3.5-8.3,4.6c-1.4,0.5-2.9,1-4.3,1.5
		c-1,0.4-1.5,1.1-1.5,2c0.1,2,0.3,4.1-0.1,6.1c-0.3,1.3-0.5,2.7-0.5,4c0,1.3,0.2,2.7,0.2,4c0,0.5,0,1-0.3,1.5
		c-0.5,0.9-1.1,1.8-1.7,2.7c-0.2,0.2-0.6,0.5-0.9,0.4c-1.4-0.3-2.1,0.7-3,1.3c-0.6,0.4-1.8,0.1-2-0.4c-0.3-0.4-0.4-0.9-0.7-1.4
		c-0.4-0.8-0.6-1.8-1.2-2.3c-2-1.5-2.6-3.7-3.9-5.6c-0.4-0.7-0.3-1.3,0-1.9c1.3-2.3,2.6-4.5,2.4-7.2c0-0.8,0.5-1.6,0.8-2.4
		c0.3-0.8,0.6-1.6,0.8-2.4c0.1-0.4-0.4-1.2-0.8-1.3c-3.1-0.2-6-1.3-9.2-1.3c-0.8,0-1.5-0.3-2-0.9c-1.4-1.7-3.2-3-5.3-3.9
		c-2-0.8-3.5-2.1-4.5-3.8c-1.1-1.8-2.8-3.2-4.9-4.3c-1.8-0.9-3.7-1.8-5.6-2.8c-0.9-0.4-1.8-0.6-2.8-0.3c-1.6,0.4-3.2,1-4.9,0.8
		c0,0,0,0.1-0.1,0.1l-0.2,0.1l0.1-0.3c0.1,0,0.1,0,0.2,0c0.9-1.2,1.6-2.5,1.4-4.1c-0.2-1.8-0.1-3.7-0.2-5.5c0-0.7-0.1-1.3-0.3-2
		c-0.1-0.3-0.5-0.6-0.8-0.6c-0.7-0.1-1.5-0.1-2.3-0.2c-0.9,0-1.5-0.4-1.6-1.1c-0.1-0.5-0.3-1-0.1-1.5c0.3-1,0.9-1.9,1.1-2.9
		c1.1-4.2,2.9-8,6.8-10.8c0.9-0.6,1.5-1.5,2.2-2.3c2.1-2.4,4-5,7.6-6c1.5-1.2,3.4-2.2,4-4.1c0.1-0.5,0.6-0.8,1.3-0.7
		c0.8,0.1,1.5,0.3,2.3,0.3c1.9,0.1,3.4-1.1,3.5-2.7c0-0.8-0.1-1.6-0.2-2.4c-0.1,0-0.1,0-0.2,0c-0.1-0.1-0.2-0.1-0.3-0.2
		c0.1,0,0.3,0,0.4,0.1c0,0,0,0.1,0,0.1c2.6,0.2,4.8-0.4,5.9-2.8c0.2-0.5,0.9-0.6,1.5-0.4c0.9,0.3,1.8,0.7,2.7,0.9
		c0.9,0.3,1.9,0.3,2.7-0.3c3-2.4,5.9-4.8,8.8-7.2c0.2-0.2,0.4-0.6,0.3-0.9c-0.1-0.7,0.2-1.3,0.9-1.7c1.3-0.9,2.7-1.9,4-2.8l1.1-0.9
		l0.1-0.1c0.2-0.2,0.5-0.4,0.7-0.6c1.5-1.3,1.5-1.3,0.5-3c-0.1-0.1-0.2-0.3-0.2-0.5c-0.2-0.4,0-0.7,0.4-0.8c1.8-0.2,3.5-0.3,4.2,1.6
		c0,0.1,0.3,0.3,0.4,0.3c2.8,1,5.6,1.3,8.4,0.2c1.9-0.8,3.7-1.8,5.3-3c0.6-0.4,1.2-0.9,1.9-1.1c1.6-0.3,2.2-1.3,2.9-2.3
		c0.5-0.7,0.7-1.6,0.4-2.4c-0.2-0.6-0.4-1.3-0.7-1.9c-0.6-1-0.5-1.9-0.2-2.9c0.3-1,0.5-1.9,0.7-2.9c0,0-0.1,0-0.1,0l-0.3-0.1
		l0.4,0.1c0,0,0,0,0,0c0.7,0.1,1.4,0.3,2.1,0.2c2.2-0.1,2.9-0.8,3.1-2.8c0-0.7,0.1-1.3,0.6-1.8c1-1,0.3-1.8-0.3-2.6
		c-1.5-0.5-2.3-1.4-2.3-2.9c0-1.1-0.6-1.8-2-1.7c-1.1,0-1.4-0.7-1.5-1.5c-1.3,0.1-2.5-0.3-3.5-1c0,0,0-0.1,0-0.1c0,0-0.1,0-0.1,0
		l0.2,0.1c-0.4,0.1-0.7,0.3-1.1,0.2c-1.8,0-2.9,0.7-3.3,2.2c-0.4,1.4-1.5,2.8-0.9,4.3c0.1,0.4,0.1,0.6-0.2,0.9
		c-0.7,0.6-1.3,1.2-2,1.7c-1.8,0.1-2.5,1.3-3.2,2.6c-0.4,0.8-0.9,1.5-1.4,2.2c-0.4,0.6-1.1,0.8-1.9,0.8c0,0,0,0.1,0.1,0.1
		c-0.1,0.1-0.2,0.1-0.2,0.2c0-0.1,0.1-0.2,0.1-0.3c0,0,0,0,0.1,0c-0.3-0.6-0.5-1.2-1.3-1.4c-0.7-0.1-1.3,0.6-1.6,1.8
		c-0.2,0.7-0.2,1.3,0.1,2c0.3,0.7,0,1.3-0.4,1.9c-0.4,0.5-1.4,0.9-2,0.6c-0.5-0.2-1.1-0.5-1.2-0.9c-0.4-1-0.6-2-0.7-3
		c-0.3-1.9,0.1-3.7,2-5c0.6-0.5,0.8-1.1,0.9-1.8c0.4-2.3-0.5-4.3-1.7-6.3c-0.2-0.4-1.2-0.4-1.5,0c-1.1,1.1-2.4,2.2-2.9,3.7
		c-0.3,0.9-1,1.4-1.7,2c-0.1,0.1-0.3,0.2-0.5,0.2c-0.4,0-0.7-0.2-0.6-0.6c0.6-1.6,1.2-3.2,1-5c-0.1-0.9,0.7-1,1.4-1.2
		c1.1-0.5,1.2-1.3,0.3-2c-0.9-0.6-1.8-1.4-3-1.5c-1-0.1-1.8-0.5-2.6-1c-0.4-0.3-0.6-0.5-0.2-0.9c1-1,2.1-2,3.1-2.9
		c0.2-0.2,0.7-0.2,1-0.3c1.4-0.5,1.8-0.8,1.5-1.6c-0.9-3.2-1.4-6.3,0.1-9.4c0.2-0.4,0.2-1,0-1.5c-0.8-1.9-0.5-4-1.5-5.9
		c-0.4-0.7,0-1.2,0.8-1.7c1.4-0.9,2.8-1.9,4.1-2.8c1-0.7,1.5-1.5,1.6-2.6c0-0.3,0.2-0.7,0.4-0.9c0.2-0.2,0.7-0.5,0.9-0.5
		c0.9,0.3,1.8,0.7,2.6,1.1c1.2,0.6,2.2,0.4,3.3-0.2c0.6-0.4,1.3-0.8,1.8-1.2c2.7-2.2,5.4-4.4,8-6.7c0.5-0.5,1-1,1.4-1.6
		c0.6-0.7,0-2.3-0.9-2.7c-0.2-0.1-0.3-0.2-0.5-0.2c-2.4-0.2-4.3-1.2-6.2-2.5c-0.6-0.4-1.4-0.6-2.1-0.8c-1.7-0.3-3.5-0.4-5.2,0
		c-0.5,0.1-1.1,0.3-1.5,0.7c-0.9,0.8-1.4,2-2.9,2.4c-0.7,1-1.4,2-2.1,3c-1,1.6-2.1,3.2-3,4.9c-0.5,0.9-1,1.9-1,2.9
		c0,2.3-1.2,4.2-2.1,6.3c-0.2,0.5-0.5,0.8-1,1.1c-1.1,0.7-2.2,1.4-3.3,2c-1,0.6-0.8,1.4-0.8,2.2c0,0,0.1,0,0.2,0c0,0.1,0,0.1,0,0.2
		c0.1,0,0.1,0.1,0.2,0.1c-0.1,0.1-0.2,0.1-0.2-0.1c-0.1,0-0.1-0.1-0.2-0.1c0,0,0-0.1,0-0.1c-0.9,0.2-1.8,0.3-2.6,0.7
		c-2.5,1.4-4,3.6-4.5,6.1c-0.2,1-0.3,2-1.3,2.6c-0.3,0.2-0.5,0.5-0.8,0.7c-0.9,0.9-1.3,2-1.1,3.3c0.1,1.2,0.4,2.3,1.3,3.3
		c0.4,0.5,0.6,1.1,0.9,1.7c0.5,0.1,1,0.2,1.5,0.4c1.1,0.6,2.2,1.3,3.3,1.9c0.1,0.1,0.3,0.2,0.3,0.3c0,0.3-0.3,0.4-0.7,0.5
		c-0.5,0.1-1.2,0.2-1.5,0.5c-0.9,0.8-1.7,1.8-2.4,2.7c-0.5,0.5-0.2,1.2,0.7,1.6c0.3,0.1,0.6,0.2,1,0.2c0,0,0-0.1,0-0.1l0.5-0.1
		l-0.3,0.2c0,0-0.1,0-0.1,0c0.1,0.6,0.2,1.3-0.4,1.8c-0.9,0.8-1.9,1.6-3,2.4c-1.2,0.9-2.5,1.6-4.1,1.6c-2.2,0-3,1.3-3.5,2.9
		c-0.3,1.1-0.4,2.3-0.7,3.5c-0.1,0.2-0.3,0.4-0.5,0.7c-0.1-0.1-0.3-0.2-0.4-0.3c-0.4-0.6-0.9-1.1-1.3-1.7c-0.7-1-0.7-1.3,0.1-2.3
		c1-1.2,2.1-2.4,3.1-3.6c0.3-0.3,0-1.2-0.5-1.2c-2-0.2-2.6-1.3-2.7-2.7l-0.5-0.4c0.2,0.1,0.3,0.3,0.5,0.4v0c0.1,0,0.1,0.1,0.2,0.1
		l-0.2-0.2c0.7,0.2,1.5,0.3,2.2,0.5c0.8,0.2,1.5,0.3,2.3,0c1.2-0.5,2.5-0.9,3.7-1.5c0.3-0.1,0.5-0.5,0.5-0.8c0-1.2-0.1-2.3-0.2-3.5
		c-0.1-0.9-0.1-1.1,1.2-1.3c1.8-0.3,1.8-1.3,1.9-2.5c-0.3,0-0.6,0-0.9,0c-2.6,0.2-4.5-0.7-5.4-2.9c-0.1-0.3-0.4-0.6-0.6-0.9
		c-0.2-0.3-1.3-0.5-1.6-0.2c-0.7,0.6-1.5,1.1-2,1.7c-1.5,1.8-3.2,3.3-5.9,3.6c-0.3,0-0.7,0.3-1,0.5c-0.2,0.1-0.3,0.2-0.4,0.4
		c-0.4,0.3-0.4,1.1,0,1.4c2,1.3,4.2,2.4,5.2,4.5l-0.2-0.1l0.2,0.1c-0.9,0.2-1.9,0.4-2.8,0.4c-1,0-1.8,0-2.3,1c-0.3,0.6-1,1-1.5,1.5
		c-0.4,0.4-0.8,0.7-0.8,1.3c0,0.5,0,1-0.6,1.3c-0.7,0.4-1.5,0.3-2.2,0c-0.7-0.3-1.4-0.6-2.1-0.9c-1.3-0.5-2.6-0.7-3.9-0.1
		c-0.5,0.2-1.1,0.3-1.7,0.4c-0.8,0.1-1.5,0-2.3-0.3c-1.2-0.6-2.5-1.1-3-2.3c-0.8-1.6-2.2-2.3-4-2.6c-0.8-0.2-1.4-0.6-1.6-1.3
		c-0.5-1.6-1.6-3.1-1.3-4.9c0.1-0.5,0-1-0.1-1.5c-0.1-1.1-1.6-2.3-2.8-2.1c-2.7,0.4-5.3,0.7-8,0.9c-1.2,0.1-2,1-2.5,1.9
		c-0.3,0.7,0,1.6,0.9,2.2c0.5,0.3,1,0.5,1.6,0.2c0.3-0.2,0.6-0.5,0.9-0.6c1.1-0.2,2.3-0.2,3.4-0.4c1.1-0.2,2.2-0.7,3.3-0.9
		c0.2,0,0.5,0.3,0.7,0.5c0,0-0.1,0.4-0.3,0.4c-1.1,0.4-2.3,0.6-3.2,1.1c-1.3,0.8-2.6,1.4-4.2,1.6c-0.8,0.1-1.5,0.4-2.2,0.6
		c-1.1,0.4-2,1-2.3,2.1c-0.5,1.6-1,3.2-1.2,4.9c-0.1,0.5-0.4,0.9-0.8,1.3c-0.4,0.3-1.1,0.7-1.4,0.6c-0.7-0.3-0.3-0.8,0-1.3
		c0.5-0.8,0.5-1.6,0-2.4c-0.6-1.1-1.1-2.1-1.7-3.2c-0.5-0.9-1-1.8-1.6-2.7c-0.3-0.5-1.3-1-1.9-0.9c-0.8,0.1-1.5,0.4-2.2,0.5
		c-5.8,1.1-11.1,0.2-15.8-3.1c-0.3-0.2-0.4-1-0.1-1.4c0.6-0.9,1.4-1.6,2.7-1.6c0.6,0,1.2,0,1.7,0c2.4,0,3.5-1.1,3.1-3.1
		c-0.2-1-0.7-1.9-1.2-2.8c-0.8-1.3-2.1-2.2-3.8-2c-2.2,0.2-3.8-0.5-5.3-1.5c-2.1-1.5-4.2-3-6.4-4.4c-1.5-0.9-2.6-2-2.9-3.6
		c-0.4-2.1-2-3.1-4.1-3.9c-1.9-0.7-3.3-0.5-4.7,0.9c-0.5,0.5-1.1,1-1.8,1.3c-0.5,0.2-1.1,0.2-1.7,0.3c-0.6,0-1.3-0.6-1-1
		c1.5-1.6,1.9-3.6,2.3-5.6c0-0.1-0.2-0.3-0.3-0.4c-0.1-0.1-0.4-0.2-0.5-0.1c-0.5,0.2-1.1,0.4-1.5,0.7c-1.6,1.2-3.2,2.4-4.9,3.6
		c-0.2,0.2-0.8,0.2-1.1,0.1c-0.3-0.1-0.6-0.4-0.7-0.7c-0.3-1.3-0.2-2.7,0.2-4c0.7-2.3,0.9-4.7,0.7-7c0-0.5-0.2-1-0.5-1.4
		c-0.1-0.2-0.7-0.2-0.9-0.1c-0.9,0.5-1.2,1.3-1.2,2.2c-0.1,0.9-0.4,1.6-1.4,2.1c-1.2,0.6-2.3,1.2-3.5,1.8c-0.8,0.3-1.5,0.2-2.1-0.4
		c-0.2-0.2-0.5-0.4-0.7-0.6c0,0,0,0,0,0c-0.1,0-0.3,0-0.4,0.1c-0.3,0.2-0.6,0.4-1,0.6c-0.1,0.1-0.4,0.1-0.5,0
		c-0.4-0.2-0.3-0.4,0.3-0.4c0.4,0,0.8-0.1,1.2-0.1c0.1-0.1,0.2-0.1,0.3-0.2c0,0,0.1,0.1,0.1,0.1c0.2-0.5,0.3-0.9,0.5-1.4
		c0.1-0.6-0.2-1.1-0.7-1.2c-1.3-0.4-2.7-0.6-3.9-0.1c-2.9,1-5.8,1.8-8.9,1.9c-0.9,0-2,0.3-2.7,0.8c-1.7,1.2-3.5,1.1-5.3,0.9
		c0,0-0.1,0.1-0.1,0.1l-0.2,0.2l0.1-0.4c0,0,0.1,0,0.1,0c0.1-0.1,0.2-0.2,0.3-0.3c0.5-0.6,0.6-1.2,0.1-1.8c-0.5-0.6-1-0.7-2-0.2
		c-0.7,0.3-1.2,0.7-2.1,0.8c-1.3,0.1-2.6,0.4-3.9,0.8c-1.5,0.5-2.7,1.3-2.9,2.8c-0.1,0.7-0.7,0.9-1.2,0.6c-0.8-0.5-1.6-1-2.4-1.4
		c-1.2-0.7-1.9-1.6-2.3-2.8c-0.4-1.1-0.8-2.2-1.3-3.3c-0.3-0.8-0.8-1.5-1.2-2.2c-1.3-1.3-3-2-4.6-2.9c-0.2-0.1-2.3-1.3-2.5-1.4
		l-55.9,89.1c0,0,2.6-1.3,8.2,5.3c5.6,6.7,11.7-1.3,14.8,5.8c3.1,7.1,0,6.7,1.5,14.7c1.5,8,11.2,12.5,5.6,18.7
		c-1.4,1.5-4.2,2.4-7.6,2.8c0.2,0.7,0.6,1.2,1.3,1.5c0.5,0.2,1.1,0.2,1.7,0.3c0.7,0.1,1,0.6,0.5,1c-1.1,1-1.9,2.1-1.9,3.6
		c0,0.6-0.8,0.6-1.3,0.8c-0.7,0.3-0.8,0.6-0.3,1.1c1.3,1.3,1.2,1.8-0.4,2.4c-0.4,0.2-0.8,0.3-0.7,0.7c0.3,1.2,1.4,2,2.4,1.7
		c1.3-0.4,2.5-0.9,3.9-0.9c0.2,0,0.5,0.1,0.5,0.2c0,0.3,0.1,0.7-0.1,0.9c-0.5,0.5-1.1,0.9-1.7,1.3c-1.1,0.8-1.5,1.9-1.5,3.1
		c0,0.3,0.4,0.5,0.7,0.8l0,0c0,0-0.1-0.1-0.1-0.1c0.1,0,0.2,0,0.3,0c0.1-0.1,0.1-0.2,0.2-0.2c0.2,0.1,0.1,0.2-0.2,0.2
		c0,0.1-0.1,0.1-0.1,0.2c1,0.9,1.9,1.8,2.9,2.7c0.5,0.5,0.7,1.2,0.4,1.8c-0.2,0.5-0.6,1.1-0.9,1.6c0,0-0.1,0-0.1,0
		c0,0.1,0,0.1,0,0.2l0.1-0.1c0,0.5-0.3,1-0.1,1.5c0.3,0.9,0.4,1.6-0.3,2.4c-0.1,0.1-0.2,0.3-0.2,0.5l1.6,3c1.1,0.4,2.1,1,2.8,1.8
		c0.7,0.9,1.6,1.4,2.7,1.8c0.9,0.3,1.8,0.7,2.6,1.1c0.5,0.3,0.9,0.7,0.7,1.3c-0.4,1-0.6,2-0.3,3c0.2,0.4,0.5,0.7,0.8,1.1l0.3,0
		l-0.2,0.2c0,0-0.1-0.1-0.1-0.1l0,0c0.1,0.3,0.2,0.7,0.2,1c0.5,0.1,1,0.1,1.6,0.2c0.8,0.2,1.4,0.4,1.7,1.2c0.4,1.1,0.8,2.3,1.5,3.3
		l127.3,9.4c-0.4-0.1-0.6-0.4-0.4-0.7c0.4-0.7,0.5-1.5,1.3-2c0-0.1,0-0.1-0.1-0.2c0.1-0.1,0.2-0.1,0.3-0.2c0,0.1-0.1,0.2-0.1,0.3
		c0,0,0,0-0.1,0.1c0.2,0.6,0.3,1.1,0.5,1.7c0,0.1,0.1,0.4,0,0.5c-0.2,0.2-0.5,0.4-0.9,0.6c-0.1,0.1-0.4,0-0.5,0l18.2,8.9
		c1.7-0.5,3.4-1.1,4.9-2.1c1.8-1.3,4.4-1.4,6.1-2.9c0.6-0.5,1.4-0.5,2.2-0.3c0.6,0.2,1.1,0.4,1.6,0.5c2.1,0.4,3.5,1.3,3.9,3.2
		c0.2,1.1,1.2,1.8,2.4,2c1.5,0.2,1.8,0.9,1.8,2.1c0,1.5,0.4,3,0.5,4.5c0.1,0.7-0.8,1.1-1.6,0.8c-0.7-0.3-1.3-0.7-2.1-0.6
		c-0.8,0.1-1.7,0.1-2.5,0.2l8.2,3.5c0.2-0.2,0.5-0.6,0.6-0.6c4,0.5,8,1.3,11.8,2.6c0.5,0.2,1.1,0.5,1.3,0.9c0.9,1.3,1.7,2.7,2.4,4
		c0.4,0.7-0.2,1.3-0.5,1.9c-0.3,0.5-0.9,0.6-1.5,0.4c-1.3-0.5-2.1-1.5-3-2.3c-0.2-0.2-0.6-0.1-1-0.1c-0.1,0-0.2,0.3-0.3,0.4
		c-0.1,0.5,0,1.1-0.3,1.5c-1.5,2.2-2.4,4.6-3.2,7c-0.1,0.3-0.5,0.5-0.8,0.7c-0.4,0.3-1.3,0.1-1.4-0.3l-4.1,7.6
		c2.6-0.3,4.8-1.4,6.9-2.6c0.9-0.5,1.8-0.6,2.8-0.3c1.2,0.4,2.2,0.2,3.3-0.3c0.8-0.4,1.8-0.6,2.7-0.8c0.3-0.1,0.9,0.1,1.2,0.2
		l7.2-2.9c-1.9-0.2-3.9,0.1-5.8,0c-0.3,0-0.6-0.4-0.7-0.6c-0.1-0.3,0.2-0.6,0.4-0.9c0.1-0.1,0.3-0.2,0.5-0.3
		c0.9-0.3,1.8-0.8,2.7-0.9c1.9-0.2,3.8-0.3,5.7-0.3c1.3,0,2.2-0.4,3.1-1.1c0.2-0.2,0.5-0.2,0.8-0.3c3-1.9,6.6-3.7,8.8-4
		c4.6-0.4,11.7,0.9,15.8-0.4c4.1-1.3,11.2-11.6,14.8-11.1c3.6,0.4,0.5,9.4,3.6,10.7c1.2,0.5,2.4,1.4,3.2,2.5
		c0.2-0.4,0.7-0.7,1.1-0.8c1.9-0.4,3.8-0.7,5.7-1.1c0.1,0,0.5,0.2,0.5,0.2c-0.1,0.3-0.1,0.7-0.3,0.8c-0.7,0.3-1.4,0.5-2.1,0.8
		c-1.6,0.7-2.9,1.8-3.6,3.2c-0.1,0.2-0.1,0.4-0.2,0.6c0,0.2-0.1,0.4-0.1,0.6c0,0.3,0,0.5,0,0.8c0.2,1,1,1.8,2,2.4
		c0.3,0.2,0.8,0.3,1.1,0.2c2.3-0.9,4.5-2,6-3.9c0.9-1.1,1.9-1.6,3.4-1.3c2.9-0.8,5.9-1.7,8.8-2.5c0.9-0.3,1.8-0.5,2.7-0.8
		c0.4-1.8,2.5-1.3,3.7-1.9c0.5-0.3,1.1-0.4,1.6-0.6c0.3-0.2,0.6-0.4,1-0.6c0.4-0.2,0.6-1.1,0.3-1.4c-1.2-0.9-2.2-1.9-1.5-3.5
		c0.1-0.1-0.1-0.3-0.2-0.5c-0.1-0.4-1.1-0.7-1.5-0.5c-1.9,1.4-3.4,3.2-4.8,5c-0.5,0.7-1,0.9-1.9,0.7c-0.5-0.1-1.1-0.2-1.7-0.3
		c-0.2,0.3-0.6,0.5-1,0.4c-0.4-0.1-0.8-0.3-1.2-0.5c-0.5-0.1-1.1-0.2-1.7-0.2c-1.3-0.1-1.9-0.8-2-1.9c-2.1-0.2-3.2-1.2-3.5-3.1
		c-0.3-1.7-0.3-3.3,0.6-4.8c0.4-0.6-0.1-1.2-1.1-1.4c-0.4-0.1-0.8,0-1.2-0.1c-0.2,0-0.3-0.1-0.5-0.2c0.3-0.1,0.7-0.2,1-0.3
		c1.4-0.5,2.8-1.1,4-2c0.6-0.5,0.9-1.6,0.5-2.3c-0.4-0.6-0.8-1.2-1.3-1.6c-1.6-1-3.5-1.6-5.4-1.2c-5.2,1.2-10.4,2-14.9,4.8
		c0,0.1,0,0.1,0,0.2c-0.1,0-0.2,0-0.3,0c-0.6,0.6-1.3,1.1-1.9,1.7c0,0.1,0,0.2,0,0.3c-0.8,0.3-1.7,0.6-2.5,0.8
		c-0.5,0.3-0.9,0.6-1.4,0.9l-0.1,0.3l0.1-0.4c0.4-0.3,0.8-0.6,1.3-0.9c0.8-0.3,1.7-0.5,2.5-0.8l0.2-0.2c0.2-1.4,0.4-1.5,1.9-1.7
		c0.1-0.1,0.1-0.1,0.2-0.2c0,0,0.1,0,0.1-0.1c-0.1-0.8,0.4-1.5,1.1-2c1.9-1.5,4.1-2.6,6.5-3.2c1.5-0.4,2.9-0.9,3.5-2.4
		c0.1-0.3,0.4-0.6,0.7-0.8c1.2-0.9,2.3-1.9,3.6-2.6c1.2-0.7,2.6,0,4,0.1c5.4,0.1,10.8,0.7,16.1,1.4c2.3,0.3,4.6-0.7,6.9-0.3
		c0.5,0.1,1.1-0.1,1.7-0.3C571.9,244.4,572.4,244.2,572.9,244z M578.1,223.6c0,0,0.3,0.3,0.2,0.4c-0.5,1.4-2,1.3-3,2
		c-0.3-0.3-0.5-0.5-0.5-0.6C575.6,224.3,576.8,223.9,578.1,223.6z M479.1,128.4c0.2,0,0.4,0,0.5,0.1c1.4,1.1,2.3,2.6,3.2,4
		c0.1,0.1,0,0.3-0.1,0.4c-0.2,0.1-0.3,0.3-0.4,0.2c-0.5-0.2-1.1-0.3-1.5-0.6c-1.2-0.9-1.8-2.1-2.3-3.4
		C478.5,128.8,478.7,128.5,479.1,128.4z M448.5,136.5c0-0.1,0.3-0.1,0.5-0.1c0.9,0.2,1.6,0.5,2,1.3c0.1,0,0.1,0,0.2-0.1
		c0.1,0.1,0.1,0.1,0.2,0.2c0.7,0.1,1.4,0.2,2,0.7c0.1,0,0.2,0,0.3,0l0,0.3l-0.2-0.2c-0.1-0.1-0.1-0.1-0.2-0.1c-0.8,0-1.4-0.2-2-0.7
		c-0.1,0-0.2,0-0.3,0c0,0,0,0,0-0.1c-1.6,0.5-1.9,0.5-2.6-0.4C448.3,137.2,448.4,136.8,448.5,136.5z M437.4,133
		c0.1,0,0.2,0.1,0.3,0.2c-0.1,0-0.3,0.1-0.4,0.1C436.8,133.2,436.8,133,437.4,133z M318.4,68.8c-0.1,0-0.2-0.3-0.2-0.4
		c0-0.5,0-1,0-0.8c0.1-1,0.1-1.3,0.1-1.6c0-0.1,0.2-0.3,0.3-0.4c0,0,0.3,0.1,0.3,0.2c0.1,0.8,0.1,1.6,0.1,2.4
		C319,68.6,318.9,68.8,318.4,68.8z M326.5,66.5c-0.1,0.1-0.2,0.2-0.3,0.3c0.1-0.1,0.1-0.3,0.2-0.4l0.2-0.1L326.5,66.5z M341.5,89.8
		c0.1,0,0.1,0,0.2-0.1c0-0.1,0-0.1,0.1-0.2c0.2,0.1,0.2,0.1-0.1,0.2c0,0.1,0,0.1-0.1,0.2l-0.4,0.2L341.5,89.8z M328.7,151l-0.2,0.1
		L328.7,151l0.2-0.3L328.7,151z M337.5,192.4c-0.2,0-0.3-0.1-0.5-0.1c0.2-0.1,0.4-0.2,0.6-0.2c0.1,0,0.2,0.1,0.3,0.2
		C337.9,192.3,337.7,192.4,337.5,192.4z M338.8,63.1c-0.1,0.1-0.3,0.2-0.5,0.2c-1.9,0-3.8,0-5.7,0c-0.1,0.1-0.2,0.1-0.4,0.1
		c-0.4,0.4-0.8,0.8-1.3,1.2c-0.1,0-0.2,0-0.3,0c-0.2,0.2-0.3,0.4-0.5,0.5c-0.1,0-0.3-0.1-0.4-0.1c0.2-0.4,0.6-0.4,0.9-0.4
		c0-0.1,0.1-0.1,0.2-0.2c0.4-0.4,0.8-0.8,1.3-1.2c0.2,0,0.3,0,0.5,0c1.9-0.9,4-0.7,6.1-0.4C338.8,62.8,338.9,63,338.8,63.1z
		 M346.3,145.9c-0.1-0.1-0.2-0.2-0.3-0.3c0.2,0,0.3,0.1,0.5,0.1l0.1,0.2L346.3,145.9z M347.3,111.4c-1.5,1-2.9,1-4.8,0.1
		c-0.8-0.4-0.9-0.8-0.4-1.1c0.8-0.5,1.8-0.8,2.3-1.4c0.9-1,1.8-1.7,3.2-2.1c1-0.3,1.4-1,1.7-1.9c0.1-0.2,0.6-0.4,0.9-0.4
		c0.9,0,1.8,0.6,2.8,0.4c0.7-0.1,1.3-1.1,0.8-1.6c-0.5-0.5-1-1.1-1.6-1.4c-1.2-0.6-2.5-0.8-3.9-0.9c-2.5-0.1-5-0.2-7.5-0.4
		c-0.1,0-0.3-0.3-0.3-0.3c0.1-0.3,0.2-0.7,0.5-0.8c0.3-0.2,0.7-0.2,1.1-0.2c2.9-0.1,5.8-0.2,8.7-0.3c2.1,0,4.2-0.3,6.3-0.9
		c1.8-0.5,3.8-0.8,5.7-1.2c0.5-0.1,1.2,0,1.7,0.1c0.3,0.1,0.8,0.3,0.8,0.5c0.1,0.2-0.1,0.8-0.4,0.8c-1.6,0.6-3.2,1.1-4.8,1.7
		c-0.4,0.1-0.7,1-0.4,1.3c0.1,0.1,0.2,0.3,0.3,0.4c0.3,0.2,0.6,0.4,0.9,0.6c2.6,1.7,5.2,2.3,7.9,0.2c0.1-0.1,0.4-0.1,0.5-0.1
		c0.4,0.2,0.4,0.5,0.3,0.9c-0.2,0.7-0.5,1.3-1.1,1.7c-0.8,0.5-1.6,1-2.3,1.6c-0.4,0.3-0.6,0.8-0.8,1.3c-0.8,1.7-1.3,1.9-2.8,0.8
		c-1.5-1.2-3.1-1.2-4.8-0.6c-0.5,0.2-1.1,0.6-1.2,1c-0.3,1.8-1.5,2.5-3.3,2.8c0,0.1,0,0.1-0.1,0.2c-0.1,0-0.3,0-0.4,0
		c-0.5,0.4-1.2,0.6-1.9,0.7c-0.1,0.1-0.1,0.1-0.2,0.2c-0.1,0-0.2,0-0.3,0c-0.1,0.2-0.3,0.4-0.5,0.5c-0.1,0-0.3-0.1-0.4-0.1
		c0.2-0.4,0.5-0.4,0.9-0.4c0-0.1,0.1-0.1,0.2-0.2c0.1,0,0.2-0.1,0.3-0.1c0.5-0.5,1.1-0.7,1.9-0.7c0.1-0.1,0.2-0.1,0.2-0.1
		c0.1,0,0.1,0,0.2,0c0.3-0.7,0.6-1.5,0.8-2.2c0.3-0.8-0.8-1.8-1.7-1.5c-1.1,0.3-2.2,0.7-3.2,1.2C348.7,110.2,348,110.9,347.3,111.4z
		 M361,114.6c-0.2,0.2-0.5,0.3-0.7,0.4c0,0.1,0,0.2-0.1,0.2c0,0.1-0.1,0.2-0.2,0.2c0,0.2,0,0.4-0.1,0.6c-0.4-0.3-0.1-0.4,0.1-0.6
		c0-0.1,0-0.2,0-0.4c0.1,0,0.1-0.1,0.2-0.1c0.1-0.3,0-0.7,0.6-0.8C360.9,114.2,361,114.6,361,114.6z M356.2,130.2
		c-0.3,0.2-0.4,0.4-0.5,0.4c-1.5-0.2-2.2-1.2-2.7-2.4c-0.1-0.1,0.4-0.6,0.7-0.7c0.3-0.1,1-0.2,1.1,0
		C355.3,128.5,355.8,129.4,356.2,130.2z M352,156.7l0-0.3l0.5,0.2L352,156.7z M361.1,172c-0.1,0.1-0.3,0.1-0.4,0.2
		c-0.1-0.3-0.2-0.6-0.2-0.8c0,0,0.3-0.2,0.4-0.1c0.1,0.1,0.2,0.2,0.3,0.4C361.2,171.8,361.2,171.9,361.1,172z M367.3,192.9
		c-0.1-0.1-0.1-0.2-0.2-0.3c-0.1-0.3-0.3-0.5-0.4-0.8c0.2,0.2,0.3,0.5,0.5,0.7C367.6,192.6,367.6,192.7,367.3,192.9z M379.8,169
		c-1.3,0.2-2.6,0.3-3.9,0.4c0-0.1,0-0.1,0-0.2c-0.6,0-1.2,0-1.7,0c-1.8-0.1-3.4,0.5-4.6,1.7c-0.4,0.4-0.8,0.7-1.3,0.9
		c-0.2,0.1-0.7-0.1-1-0.2c0,0-0.1-0.3,0-0.4c0.4-0.5,0.8-1.2,1.4-1.5c2.1-1.1,4.3-2.2,6.4-3.2c0.3-0.1,0.8,0,1.1,0.2
		c1,0.8,2.1,1.4,3.5,1.4c0.1,0,0.3,0.5,0.4,0.7C380.2,168.8,379.9,169,379.8,169z M381.2,200.5c-0.1,0-0.3-0.2-0.4-0.3
		c0.1-0.3,0.1-0.6,0.3-0.8c0.4-0.3,0.9-0.5,1.4-0.2c0.1,0.1,0.2,0.2,0.2,0.3C382.7,200.1,381.9,200.6,381.2,200.5z M380.6,184
		c-0.1,0-0.4-0.1-0.4-0.2c-0.1-0.1,0-0.3,0.1-0.4c0.6-0.7,1.3-1,2.3-0.8c0.1,0,0.1,0.2,0.2,0.4C382.4,183.7,381.7,184.1,380.6,184z
		 M382.8,149l0.2-0.3l0.2,0.4L382.8,149z M384.8,140C384.8,140,384.7,140,384.8,140c-0.5,0.5-0.9,1-1.5,1.4
		c-0.8,0.5-1.7,0.8-2.5,1.2c-1.9,0.8-3.8,1.6-5.5,2.8c-2,1.3-4.4,2.1-6.6,3.1c-0.3,0.1-0.8,0.1-1.1,0c-1.7-0.7-3,0-4.1,1.1
		c-0.8,0.8-1.7,1.3-2.9,1.5c-1.7,0.2-3.4,0.6-5.1,0.8c-1.4,0.1-2.7-0.2-3.6-1.3c-0.6-0.7-1.3-1.3-1.9-1.9c0,0,0.1-0.3,0.2-0.3
		c0.1-0.1,0.4-0.1,0.5-0.1c0.7,0.2,1.4,0.5,2.2,0.6c0.5,0.1,1.2,0,1.6-0.3c0.9-0.7,1.7-1.4,2.4-2.2c0.8-0.9,1.8-1.2,3-1.1
		c0.4,0.1,0.8-0.1,1.1-0.1c0.7-0.1,1.4-0.8,1.3-1.4c-0.1-0.5-0.1-1-0.2-1.5c-0.2-1-0.4-2-0.7-3c-0.1-0.4,0-0.7,0.4-0.7
		c0.1,0,0.4,0.1,0.5,0.2c1.8,1.1,2.7,2.8,3.9,4.4c0.6,0.8,1.5,1.1,2.5,1.2c2.7,0.3,5.1-0.4,7-1.8c1.9-1.4,4-2,6.3-2.3
		C382.8,139.8,383.8,139.9,384.8,140c-0.1,0,0-0.1,0-0.1c-0.1-0.3,0-0.4,0.2-0.1C385,139.8,384.9,139.9,384.8,140z M387.2,109.6
		c-0.3,0-0.7,0.1-0.9,0c-0.7-0.4-0.8-1-0.3-1c0.3,0,0.7,0.1,1,0.2c0.1,0,0.2,0.2,0.3,0.4C387.3,109.3,387.3,109.6,387.2,109.6z
		 M399.8,131.2c0.1-0.1,0.3-0.1,0.5-0.2c0.4,0.2,0.5,0.4,0.3,0.8c-0.1,0.1-0.3,0.2-0.4,0.1C399.7,131.8,399.6,131.5,399.8,131.2z
		 M396.7,178.5c0.2-0.7,0.8-1.1,1.6-1.3c0.3-0.1,0.7,0.2,1,0.3c0.1,0,0.1,0.3,0,0.5c-0.7,1-1.6,1.7-2.8,2.3c0,0.1,0,0.1,0,0.2
		c-0.1,0-0.2,0-0.3,0.1c-0.1,0.1-0.2,0.2-0.3,0.3c0-0.1,0-0.2,0.1-0.3c0,0,0.1,0,0.2,0c0.1-0.1,0.1-0.1,0.2-0.2
		c0.1,0,0.1-0.1,0.1-0.1C396.5,179.7,396.5,179.1,396.7,178.5z M395.9,129.7c0.5,0,0.7,0.2,0.3,0.5c-0.1,0.1-0.4,0-0.6,0
		c-0.1-0.1-0.2-0.2-0.3-0.3C395.5,129.8,395.7,129.7,395.9,129.7z M390.5,124.9c-0.1,0.1-0.4,0.1-0.5,0.1c-0.3-0.2-0.4-0.5-0.1-0.8
		c0.1-0.1,0.3,0,0.5,0C390.8,124.4,390.8,124.7,390.5,124.9z M393.5,114.5l-0.1-0.3l0.2,0L393.5,114.5z M399.1,219.8
		c-0.4,0.7-1,1.4-1.5,2.1c-0.3,0.4-0.6,0.5-0.7,0.2c-0.1-0.1-0.1-0.3-0.1-0.5c0-0.2,0-0.3,0.1-0.5c0.4-0.9,1.1-1.7,0.7-2.8
		c-0.4-1.2-1.8-1.1-2.6-1.6c-0.1-0.1-0.2-0.4-0.2-0.4c0.2-0.2,0.5-0.5,0.7-0.5c0.3,0,0.7,0.1,1.1,0.2c0.7,0.1,1.4,0.2,2.1,0.3
		c0,0,0-0.1-0.1-0.1c0,0,0.1,0,0.1,0c-0.6-0.8-1.2-1.6-1.7-2.4c-0.8-1.3-0.8-2.6-0.1-3.9c0.2-0.4,0.7-0.9,1.2-1
		c0.4-0.1,1.1,0.2,1.5,0.5c0.6,0.6,1.1,1.3,1.6,2c0,0,0,0,0.1-0.1l0.1-0.3l-0.1,0.4c0,0,0-0.1-0.1-0.1c-1.5,1.2-1.5,2.4,0,3.6
		c0.3,0.2,0.1,0.7-0.4,0.8c-0.7,0.2-1.4,0.3-2.1,0.4c0,0.1,0.1,0.1,0.1,0.2c0,0-0.1,0-0.1,0c0.2,0.6,0.6,1.1,0.6,1.7
		C399.4,218.5,399.3,219.2,399.1,219.8z M401.7,233.4c0,0.1-0.2,0.3-0.3,0.3c-0.3,0-0.9,0-0.9-0.1c-0.4-1.1-0.7-2.2-0.9-3.3
		c0-0.2,0.3-0.6,0.5-0.8c0-0.1-0.1-0.1-0.1-0.2c0.1-0.3,0.1-0.5,0.2-0.8c0,0,0,0,0,0c0-0.1,0.1-0.2,0.1-0.3c0,0.1-0.1,0.2-0.1,0.4
		c0,0.3-0.1,0.6-0.1,0.9c0,0,0,0,0,0c0.5,1,1.1,1.9,1.6,2.9C401.8,232.8,401.8,233.1,401.7,233.4z M402.5,183.6
		c-0.9,0.9-1.9,1.7-2.6,2.6c-0.6,0.8-0.9,1.8-1.4,2.7c-0.1,0.3-0.5,0.4-0.8,0.6c0,0.1,0,0.1,0.1,0.1c-0.5,0.4-0.9,0.8-1.4,1.2
		c-0.2,0-0.3,0.1-0.5,0.1c-0.6,0.3-1.3,0.6-1.9,0.9c-0.1,0-0.3-0.2-0.3-0.3c0-0.1,0.1-0.4,0.2-0.4c0.7-0.1,1.4-0.2,2.1-0.3
		c0.1-0.1,0.3-0.1,0.4-0.2c0.5-0.4,0.9-0.8,1.4-1.1c0,0,0.1,0,0.1-0.1c0-0.1-0.1-0.2-0.1-0.3c-1-4.1-1.6-4.5,3.8-7.1
		c0.2-0.1,0.8,0,1,0.2c0.2,0.2,0.3,0.6,0.3,0.9C402.7,183.2,402.6,183.4,402.5,183.6z M409.5,208.5c0.1,0,0.2,0.2,0.3,0.2
		c-0.1,0.1-0.1,0.3-0.2,0.3c-0.1,0-0.3,0-0.4-0.1C408.9,208.7,409,208.5,409.5,208.5z M407.2,223.8c-1.1-0.2-1.6-0.8-1.9-1.6
		c-0.2-0.5-0.3-1-0.4-1.5c-0.3-1.3-0.9-2.6,0-3.9c-0.3-0.6-0.7-1.1-1-1.7c0.6-0.9,1.1-1.7,1.7-2.6c0.1-0.2,0.7-0.3,1-0.2
		c1.1,0.3,2.2,0.8,2.5,1.8c0.4,1.1,0.7,2.2,0.5,3.4c-0.2,1.7-0.2,3.3-0.2,4.6c0.2,0.8,0.5,1.3,0.5,1.8c0,0.5,0,1.2-0.3,1.3
		c-0.6,0.4-0.9-0.3-1.2-0.7C408.1,224.4,407.7,223.9,407.2,223.8z M408.3,233.3c0,0.1,0,0.1,0,0.2l-0.3,0l0.2-0.1
		C408.2,233.3,408.2,233.3,408.3,233.3c-0.4-1.7,0.3-3.2,1.3-4.6c0.1-0.1,0.3-0.2,0.4-0.1c0.1,0.1,0.3,0.3,0.3,0.4
		C410.5,230.7,410,232.2,408.3,233.3z M411.1,191.3c-0.3,0-0.6-0.2-0.9-0.3c0.2-0.2,0.4-0.6,0.7-0.7c0.4-0.1,0.7,0.1,0.8,0.4
		C411.8,191.1,411.6,191.3,411.1,191.3z M412.6,206.6l0-0.3l0.4,0.1L412.6,206.6z M415.5,188.7l0.2-0.3l0.2,0.3L415.5,188.7z
		 M427.7,207.3c0.1,0,0.3,0.1,0.4,0.1c0,0.1-0.1,0.3-0.1,0.3c-0.2,0-0.3-0.1-0.5-0.1C427.6,207.5,427.7,207.3,427.7,207.3z
		 M418.5,149.2l0,0.3l-0.4-0.2L418.5,149.2z M419.9,165.8c0,0.1-0.1,0.2-0.1,0.3c-0.4,0.4-0.8,0.8-1.3,1.2c-0.1,0.1-0.2,0.2-0.3,0.2
		c0-0.1,0.1-0.2,0.1-0.3c0.4-0.4,0.8-0.8,1.3-1.2C419.7,166,419.8,165.9,419.9,165.8c0.1-0.2,0.1-0.4,0.2-0.6
		c0.1,0.1,0.2,0.1,0.3,0.2C420.2,165.5,420.1,165.7,419.9,165.8z M420.6,145.6c-2.1-1.7-1.9-3.2,0.7-4.3c0.7-0.3,1.4-0.4,2.2-0.4
		c0.2,0,0.5,0.3,0.8,0.5c-1.3,1-0.9,2.5-1.5,3.7C422.5,146,421.5,146.2,420.6,145.6z M424,213.6c-0.4-0.1-0.6-0.3-0.3-0.7
		c0.1-0.1,0.4-0.1,0.4-0.1c0.2,0.2,0.3,0.4,0.5,0.7C424.3,213.6,424.1,213.7,424,213.6z M429.2,236.5c-0.1,0.1-0.3,0.3-0.5,0.2
		c-1.1-0.2-2.1-0.6-2.9-1.3c-0.1,0-0.1,0-0.2,0c-0.4,0-0.4-0.1-0.1-0.3c0,0,0.1,0.1,0.2,0.2c0,0,0.1,0,0.1,0.1
		c1.1,0.1,2.2,0.1,3.3,0.3C429.4,235.8,429.5,236.2,429.2,236.5z M429.6,145.4c-0.1-0.1-0.2-0.2-0.2-0.4c0-0.1,0.2-0.2,0.3-0.3
		c0.1,0.1,0.1,0.3,0.2,0.4C429.8,145.2,429.7,145.3,429.6,145.4z M434.7,149.8c-0.4-0.3-0.9-0.6-1.2-1c-0.2-0.2-0.1-0.7,0.1-0.9
		c0.2-0.2,0.7-0.4,1-0.3c0.3,0,0.8,0.3,0.9,0.5c0.2,0.4,0.2,1,0.3,1.3C435.5,150,435.1,150.1,434.7,149.8z M437.2,232l-0.5-0.1
		l0.5-0.2L437.2,232z M443.6,241.8c-0.1,0.1-0.3,0.2-0.4,0.2c-0.4,0.1-0.7,0-0.9-0.4c-0.5-1-0.4-1.9,0.5-2.6
		c0.1-0.1,0.3-0.1,0.5-0.1c0.3,0.2,0.7,0.3,0.8,0.6C444.3,240.3,444.3,241.1,443.6,241.8z M457.9,216.9c-0.2,0.3-0.4,0.7-0.7,1
		c0,0.1,0,0.2,0,0.3l-0.5,0.1l0.3-0.2c0-0.1,0.1-0.1,0.1-0.2c0-0.4,0-0.7,0-1.1c0-0.5,0.3-0.6,0.6-0.3
		C457.9,216.5,458,216.8,457.9,216.9z M480.1,249.2c-0.2,0-0.4-0.1-0.4-0.2c-0.1-0.1,0-0.3,0.1-0.4c0.1-0.1,0.3-0.1,0.4-0.1
		c0.1,0.1,0.3,0.2,0.4,0.3C480.8,249.1,480.6,249.3,480.1,249.2z M502.8,251.3c-0.1,0.1-0.3,0.1-0.4,0.1c-0.1,0-0.2-0.2-0.3-0.3
		c0.1-0.1,0.3-0.2,0.4-0.2c0.1,0,0.3,0.1,0.4,0.1C502.8,251.1,502.9,251.3,502.8,251.3z M513,237.2c-0.8,0.4-1.6,0.8-2.4,1.1
		c0,0-0.2-0.2-0.2-0.4c0.5-0.7,1.2-1.3,2.2-1.3c0.2,0,0.4,0.1,0.5,0.2C513.1,236.9,513.1,237.2,513,237.2z M521.7,212.6
		c-0.1-0.1-0.2-0.1-0.4-0.2c0.1,0,0.3-0.1,0.5-0.1C522.3,212.6,522.3,212.6,521.7,212.6z M533.9,219.6c0,0.1-0.3,0.2-0.5,0.1
		c-1.2-0.3-1.6-1.3-1-2.3c0.2-0.4,0.7-0.7,1-1.1c0.1,0.3,0.3,0.6,0.3,0.9c0.1,0.3,0.1,0.6,0.3,1.4
		C534.1,218.7,534.1,219.2,533.9,219.6z M536.5,216.1c-0.4,0.1-0.4,0-0.1-0.2c0,0,0.2,0.1,0.3,0.2c0.1,0.3,0.2,0.5,0.3,0.8
		C536.8,216.6,536.6,216.3,536.5,216.1z M550.2,229.4l0.1-0.1l0.2,0.1L550.2,229.4z M553.2,230.3l0.1-0.3l0.1,0.3L553.2,230.3z
		 M560.1,221.9c-0.7,0.2-1.4,0.4-2,0.6c-1.6-0.7-3.2-0.5-4.7-0.5c-0.5,0-1-0.3-1.5-0.6c-0.1-0.1-0.3-0.3-0.3-0.4
		c0-0.1,0.1-0.4,0.2-0.4c0.9-0.1,1.9,0.2,2.8-0.2c1.9-0.9,3.7-0.2,5.5,0.3c0.2,0.1,0.3,0.5,0.3,0.8
		C560.4,221.7,560.2,221.9,560.1,221.9z"/>
</g>
<g>
	<path class="st0" d="M184.1,145.9c-0.8,0.4-1.6,0.9-2.7,0.7c-1.1-0.2-1.8,0-2.3,1c-0.1,0.3-0.5,0.4-0.8,0.6c-0.1,0.1-0.4,0-0.6,0
		c-4,0.5-4.9,1.4-5,4.9c0,0.5,0.3,0.9,0.8,1.2c0.4,0.3,0.5,0.9,0.8,1.2c0.2,0.2,0.9,0.3,1,0.2c2-1.6,4.1-2.9,6.7-3.7
		c1.2-0.4,2-1.4,3.2-1.9c0.9-0.4,1-1.4,0.9-2.2c-0.1-0.5-0.5-0.8-1.1-1.1C184.7,146.5,184.4,146.2,184.1,145.9c0,0,0-0.1,0-0.1
		c-0.1,0-0.1,0-0.2,0L184.1,145.9z M222,131.9c-0.2,0.1-0.3,0.2-0.3,0.4c-0.1,0.6,0.3,1.1,0.9,0.9c0.2,0,0.3-0.2,0.4-0.3
		C223,132.4,222.4,131.8,222,131.9z M140.7,165.3c0.1,0,0.1,0,0.2-0.1l-0.1-0.1C140.7,165.2,140.7,165.3,140.7,165.3z M258.1,185.5
		c-0.4,0.1-0.6,0.7-0.3,1.2c0.1,0.2,0.5,0.3,0.8,0.4c-0.2-0.1-0.5-0.2-0.6-0.3c0.3,0,0.6,0,0.8,0l-0.2,0.3c0.1-0.2,0.3-0.5,0.4-0.7
		C258.9,185.8,258.5,185.4,258.1,185.5z M140.6,165.6c0-0.1,0.1-0.2,0.1-0.3C140.3,165.4,140.3,165.5,140.6,165.6z M135.8,81.2
		c0.5,0.2,1,0.5,1.5,0.5c1.3,0.1,2.2,0.5,2.6,1.6c0.4,0.9,0.8,1.9,1.2,2.8c0.2,0.4,0.9,0.6,1.5,0.5c1.1-0.3,2.2-0.6,3.3-0.9
		c0.2,0,0.3-0.2,0.4-0.3c0-0.2,0.1-0.4,0-0.5c-0.7-1.2-1.6-2.3-2-3.6c-0.5-1.7-1.7-2.4-3.6-2.7c-0.8-0.1-1.6-0.9-2.4-1.3
		c-0.2-0.1-0.8,0-1,0.1c-0.8,0.7-1.8,1.3-2.1,2.3C135.2,80.2,135.4,81,135.8,81.2z M110.9,169.1c0,0.1,0.2,0.3,0.2,0.4
		c0.1-0.1,0.2-0.2,0.3-0.4c-0.1-0.1-0.2-0.3-0.3-0.4C111.1,168.8,110.9,168.9,110.9,169.1z M139.9,118.8c1.1-0.2,2.1-1.8,1.8-2.8
		c-0.1-0.5-1.2-1.3-2-1.3c-1.3,0.2-3,0.4-4.6,0.7c-0.2,0-0.4,0.5-0.4,0.8c0,0.7,0.3,1.3,0.9,1.7C136.9,119,138.4,119.2,139.9,118.8z
		 M107.4,169.5c-0.4,0-0.9,0-1.1,0.2c-1.5,1.3-2.9,2.7-4.2,4c-0.1,0.1,0,0.3,0.1,0.4c0.1,0.1,0.3,0.3,0.4,0.3
		c2.2-0.1,4.1-0.9,5.7-2.1c0.4-0.3,0.4-0.9,0.6-1.2C108.8,170.3,108.1,169.5,107.4,169.5z M98.9,172.5c-0.5-0.1-1.2-0.1-1.6,0.2
		c-1.6,1-3,2.1-4.1,3.5c-0.3,0.4-0.3,0.7,0.1,0.9c0.1,0.1,0.4,0.1,0.5,0c2.2-0.7,4.1-1.8,5.6-3.4c0.1-0.1,0.1-0.3,0.1-0.5
		C99.4,172.9,99.2,172.5,98.9,172.5z M186.5,143.2c-0.9,0.8-2.1,1.4-2.4,2.6c1.3,0.3,2.5,0.4,3.8,0.1c0.3-0.1,0.7-0.3,0.9-0.5
		c0.4-0.3,0.2-1.4-0.3-1.9C188.1,142.9,187,142.8,186.5,143.2z M217.9,132.7c0,0,0.1-0.1,0.1-0.1c0,0-0.1,0-0.1,0
		C217.9,132.6,217.9,132.6,217.9,132.7C217.9,132.7,217.9,132.7,217.9,132.7z M216.7,133.2c0,0.2,0,0.4,0,0.5l0.2-0.1
		c-0.5,0.5-1,1-1.5,1.5c-0.6,0.6-0.6,1.2,0,1.2c0.3,0.1,0.8,0.1,1.1,0c1.3-0.8,2.4-1.7,3.2-2.9c0.2-0.3-0.1-0.6-0.5-0.7
		c-0.4-0.1-0.7-0.1-1.1-0.2c-0.4,0.3-0.7,0.6-1.1,0.9C216.8,133.5,216.7,133.4,216.7,133.2z M216.7,132.6L216.7,132.6
		c-0.1,0.1-0.1,0.2-0.1,0.2C216.7,132.7,216.8,132.7,216.7,132.6C216.8,132.6,216.7,132.6,216.7,132.6z M266.6,150.3
		c-3.1-7.1-9.2,0.9-14.8-5.8c-5.6-6.7-8.2-5.3-8.2-5.3l55.8-89.4c-1.4-1-2.7-2.2-3.3-3.9c-0.1-0.3-0.4-0.6-0.6-0.8
		c-0.5-0.6-1.1-1-1.9-1c-0.8-0.1-1.5-0.1-2.3-0.1c-1.7,0-3-0.5-4.3-1.4c-1.8-1.3-3.5-2.6-5.8-3.3c-1-0.3-1.9-1.1-2.8-1.8
		c-1-0.8-1.7-1.8-2.3-2.9c-0.6-1.2-1.9-1.7-3.4-1.4c-0.9,0.2-1.9,0.4-2.8,0.6c-0.6,0.1-1.1-0.1-1.5-0.6c-0.9-1.3-0.8-2.9-1.8-4.2
		c-0.1-0.2,0.2-0.6,0.4-0.9c0.4-0.4,0.6-0.9,0.4-1.4c-0.2-0.4-0.6-0.9-1.1-1.1c-0.8-0.4-1.8-0.6-2.7-0.9c-0.6-0.1-1.2-0.2-1.7-0.2
		c-0.9-0.1-1.1-0.4-0.9-1.5c0.1-0.9,0.2-1.6-0.9-2c0,0,0,0,0,0.1c-0.2,0-0.3,0-0.4,0c-0.6,0.2-1.1,0.3-1.7,0.5
		c-0.2,0.1-0.4,0.2-0.6,0.3l-0.2,0c-0.1,0.3-0.1,0.6-0.2,0.8c-0.4,0.7-1.1,0.9-1.8,0.5c-0.3-0.1-0.4-0.5-0.5-0.8
		c0,0,0.3-0.3,0.4-0.3c0.7-0.1,1.4-0.1,2.1-0.2c0,0,0-0.1,0-0.1c0.3-0.1,0.5-0.2,0.8-0.2c0.5-0.3,1.1-0.5,1.7-0.5l0.3-0.1
		c0,0,0.1,0,0.1,0c-0.4-1.3-1.2-2.4-2.3-3.4c-0.6-0.5-1.3-0.6-2.1-0.4c-1.3,0.4-2.6,0.8-3.7,1.5c-1.7,1.2-3.6,1.2-5.5,0.7
		c-1.1-0.3-2.2-0.6-3.4-0.9c-1.9-0.5-3.4,0.2-4.7,1.3c-0.4,0.3-0.5,0.9-0.9,1.3c-0.4,0.4-0.8,0.8-1.3,0.9c-1.5,0.2-3,0.8-4.6,0.4
		c-2.2-0.5-4.3,0-6.1,1.1c-3.4,2-7.1,3.5-10,6.1c-0.4,0.4-0.8,0.7-1.3,1c-3.8,1.9-7.6,3.6-12,1.4c-0.2-0.1-0.4-0.1-0.5-0.2
		c-1.8-0.6-2.7-0.4-4.1,1c-0.9,0.9-1.6,2-2.6,2.7c-1.6,1.1-2,2.3-1.2,4c0.5,1.1,0.7,2.3,1.2,3.4c1.3,3.1,1.7,6.2-0.3,9.3
		c-0.4,0.6,0.1,1.7,0.9,2.2c0.9,0.6,2,1,3,1.5c0.2,0.1,0.2,0.6,0.3,0.9c0,0-0.3,0.1-0.5,0.2c-0.6,0.1-1.2,0.2-1.3,0.8
		c-0.2,1.3-0.3,2.7-0.3,4c0,0.2,0.5,0.6,0.8,0.6c0.5,0.1,1,0.1,1.5,0.1c0-0.1,0-0.1,0.1-0.2c0.1,0,0.1,0.1,0.2,0.1
		c0-0.3,0.1-0.6,0.1-0.9c0,0-0.1,0-0.1,0l-0.2-0.2l0.3,0.1c0,0,0,0,0,0.1c1.7-0.4,3.3-0.1,4.8,0.4c0.4,0.1,0.7,0.9,0.4,1.3
		c-0.2,0.2-0.6,0.5-0.8,0.5c-1.6-0.1-3.1-0.7-4.6-1.3l0,0.1c-0.1,0-0.2,0-0.3,0c-0.2,0.6-0.1,1.3-1,1.4c-1.2,0.1-2.3,0.4-3.2,1.1
		c-1.1,0.7-2.2,0.6-3.3,0.1c-1.2-0.5-2.4-1.1-3.6-1.7c-0.8-0.4-1-1.1-0.5-1.7c0.4-0.6,0.9-1.1,1.3-1.7c0.8-1.1-0.4-2.5-1.7-2.6
		c-1.5,0-3.1,0-4.6,0.2c-0.9,0.1-2,0.5-2.6,1.1c-0.9,1-1.8,0.9-3.1,0.8c-0.9-0.1-1.9,0.2-2.8,0.4c-2.8,0.4-4.9,2-7.4,2.8
		c-0.9,0.3-1.2,1.4-0.7,2.1c0.9,1.1,1.8,2.2,2.7,3.3c0.3,0.4,0.1,0.6-0.8,1c-0.3,0.1-0.9,0.2-0.9,0.4c-0.3,1.7-1.4,3.1-1.9,4.7
		c-0.2,0.6-0.1,1.4,0.3,1.9c1.3,1.7,3,3.2,5.7,2.8c2.2-0.3,4.2-0.1,6,1.2c1,0.7,2,0.8,3.2,0.3c1.9-0.8,3.9-1.5,5.9-2.2
		c0.5-0.2,1.1,0,1.7,0.1c0.1,0,0.3,0.2,0.3,0.3c0.1,0.1,0.1,0.4-0.1,0.5c-0.3,0.2-0.6,0.4-1,0.5c-1,0.2-1.8,0.5-1.5,1.7
		c0.1,0.5,0.2,1.1-0.1,1.5c-0.8,1.4-1.5,2.7-1.8,4.3c-0.3,1.7-3.2,3.4-5.2,3.4c-0.4,0-0.8-0.1-1.1-0.3c-0.6-0.4-1.3-0.8-1.9-1.2
		c-0.4-0.3-0.8-1-1.2-1c-0.6,0-0.5,0.7-0.7,1.1c-0.8,1.9-2.6,2.9-4.8,3.2c-0.3,0-0.8-0.1-1-0.3c-0.3-0.2-0.4-0.5-0.7-0.8
		c-1-1.3-2.1-1.6-3.4-1c-2.2,1.1-4.4,2.2-5.2,4.5c-0.1,0.3-0.4,0.7-0.7,0.8c-3.4,1.7-5.8,4.5-8.9,6.4c-2.2,1.4-2.8,3.1-2.2,5.3
		c0.2,0.8,0.4,1.6,0.7,2.4c0.3,0.9,0.2,1.7-0.6,2.4c-1.8,1.5-1.9,3.2-1.2,5.1c0.4,1.1,0.6,2.3,1,3.4c0.2,0.7,0.9,1.1,1.6,1.3
		c0.7,0.2,1.5,0.4,2.2,0.3c1.5-0.3,2.9-0.6,4.4-0.5c0,0,0-0.1,0-0.1c0-0.1,0.1-0.2,0.1-0.3c0-0.4,0-0.7,0.1-1c0-0.2,0-0.4,0.1-0.5
		c0.4-0.2,0.5,0,0.4,0.5c-0.1,0.4-0.3,0.7-0.5,1.1l0,0.4c0,0-0.1,0-0.1,0c-0.2,0.8-0.4,1.6-0.4,2.4c0,1.3-0.7,2.2-1.8,3
		c-0.8,0.6-0.9,1.5-0.4,2.3c0.4,0.7,0.2,1.3-0.1,1.9c-0.2,0.4-0.6,0.8-0.9,1.2c-0.4,0.6-0.3,1,0.3,1.1c1.7,0.5,3.4,0.9,4.5-0.9
		c0.1-0.1,0.5-0.2,0.5-0.2c1.5,1.3,3.6,2.1,4.1,4.1c0.1,0.5,0.8,0.6,1.3,0.2c0.1-0.1,0.2-0.3,0.3-0.4c0.9-1,0.9-1,2.7-0.4
		c0.5,0.2,1.1,0.2,1.7,0.2c0.6,0,1.1-0.2,1.7-0.3c0.2,0,0.4,0,0.5,0.1c0.3,0.2,0.3,0.5-0.1,0.8c-1.6,1-2.6,2.3-3.5,3.9
		c-2.1,3.5-4.7,6.6-8.9,8.4c-1.4,0.6-2.5,1.5-4,2c-2.3,0.8-4.4,2.1-6.7,3.1c-1.4,0.6-2.6,1.4-3.5,2.6c-0.5,0.7-1.2,0.7-2,0.5
		c-1.8-0.5-3.5-0.1-5,0.7c-1.3,0.7-2.6,1.5-3.8,2.4c-2,1.5-4.2,2.4-6.8,2.5c-1,0-1.9,0.2-2.9,0.3c-2,0.1-3,1.4-4.1,2.6
		c-0.2,0.2-0.1,0.7,0.1,0.9c0.2,0.2,0.6,0.5,0.9,0.5c0.6,0,1.2-0.1,1.7-0.3c1.1-0.4,2.3-0.1,3.5-0.3c0.7-0.1,1.7-0.3,2.1-0.7
		c1.3-1.3,2.8-1.6,4.7-1.7c2.5-0.1,4.4-1.2,5.5-3.1c0,0-0.1-0.1-0.1-0.1l0.3-0.1l-0.2,0.2c0,0,0,0,0,0c0.5,0.7,0.9,1.3,1.4,2
		c0.4,0.5,0.4,0.5,1-0.4c0.2-0.3,0.3-0.8,0.6-0.8c1.7-0.2,3.3-1,5-0.8c0.8,0.1,1.5,0.4,2.1-0.2c0.9-0.7,2-1,3.1-1.4
		c1.7-0.7,3.8-0.9,4.6-2.8c1.3-0.7,2.6-1.4,4-2c0.4-0.2,1.1,0.1,1.6,0.1c0.3-0.4,0.5-1,0.9-1.1c1.4-0.3,2.4-1,3.7-1.4
		c1.3-0.5,2.3-1.1,2.9-2.3c0.2-0.4,0.7-0.8,1.2-1.1c2.6-1.4,5.3-2.9,8.3-3.6c2.2-0.5,3.8-1.4,5.1-2.9c0.5-0.6,1.5-1,2.3-1.5
		c0.6-0.4,1.4-0.6,2-1c1.1-0.6,1.5-1.6,0.9-2.6c-0.2-0.5-0.6-0.9-0.9-1.3c-0.4-0.7-0.3-1.3,0.3-1.8c1.1-1.1,2.5-1.6,4.2-1.3
		c1,0.2,1.8,0,2.7-0.6c1.2-0.9,2.5-1.5,2.9-3c0.2-0.8,1.2-1.3,2.2-1.4c0.8-0.1,1.6-0.3,2-0.9c2-3,5.5-4,8.8-5.4
		c1.1-0.4,2.3,0.4,2.4,1.5c0,0.5,0.1,1-0.1,1.5c-0.1,0.2-0.7,0.5-0.8,0.4c-2.3-1.1-4.5-0.9-6.5,0.3c-0.5,0.3-1,0.6-1.2,1
		c-1.1,2.5-3.2,4.2-5.1,6.1c-0.7,0.7-0.8,1.5,0.1,2.2c0.4,0.3,0.4,0.5-0.1,0.8c-1,0.5-2.1,0.9-3.1,1.4c-0.4,0.2-0.7,1-0.3,1.4
		c0.3,0.4,0.8,0.9,1.3,0.9c0.9,0,2-0.2,2.8-0.6c1.7-0.8,3.5-1.4,5.4-1.9c0.7-0.2,1.5-0.4,2.2-0.7c1.7-0.8,3.4-1.6,5.5-1.2
		c0.5,0.1,1.1-0.3,1.6-0.5c0.9-0.4,1.5-1,2.1-1.7c0.6-0.7,1.2-0.4,1.8,0c0.4,0,0.8,0,1.2,0c0.3-0.7,0.6-1.4-0.4-2
		c-0.6-0.4-0.9-1-1.2-1.6c-0.5-1-0.1-1.9,0.9-2.6c0.6-0.4,1.1-0.5,1.4,0.1c0.4,1,0.9,1.7,2.4,1.5c0.9-0.2,1.8-0.1,2.7-0.2
		c0,0,0-0.1,0-0.1l0.2-0.2l-0.2,0.3c0,0-0.1,0-0.1,0c0,0.5-0.1,1,0.1,1.4c0.5,1.9,1.3,3.5,3.7,4.2c1.4,0.4,2.2,1.4,2.8,2.4
		c0.3,0.4,0.4,1,0.6,1.4c0.4,0.6,1,1,1.8,1.2c0.8,0.1,1.5,0.2,2.3,0.2c1.9,0,3.4,0.5,4.8,1.6c0.4,0.3,1,0.5,1.5,0.8c0,0,0,0-0.1-0.1
		l0.2-0.1l-0.1,0.2c0,0,0,0,0,0c0.3,0.4,0.6,0.8,1,1.1c1.3,1.2,2.7,2,4.6,1.5c0.2,0,0.4,0,0.5,0.1c0.4,0.2,0.7,0.5,0.4,0.8
		c-1.2,1.1-1.1,2,0,3.1c0.5,0.5,0.9,1.2,1.5,1.5c0.9,0.4,1.6,0.8,1.6,1.8c0,0.7,0.2,1.3,0.3,2c0.3,1.5,1.1,2.9,2.3,4
		c0.7,0.6,1.5,1,2.6,0.9c0.8-0.1,1.4-0.7,1.3-1.4c-0.1-0.5-0.3-1-0.5-1.5c0-0.1,0-0.4,0-0.5c0.2-0.3,0.5-0.2,0.7,0.2
		c0.3,0.6,0.8,1.2,0.8,1.9c0.1,1.1,0.9,1.8,1.6,2.6c0.1,0.1,0.2,0.3,0.1,0.4c-0.2,0.4-0.6,0.4-1,0.2c-0.3-0.2-0.7-0.4-1-0.5
		c-1.2-0.3-2.4,0.2-2.9,1.1c-0.5,0.9-0.9,1.9-0.6,2.9c0.2,1,0.4,2,0.6,3L255,166c0,0.1,0,0.2,0,0.3c0,0,0.1-0.1,0.1-0.1
		c0.7,0.8,1.1,1.7,0.7,2.7c-0.7,1.6-0.8,3.3-0.6,5c0,0.1,0.2,0.4,0.3,0.4c0.3,0,0.8-0.1,0.9-0.3c0.7-1.1,1.3-2.2,1.9-3.3
		c0-0.2,0-0.3,0-0.5c0.1,0,0.2,0,0.3,0c0.6-0.7,1.3-0.8,2.2-0.8c0,0,0.1-0.1,0.1-0.1c0,0,0.1,0,0.1,0c0-0.1,0-0.3,0.1-0.4
		c1.5-1.9,3.2-3.7,4-5.9c0.1-0.1,0.6-0.2,0.9-0.2c0.1,0,0.3,0.2,0.3,0.4c0,0.5,0.1,1-0.1,1.5c-0.4,1.1-0.9,2.2-1.4,3.2
		c-0.4,0.9,0.1,1.5,0.6,2.1c0.1,0,0.2,0,0.2,0c0,0.1,0,0.2,0,0.3c0.4,0.5,0.7,1.1,0.8,1.7c0.1,0,0.1,0.1,0.2,0.1l0.1,0.2l-0.2-0.1
		c0-0.1,0-0.2-0.1-0.2c-0.7-0.4-0.8-1.1-0.8-1.7c-0.1-0.1-0.1-0.1-0.1-0.2c0-0.1-0.1-0.1-0.1-0.1c-0.6-0.1-1.3-0.1-1.9-0.4
		c-0.8-0.3-1.7-0.3-2.6-0.4c0,0,0,0.1,0,0.1c-0.1,0-0.1,0-0.2,0c-0.5,0.7-1.3,0.8-2.2,0.8c0,0.1-0.1,0.1-0.1,0.1
		c-0.1,0.1-0.1,0.2-0.2,0.3c-0.2,1.4,0.1,2.9-0.7,4.3c-0.3,0.5,0.3,1.2,1.1,1.4c0.3,0.1,0.6,0.1,0.9,0.1c0,0,0-0.1,0-0.1
		c0.1-0.1,0.2-0.2,0.3-0.3c0.1-0.2,0.2-0.5,0.3-0.7c0,0.1,0.2,0.3,0.1,0.4c-0.1,0.1-0.3,0.2-0.4,0.3c-0.1,0.1-0.1,0.3-0.2,0.4
		c-0.1,0-0.1,0-0.2,0c-0.1,0.5-0.3,1-0.1,1.3c0.5,0.7,1,1.4,0.6,2.3c-0.3,0.6-0.4,1.3-0.5,1.9c-0.1,0.5-0.3,1.1-0.1,1.4
		c0.8,1,0.8,2.2,1.3,3.3c0.8,0,1.5-0.1,2.3-0.1c-0.1,0.2-0.2,0.3-0.3,0.5c0.8-1.5,1.6-2.9,1.7-4.6h-0.1c0-0.1,0-0.2,0-0.3
		c-0.1-0.1-0.2-0.2-0.3-0.2c0.1,0,0.3,0,0.3,0.1c0,0,0,0.1,0,0.1c0.1,0,0.1,0.1,0.2,0.1c0,0,0,0.1,0,0.1c0.4,0,0.7,0,1.1,0
		c0,0-0.1-0.1-0.1-0.1c0.1-0.1,0.2-0.1,0.2-0.2c0,0.1-0.1,0.2-0.1,0.3h-0.1c0.4,0.6,0.8,1.2,1.2,1.8c0.1,0,0.1-0.1,0.2-0.1
		c0,0.1,0,0.3,0.1,0.4c0.2,0.2,0.3,0.4,0.3,0.6c0,0.5-0.2,0.5-0.3,0c0-0.2,0-0.3,0-0.5c0,0,0-0.1,0-0.1c-0.1-0.1-0.1-0.2-0.2-0.3
		c0,0,0,0,0,0c-0.9,0.5-1.1,1.2-0.9,2c0,0,0,0,0,0.1c3.5-0.4,6.3-1.3,7.6-2.8c5.6-6.2-4.1-10.7-5.6-18.7
		C266.6,156.9,269.6,157.4,266.6,150.3z M260,166.4l-0.3,0.1l0.1-0.2c0.1-0.1,0.1-0.2,0.2-0.2C260.1,166.2,260.1,166.3,260,166.4z
		 M263.3,159.1c0-0.1,0-0.2,0-0.2c-0.2-0.1-0.4-0.3-0.6-0.4c-0.1,0,0.1-0.2,0.1-0.4c0.5,0.1,0.5,0.5,0.5,0.8c0.1,0,0.1,0.1,0.2,0.1
		c0.1,0.1,0.2,0.2,0.3,0.3C263.6,159.2,263.5,159.2,263.3,159.1z M264.2,152.6c0,0-0.2,0.1-0.3,0.1c0-0.3,0-0.5,0.1-0.8
		c0.1,0.1,0.2,0.2,0.2,0.3C264.2,152.3,264.2,152.5,264.2,152.6z M264.9,179.5c-0.3,0.2-0.6,0.2-0.9-0.2c-0.4-0.5-1-1.1-1.2-1.7
		c-0.3-0.8-0.2-1.6,0.8-2c0-0.1-0.1-0.1-0.1-0.2c0,0,0.1-0.1,0.1-0.1c-0.1-0.3-0.1-0.6,0.3-0.9c0.1,0.1,0.2,0.2,0.2,0.3
		c-0.1,0.2-0.3,0.4-0.5,0.6c0,0.1,0,0.2,0,0.3c0,0,0,0-0.1,0.1c0.5,1.2,1,2.3,1.5,3.5C265.1,179.2,265,179.5,264.9,179.5z
		 M266.5,176c-0.1,0-0.3-0.2-0.3-0.3c0-0.3,0.1-0.5,0.2-0.8c0.2,0.2,0.5,0.4,0.7,0.6C267.1,175.9,266.9,176.1,266.5,176z
		 M159.7,155.2l-0.2-0.2c0,0,0,0-0.1,0c0,0,0,0.1-0.1,0.1L159.7,155.2z M216.6,133c0,0.1,0.1,0.2,0.1,0.3c0-0.1,0-0.3,0-0.4
		C216.6,132.9,216.6,132.9,216.6,133z M258.4,199.6c-0.4,1.3-0.7,2.6-0.7,3.9C257.7,202.2,258,200.9,258.4,199.6z M255,167.3
		c0.1,0,0.1-0.3,0.1-0.4c0-0.2,0-0.4,0-0.6c-0.1,0.2-0.3,0.4-0.4,0.6C254.4,167.3,254.6,167.4,255,167.3z"/>
</g>
<g>
	<path class="st0" d="M481.8,280.1c-1.5-0.1-3,0-4.5,0l0,0C478.8,280.2,480.3,280,481.8,280.1z"/>
	<path class="st0" d="M458,262.7C458,262.7,458,262.7,458,262.7C458,262.7,458,262.7,458,262.7z"/>
	<path class="st0" d="M535.3,272.9c0.2-0.1,0.4-0.3,0.7-0.3C535.7,272.6,535.5,272.8,535.3,272.9z"/>
	<path class="st0" d="M525.2,256.1c0,0.2-0.1,0.3-0.1,0.6C525.1,256.4,525.2,256.3,525.2,256.1L525.2,256.1z"/>
	<path class="st0" d="M467.5,365c-0.2-0.1-0.3-0.3-0.5-0.3c-0.8-0.1-1.6-0.2-2.2,0.4c-0.2,0.2-0.1,0.6-0.1,0.8
		c0,0.1,0.3,0.2,0.4,0.3c0.8,0.1,1.5-0.3,2.1-0.7C467.5,365.4,467.5,365.2,467.5,365z"/>
	<path class="st0" d="M282.1,229.3c-0.1-0.2-0.1-0.4-0.1-0.6l0,0C282,228.8,282.1,229,282.1,229.3z"/>
	<path class="st0" d="M281.1,228.9c-0.2-0.1-0.5-0.3-0.6-0.5C280.6,228.6,280.9,228.8,281.1,228.9z"/>
	<path class="st0" d="M275.5,232.2C275.5,232.2,275.6,232.2,275.5,232.2C275.6,232.2,275.5,232.2,275.5,232.2z"/>
	<path class="st0" d="M282,229.4c-0.3-0.1-0.5-0.2-0.8-0.3C281.5,229.2,281.7,229.3,282,229.4z"/>
	<path class="st0" d="M282.4,237.7c0.2,0.1,0.4,0.1,0.6,0.1C282.8,237.8,282.6,237.8,282.4,237.7z"/>
	<path class="st0" d="M271,227.3C271,227.3,271,227.3,271,227.3L271,227.3C271,227.3,271,227.3,271,227.3z"/>
	<path class="st0" d="M467.9,374.9c-0.1-0.8-0.5-1.5-1.1-1.5c-0.6,0-1.2,0.8-1.1,1.5c0.1,0.5,0.5,0.8,1.1,0.9
		C467.4,375.9,467.9,375.4,467.9,374.9z"/>
	<path class="st0" d="M414.8,353.5c0.5,0.2,0.8,0.1,0.9-0.3c0-0.1-0.1-0.4-0.2-0.4c-0.5-0.1-1-0.2-1.5-0.3
		C414,353,414.2,353.3,414.8,353.5z"/>
	<path class="st0" d="M534.8,273.4c-0.8-1.1-2-1.9-3.2-2.5c-3.1-1.3,0-10.2-3.6-10.7c-3.6-0.4-10.7,9.8-14.8,11.1
		c-4.1,1.3-11.2,0-15.8,0.4c-2.2,0.2-5.6,2-8.6,3.8l-0.1,0.1c0,0,0.1,0,0.1,0c0.1,0.1,0.3,0.2,0.4,0.3c0.7,1,0.6,2-0.2,2.8
		c-1.2,1.4-2.9,2.4-5,1.7c-0.7-0.3-1.5-0.4-2.2-0.4l-7.2,2.9c0.2,0.1,0.3,0.2,0.3,0.3c-0.1,0.3-0.2,0.7-0.5,0.8c-2,1-4,1.9-6.2,2.7
		c-1.6,0.6-3.2,1.1-4.7,1.8c-1.5,0.7-3.2,1.1-5.1,1.1c-0.5-0.3-1.2-0.6-1.8-1c-0.5-0.3-0.4-1.5,0.2-1.7c0.2-0.1,0.3-0.3,0.5-0.3
		c0.5,0,0.9-0.1,1.4-0.2l0,0c-0.3,0.1-0.6,0.1-0.9,0.2l0.4-0.8l-0.4-0.5l4.1-6.3c-0.2-1-0.4-2-0.6-3c-0.2-0.8-1.4-1.3-2.3-0.9
		c-0.5,0.2-1,0.5-1.5,0.8c-0.4,0.2-0.7,0.3-1,0c-0.1-0.1-0.1-0.3,0-0.4c0.6-0.7,1.2-1.3,1.8-2c1.1-1.3,1.3-2.8,0.6-4.3
		c-0.3-0.6-0.7-1.2-1.2-1.7c-0.9-0.7-1.9-1.1-2.8-1.7c-0.4-0.3-0.6-0.7-0.9-1.1c-0.1,0-0.1,0-0.2,0.1c0,0,0,0-0.1,0
		c-1.1,0.7-1.9,1.5-2.7,2.4c-0.5,0.7-1.3,1.3-2.3,1.4c-1.3,0.1-2.1,0.8-2.7,1.7c-1.6,2.9-3.1,5.8-2.9,9.1c0.2,3.2-1.7,5.4-4.5,7.2
		c-0.8,0.5-2.1,0-2.2-0.8c-0.5-2.9-0.6-5.7,1.1-8.3c1.1-1.6,1.4-3.5,2.2-5.2c0.4-0.8,0.3-1.6-0.1-2.4c-0.1-0.3,0-0.6,0.1-1
		c0-0.2,0.2-0.3,0.3-0.4c4.7-4.6,3.5-4,10.2-4.8c1.6-0.2,2.5,0.5,3.5,1.2c0.1,0,0.1-0.1,0.2-0.1c0,0,0,0.1,0.1,0.1
		c1-0.3,2.1-0.5,3.1-0.9c0.3-0.1,0.4-0.5,0.7-0.8c0.1-0.1,0.2-0.3,0.3-0.4c-0.1,0.1-0.2,0.2-0.3,0.3l-8.2-3.5
		c0.8-0.1,1.7-0.1,2.5-0.2c-1.5,0.2-3.1,0.1-4.6,0.4c-2,0.4-3.4,0-4.6-1.4c-0.2-0.3-0.6-0.5-0.9-0.7c-0.4-0.3-1.3-0.2-1.1-0.9
		c0.1-0.4,0.6-0.8,1-1.2c-0.1,0.2-0.3,0.3-0.4,0.5l-2.4-1c-2.2,1.5-4.7,2.2-7.3,3c-1.6,0.5-2.9,0.7-4-0.8c-0.7-0.9-2-0.6-3-0.7
		c0,0-0.1,0.1-0.1,0.1c-0.1,0-0.2,0-0.3,0c-0.1,0.1-0.2,0.2-0.3,0.3c0-0.1,0.1-0.2,0.1-0.3c0,0,0.1,0,0.1,0c0.1-0.1,0.1-0.1,0.2-0.2
		c0.1,0,0.1,0,0.2,0c1.4-1.9,3.4-3.1,5.7-3.8c0.7-0.2,1.3-0.4,1.9-0.6l-11.7-5.7c-3.2-1.3-5.6-2.3-5.6-2.3l-18.6-2.2L286.8,234
		c0.7,1.1,0.1,1.9-0.3,2.9c-0.2,0.3-0.4,0.6-0.7,0.8c0,0-0.3,2.7-5.1-0.5l0,0c-0.4-0.2-0.8-0.4-1.1-0.8c-0.5-0.4-1.2-0.5-2-0.5
		c0.3-0.2,0.6-0.3,1-0.5c-1.6,0.5-2.5,1.5-2.5,3c0,2.2-0.1,4.4,0,6.6c0.2,2.8-0.5,5.3-1.6,7.9c-1.2,2.7-2.6,5.3-3.4,8.1
		c-0.7,2.6-1.8,5.2-3.6,7.4c-1.6,2.1-2.1,4.3-2,6.8c0,0.5,0.1,1,0.1,1.5c0.2,2.8-0.3,5.4-2.2,7.7c-0.6,0.7-0.7,1.6-0.2,2.4
		c1,1.7,1.3,3.5,0.7,5.4c-0.2,0.8-0.1,1.7-0.1,2.5c0,0.5,0.1,1,0.3,1.5c0.6,1.4,1.3,2.8,2.1,4.2c0.2,0.4,0.8,0.7,1.3,1
		c1.1,0.6,1.1,0.6,0.8,1.3c-0.2,0.5-0.5,0.9-0.6,1.4c-0.1,0.5-0.2,1-0.1,1.5c0.5,1.4,1.5,2.7,0.8,4.3c-0.2,0.4,0.1,1,0.3,1.5
		c0.9,1.9,1.9,3.7,2.9,5.5c0.5,0.9,0.8,1.8,0.7,2.9c-0.1,1.2,0.3,1.8,1.3,1.9c3.4,0.5,5.9,2.4,8.7,3.9c2.3,1.2,3.7,2.9,3.8,5.3
		c0,0.3,0.1,0.6,0.1,0.9c4.6-0.4,9.9-0.5,11.6,0.6c3.1,2,13.3,6.5,22.7,6.5c9.5,0,6.1-0.7,12-0.7c5.9,0,8.4,4.5,8.7,7.3
		c0.3,2.9,5.4,5.6,7.7,6.7c2.3,1.1,1.3-2.7,6.9-3.8c5.6-1.1,5.6,4.5,7.7,8.2c2,3.8,1.5,6.5,4.6,8.9c1.8,1.4,5,3.1,7.4,4.2
		c0.4-1,0.6-2,0.4-3.2c-0.3-2.4,0.3-4.7,1.2-7c0.8-2,2.3-3.8,4.7-4.1c2.8-0.4,5.2-1.3,7.2-3c1.5-1.2,3.5-1.4,5.2-2
		c1.4-0.5,3.1-0.2,4.5,0.3c1.1,0.4,2.3,0.6,3.4,0.1c1.3-0.5,2.4-0.3,3.1,0.6c1.4,2,3.5,2,5.6,1.6c1.1-0.2,2.1-0.7,3.1-1.1
		c0.3-0.9,0.7-1.9,0.8-2.9c0.1-1.1,0.9-1.4,1.8-1.7c0.7-0.2,1.5-0.2,2.3-0.4c2.7-0.4,5.4,0.2,8.1,0.1c3.1-0.1,5.8,0.4,7.9,2.5
		c0.7,0.7,1.8,0.6,2.7,0.3c0.7-0.2,1.4-0.6,2.1-0.8c0.8-0.2,1.6-0.1,2.1,0.5c1.3,1.3,2.4,2.6,3.6,4c0.6,0.7,0.7,1.5,0.4,2.4
		c-0.2,0.5-0.3,1-0.6,1.4c-0.5,1-0.5,2,0.3,2.8c0.8,2.8,2.6,5.2,3.8,7.9c0.6,1.2,1.7,2.2,2.7,3.3c0.9,0.9,2.8,0.7,3.5-0.3
		c1.4-2.1,2.3-4.3,2.6-6.7c0-0.3,0.1-0.7-0.1-1c-0.5-1.3-1.1-2.5-1.4-3.9c-0.3-1.3-0.4-2.7-0.5-4c0-0.2-0.1-0.3-0.2-0.5
		c-1.8-3.9-1.6-8-1.1-12c0.1-0.6,0.3-1.4,0.8-1.9c2-2,3.9-4.2,7.2-4.9c0.4-0.1,0.7-0.2,1.1-0.3c1.2-0.3,2-1,2.8-1.8
		c0.6-0.6,1.1-1.4,1.8-2c0.5-0.5,1.1-1,1.8-1.2c1.4-0.3,2.4-1.1,3.4-1.9c1.6-1.3,3.4-2.3,5.5-2.6c1-0.2,1.7-0.8,1.7-1.8
		c0-0.6,0.6-0.8,1.1-1.1c0.6-0.4,1.3-0.8,1.8-1.2c0.4-0.3,0.7-0.9,0.4-1.4c-0.5-0.7-0.9-1.3-0.4-2.3c0.7-1.2,1-2.6,0-3.9
		c-0.3-0.4-0.5-1-0.4-1.4c0.1-1.5,0.2-3,0.4-4.5c0-0.1,0.3-0.2,0.5-0.2c0.2,0,0.4,0.1,0.5,0.2c0.9,0.6,0.6,1.5,0.7,2.3
		c0,0.2,0.4,0.5,0.7,0.7c0.1,0,0.4-0.1,0.5-0.2c1-1.2,2.1-2.5,2.9-3.8c0.4-0.6,0.5-1.3,0.6-1.9c0.1-0.5,0-1,0.1-1.5
		c0-0.4,0.3-0.6,0.8-0.6c1.1,0,1.8-0.5,2.5-1.1c1.7-1.5,2.9-3.3,3.3-5.3c0.3-1.8,1.5-2.1,3.2-2.3c1.2-0.1,2.3-0.3,3.4-0.5
		c0.5-0.1,1-0.4,1.5-0.7c0.1-0.1,0.3-0.3,0.3-0.4c0-0.1-0.1-0.4-0.3-0.4c-0.4-0.1-0.7-0.2-1.1-0.3c-0.5,0-0.8-0.2-0.6-0.5
		c0-0.1,0.4-0.1,0.5-0.1c0.2,0,0.4,0,0.6,0c3.3,0.4,6.5-1,9.8-1c0.5,0,1-0.5,1.5-0.8c1.2-0.8,1.2-1.2-0.3-2
		c-1.1-0.6-1.7-1.7-1.4-2.5c0.4-1.1,0.8-2.3,1.3-3.3c1-1.9,2.5-3.4,4.8-4.2c1.3-0.4,2.5-0.9,3.5-1.7c0.7-0.6,1.7-0.9,2.7-0.8
		c2.6,0.2,4.9-0.9,7.4-1.3c0.9-0.1,1-0.8,1.3-1.5C534.8,273.5,534.8,273.5,534.8,273.4C534.8,273.4,534.8,273.4,534.8,273.4z"/>
	<path class="st0" d="M535.9,277.1c-0.1,0.5-0.2,0.9-0.1,1.4c-0.1-0.2,0-0.5,0-0.8C535.8,277.5,535.9,277.3,535.9,277.1z"/>
	<path class="st0" d="M544.9,277.1c0.3-0.3,0.6-0.6,0.9-0.8l0,0C545.5,276.6,545.2,276.8,544.9,277.1z"/>
	<path class="st0" d="M414,352.5c0-0.1,0-0.1,0-0.1c0,0-0.1,0-0.1,0c0,0,0,0.1,0,0.1C413.9,352.5,413.9,352.5,414,352.5z"/>
	<path class="st0" d="M471.5,365.1c-0.2,0-0.4,0-0.5,0.1c-0.4,1-0.2,1.9,0.5,2.7c0.1,0.1,0.4,0,0.5,0
		C473,367.1,472.7,365.6,471.5,365.1z"/>
	<path class="st0" d="M467.5,378.2c-0.1,0.5,0.4,1,0.8,0.8c0.2-0.1,0.3-0.5,0.5-0.7c-0.2-0.2-0.4-0.5-0.6-0.7
		C467.9,377.8,467.6,378,467.5,378.2z"/>
	<path class="st0" d="M478.4,377.3c0,0.1,0.2,0.3,0.4,0.3c0.4,0,0.6-0.1,0.6-0.5c-0.2-0.2-0.5-0.4-0.7-0.6
		C478.6,376.8,478.5,377,478.4,377.3z"/>
	<path class="st0" d="M479.6,381.7l0.4,0.1c0-0.1-0.1-0.2-0.2-0.3C479.8,381.5,479.7,381.6,479.6,381.7z"/>
</g>
<g>
	<path class="st1" d="M375.8,368.6c-0.1,0.5-0.2,1-0.4,1.5C375.6,369.6,375.7,369.1,375.8,368.6z"/>
	<path class="st1" d="M375.8,366.9c0.1,0.5,0.1,1.1,0,1.6C375.8,367.9,375.9,367.4,375.8,366.9z"/>
	<path class="st1" d="M271.5,317.1C271.5,317.1,271.5,317.1,271.5,317.1C271.5,317.1,271.5,317.1,271.5,317.1L271.5,317.1z"/>
	<path class="st1" d="M377.6,358.8c0.2-0.3,0.4-0.7,0.7-1C378,358.1,377.8,358.4,377.6,358.8z"/>
	<path class="st1" d="M422.1,388.6c-2.3-0.1-4.7-0.4-6.9,0.5c-1.8,0.7-3.7,0.8-5.7,0.9c-1.8,0-2.9,0.9-3.6,2.2
		c-0.4,0.8-0.8,1.6-1,2.4c-0.7,2.5-1.8,4.8-4.1,6.5c-0.7,2-2.2,1.9-4.1,1.3c-0.8-0.3-1.9-0.1-2.8,0.1c-1.9,0.4-3.7,1.1-5.5,1.5
		c-1.5,0.3-3.1,0.4-4.3-0.8c-0.9-0.9-2.1-1.4-3.4-1.8c-1.6-0.5-2.6-1.5-3.2-2.8c-0.8-1.7-1.9-3.3-3.3-4.7c-0.7-0.7-1-1.5-1.1-2.3
		c-0.3-1.5-0.7-3-0.9-4.5c-0.2-1-0.3-2-0.2-3c0.2-3.5,0.6-7.1,1.5-10.5c0.2-0.6,0.4-1.4,0.8-1.8c0.5-0.5,0.8-1,1-1.6
		c-2.4-1.1-5.6-2.8-7.4-4.2c-3.1-2.4-2.6-5.1-4.6-8.9c-2-3.8-2-9.4-7.7-8.2c-5.6,1.1-4.6,4.9-6.9,3.8c-2.3-1.1-7.4-3.8-7.7-6.7
		c-0.3-2.9-2.8-7.3-8.7-7.3c-5.9,0-2.6,0.7-12,0.7c-9.4,0-19.7-4.5-22.7-6.5c-1.6-1.1-7-0.9-11.6-0.6c0-0.3-0.1-0.6-0.1-0.9
		c0.1,1.9,0.7,3.6,1.3,5.4c1,3.1,2.7,6,3.1,9.2c0.1,1,0.9,1.9,1.8,2.5c1.9,1.3,3,3.1,4.1,4.9c0.6,1,0.4,1.9-0.2,2.9
		c-0.4,0.7-1.2,0.8-2,0.8c-0.2,0-0.4,0-0.6,0.1c-0.5,0.1-0.9,0.8-0.6,1.2c0.9,1.5,2.3,2.8,4,3.5c2.4,1,4,2.6,5.9,4
		c0.8,0.6,1.1,1.4,1.1,2.3c0,0.8-0.1,1.7-0.3,2.5c-0.3,1.1,0.1,1.9,1,2.7c2.8,2.5,6.2,4.6,8.1,7.9c0.3,0.6,1.4,0.6,2.1,0.1
		c0.9-0.6,1.2-1.5,1-2.2c-0.4-1.2-1.1-2.2-2-3.1c-0.8-0.8-3.1-4.3-3.4-5.3c-0.3-0.8-0.7-1.6-0.9-2.4c-0.3-1.3-0.4-2.7-0.8-4
		c-0.4-1.5-2.2-2.3-2.7-3.8c-0.8-2.2-2-4.4-3.4-6.4c-1.6-2.1-2.6-4.5-4.5-6.5c-0.4-0.4-0.6-0.9-0.7-1.4c-0.3-2.5-0.8-5,0-7.6
		c0.1-0.4,0.4-0.6,0.9-0.4c1.1,0.4,2.1,0.8,3.1,1.3c1.1,0.5,1.8,1.1,2,2.3c0.4,2.2,0.7,4.4,1.7,6.4c1.4,3.2,3.3,6.1,5.8,8.8
		c0.5,0.5,1.2,1,1.4,1.6c0.4,1.6,1.7,2.6,3,3.6c0.9,0.7,1.8,1.3,2.6,2c0.4,0.4,0.6,0.9,0.2,1.4c-0.2,0.3-0.4,0.6-0.6,0.9
		c-0.5,0.8-0.4,1.8,0.4,2.3c1.1,0.7,2.2,1.4,3.4,2c1.3,0.6,2.1,1.3,2.2,2.7c0.1,0.6,0.7,1.1,1.3,1.6c6,5.4,7.6,8.2,9.4,14.3
		c0.1,0.5,0.1,1-0.1,1.5c-0.2,0.6-0.5,1.3-1,1.8c-1.4,1.6-0.8,3.1,0.2,4.7c0.9,1.4,1.9,2.5,3.7,3c1.7,0.5,3.1,1.4,4.1,2.7
		c1.1,1.3,2.6,2,4.3,2.3c0.8,0.2,1.5,0.2,2.3,0.4c0.7,0.2,1.5,0.4,2.1,0.9c2.5,1.9,5.2,3.4,8.5,4.2c1.7,0.4,3.3,1.1,4.8,1.9
		c1.7,0.9,3.6,1.4,5.4,1.8c6.4,1.7,6.4,1.7,12.9-0.4c1.9-0.6,3.6-0.4,4.9,0.7c2.5,2.1,5.4,3.7,7.8,5.9c0.5-0.4,0.9-0.7,0.9-0.9
		c0-0.7-0.9-2,0.4-3.3c1.3-1.3,0.4-2.6,3.8-2.8c3.4-0.2,5.1,0.3,4.9-0.7c-0.3-1-1.9-0.7-2.2-1.6c-0.3-0.9-3.2-2.2-2.3-2.7
		c0.9-0.5,1.7-0.6,1.5-2.2l8.3-0.1c0,0,0-0.7,1.7-0.7c1.7,0,0.1-3.1,2.6-2.2c0.9,0.3,1.7,0.6,2.5,0.9c0.1-0.1,0.3-0.1,0.5-0.2
		c1.4,0,2.1-0.8,2.3-1.9c0.2-1.2,0.6-2.3,0.5-3.5c-0.1-1.6,0.5-2.9,1.7-4.1c0.8-0.8,1.5-1.6,2.1-2.4c0.3-0.4,0.5-0.9,0.7-1.4
		C424.2,390,423.2,388.7,422.1,388.6z"/>
</g>
<g>
	<polygon class="st1" points="419.3,400.5 419.3,400.5 419.3,400.5 	"/>
	<path class="st1" d="M413.6,403.5c-2.4-0.9-0.9,2.2-2.6,2.2c-1.7,0-1.7,0.7-1.7,0.7h0l0,7.9c0,0,0.6,0,0.9,0.1
		c0.2,0,2.3,0.1,3.7,0.2c-0.2,0-0.5-0.1-0.7-0.1c-0.5-0.1-0.7-0.5-0.4-0.7c1.8-1.5,2.6-3.3,2.4-5.5c-0.1-1,0.2-2,0.4-3
		c0.1-0.4,0.2-0.7,0.5-0.8C415.4,404.1,414.5,403.8,413.6,403.5z"/>
</g>
<g>
	<path class="st1" d="M412.2,403.7c0,0,0.1-0.1,0.1-0.1C412.3,403.6,412.3,403.7,412.2,403.7z"/>
	<polygon class="st1" points="412.5,403.4 412.5,403.4 412.5,403.4 	"/>
	<path class="st1" d="M412.1,404C412.1,404,412.1,404,412.1,404C412.1,404,412.1,404,412.1,404z"/>
	<path class="st1" d="M413.6,403.5C413.6,403.5,413.6,403.5,413.6,403.5L413.6,403.5C413.6,403.5,413.6,403.5,413.6,403.5z"/>
	<path class="st1" d="M411.8,405.3C411.8,405.2,411.8,405.2,411.8,405.3C411.8,405.2,411.8,405.2,411.8,405.3z"/>
	<path class="st1" d="M413.2,414.4c0.2,0,0.5,0.1,0.7,0.1c-1.4-0.1-3.5-0.2-3.7-0.2c-0.3,0-0.9-0.1-0.9-0.1l0-7.9l-8.3,0.1
		c0.1,1.7-0.6,1.8-1.5,2.2c-0.9,0.4,2,1.8,2.3,2.7c0.3,0.9,1.9,0.6,2.2,1.6c0.3,1-1.4,0.4-4.9,0.7c-3.4,0.2-2.6,1.4-3.8,2.8
		c-1.3,1.3-0.4,2.7-0.4,3.3c0,0.2-0.4,0.5-0.9,0.9c0.4,0.4,0.9,0.8,1.3,1.2c1.1,1.2,2.7,2,4.5,2.1c1.3,0.1,2.5,0.3,3.7,0.6
		c0.3-0.3,0.5-0.7,0.6-1c0.2-0.9,0.9-1,1.6-1.1c0.7-0.1,0.9-0.1,1.5-0.8c0.6-0.6,1.4-0.8,1.5-1.5c0.1-0.7-0.5-1.1,0.4-1.8
		c1-0.7,1.5-1.4,2.1-1.3c0.5,0,0.9,0.1,1.8-1.2c0.9-1.3,1.8-0.3,1.5-0.9c0-0.1,0-0.2,0.1-0.5C414.2,414.6,413.7,414.5,413.2,414.4z"
		/>
	<path class="st1" d="M411.6,405.5C411.6,405.5,411.6,405.6,411.6,405.5C411.6,405.6,411.6,405.5,411.6,405.5z"/>
</g>
<g>
	<path class="st1" d="M441.7,388.2c-0.2,0.4,0,0.7,0.4,0.8c0.4,0.2,0.7,0.1,1-0.3c-0.1-0.3-0.2-0.7-0.4-0.9
		C442.3,387.6,441.8,387.8,441.7,388.2z M480.3,393.1c-3.9-1.5-7.6-3.3-11.6-4.6c-1.3-0.4-2.5-0.9-3.7-1.5c-1.3-0.7-2.7-1.4-4.2-1.7
		c-0.7-0.2-1.5-0.5-2-0.9c-1.6-1.5-3.7-1.9-5.8-1.9c-1.6,0-3-0.3-4.5-0.9c-0.9-0.3-2-0.6-2.8-0.4c-2.6,0.6-5.3,0.7-7.9,1.7
		c-2.5,1-3.6,2.9-5.2,4.6c0,0,0.3,0.3,0.4,0.3c0.8,0,1.6,0.1,2.2-0.2c2.7-1.3,5.9-1.6,8.4-3.2c0.5-0.3,1.7,0,2,0.5
		c0.5,0.8,1.1,1.3,2.1,1.5c1.3,0.2,2.7,0.4,4,0.7c0.9,0.2,1.9,0.3,2.8,0.7c1.7,0.8,3.6,1.2,5.5,1.4c1.1,0.1,1.8,0.6,2.2,1.4
		c0.8,1.7,2.4,2.6,4.5,2.8c0.2,0,0.3,0.1,0.5,0.2c0.6,0.2,0.7,0.7,0.4,1.2c-0.2,0.3-0.4,0.6-0.6,0.9c-0.5,0.7-0.1,1.4,0.8,1.5
		c1.4,0.1,2.7,0,5,0c2.4,0.9,5.5-0.4,8.7-1.2c0.7-0.2,0.9-1.2,0.3-1.7C481.5,393.9,481,393.3,480.3,393.1z M484.1,384.5
		c0,0.1,0,0.3,0.1,0.4c0.2,0.4,0.5,0.4,0.9,0.1c0.1-0.1,0.1-0.1,0.2-0.2L484.1,384.5z"/>
</g>
<g>
	<path class="st1" d="M466.2,402.8c-0.7,0.1-1.9,0.2-3,0.5c-0.4,0.1-0.6,0.5-0.4,0.8c1.7,2.2,3.9,3.1,6.9,2.3
		c0.5-0.1,1.1-0.3,1.6-0.5c0.5-0.2,0.7-0.9,0.4-1.3C470.4,403,468.6,402.8,466.2,402.8z"/>
</g>
<g>
	<path class="st1" d="M483.9,404.8c1.1,0,2.3-0.2,3.4-0.2c1.3,0,2.7,0.2,4,0.4c1.2,0.2,1.7,1.3,2.7,1.8c0.3,0.1,0.7,0.1,1.1,0
		c0.3-0.1,0.7-0.4,0.9-0.6c0.9-1.2,2.1-1.9,3.9-1.6c0.5,0.1,1.2,0.1,1.7-0.2c2.2-1,4.5-0.9,6.7-0.4c0.4-0.1,0.9,0,1.1-0.2
		c0.4-0.3,0.9-0.7,1.1-1.1c0.1-0.2-0.2-0.7-0.4-0.9c-2.1-1.1-4.1-2.5-6.1-3.8c-0.6-0.4-1.4-0.6-2.1-0.8c-2.6-0.6-5.3-1.1-8-0.2
		c-0.9,0.3-1.9-0.1-2.7-0.6c-0.3-0.2-0.6-0.4-1-0.6c-0.7-0.3-1.7,0.1-2.4,1c-0.4,0.5-0.3,1,0.2,1.3c1.4,0.7,1.3,2,1.6,3.1
		c0.2,0.6,0,0.8-1,0.4c-1-0.4-1.3,0.3-2,0.4c-1.5,0.3-3,0.3-4.5,0.6c-0.2,0-0.5,0.6-0.4,0.8C482.1,404.3,483,404.9,483.9,404.8z"/>
</g>
<g>
	<path class="st1" d="M522.1,403.2c-0.7-0.2-1.5-0.2-2.5-0.3c-0.9,0.1-2,0.1-3.1,0.4c-0.4,0.1-0.7,0.7-1,1.1c-0.2,0.4,0.3,1,0.7,1.2
		c0.3,0.1,0.7,0.3,1,0.4c2.1,0.3,4.1,0,5.9-1.1c0.4-0.2,0.5-0.6,0.1-0.9C523,403.8,522.6,403.4,522.1,403.2z"/>
</g>
<g>
	<path class="st1" d="M398.9,423.8c0.3,0.1,0.7,0.1,1.1,0.2C399.6,424,399.2,423.9,398.9,423.8L398.9,423.8z"/>
	<path class="st1" d="M415.7,423.6c0.6-0.8,0.5-0.7-0.1-0.8c-0.7-0.2-1.9-0.2-1.8,0.3c0.1,0.4-0.3,0.3-0.7-0.1
		c-0.3-0.4-0.8-1.4-1.7-1.1c-0.9,0.3-1-0.1-1.4-0.3c-0.2-0.1-0.8-0.4-1.3-0.8c-0.3,0.3-0.8,0.6-1.3,1c-0.6,0.6-0.8,0.6-1.5,0.8
		c-0.7,0.1-1.4,0.2-1.6,1.1c-0.1,0.4-0.3,0.7-0.6,1c-0.2,0-0.4-0.1-0.5-0.1c1.4,0.3,2.8,0.7,4.2,1.1c2.6,0.7,5.2,1.7,8.1,1.6
		c0.2-0.7,0.5-1.5,0.4-1.9C415.7,424.5,415.1,424.4,415.7,423.6z"/>
</g>
<g>
	<path class="st1" d="M434.3,415.4C434.4,415.4,434.4,415.4,434.3,415.4C434.4,415.4,434.4,415.4,434.3,415.4z"/>
	<polygon class="st1" points="432.4,414.8 432.4,414.8 432.4,414.8 	"/>
	<path class="st1" d="M436.7,418.3c-0.9-0.1-0.8,0.5-1.3,0.9c-0.5,0.3-1.3,0.7-1.7,0.7c-0.4,0,0,0.4-1.4,0.4c-1.4,0-0.9-0.3-1.3-0.6
		c-0.4-0.2-0.7,0.6-0.7,0.6l-0.8,0.1c-0.7,0.5-0.8,1.4-0.8,1.4l-0.5,0.3l-0.9,0.9c0,0-0.8,0.3-1.1,0.4c-0.3,0-0.3,0.4-0.3,0.4
		s-0.6-0.1-1.1-0.1c-0.4,0-0.6-0.4-1.3-0.5c-0.7-0.1-1.7,0.5-2.1,0.7c-0.4,0.1-1.4,0.2-1.4,0.2c0.3,3.2-0.1,2.8-1.1,3
		c-0.5,0.2-1.6,0.3-2.5,0.5c-0.1,0-0.1,0-0.2,0l0,0c0.3,0.1,0.6,0.3,0.8,0.6c0.6,1.5,2,2.5,3.1,3.7c1.2,1.3,2.6,2.5,3.8,3.9
		c0,0,0,0,0,0.1l1-0.4l0.5-0.3l1.5,0l1.5,0.6l2-0.1l1.5,0.6l0.5,0.3l0.6,0.8h1.1l0.8-0.1l1.2-0.3c-0.1-0.2-0.2-0.4-0.4-0.6
		c-0.3-0.4-0.4-0.9-0.4-1.4c0-1.7,0-3.4,1.2-4.8c0.4-0.5,0.6-1.3,0.7-1.9c0.1-1.7,0.6-3.3,1.2-4.9c0.5-1.4,0.4-2.9,0.5-4.4
		C436.6,418.6,437.4,418.4,436.7,418.3z M428.6,434.1c-0.1,0.1-0.3,0.3-0.4,0.3c-1.1,0.3-2.3-0.6-2.2-1.6c0-0.1,0.2-0.3,0.4-0.3
		c1,0,1.8,0.3,2.2,1.1C428.7,433.8,428.6,433.9,428.6,434.1z"/>
</g>
<g>
	<path class="st1" d="M438.5,439.9c-0.9-1-1.6-2.2-2.4-3.3l-1.2,0.3l-0.8,0.1H433l-0.6-0.8l-0.5-0.3l-1.5-0.6l-2,0.1l-1.5-0.6
		l-1.5,0l-0.5,0.3l-1,0.4c0.6,0.8,1.1,1.7,0.7,2.8c-0.6,1.6,0.4,2.5,2.1,3c0.7,0.2,1.5,0.5,2.2,0.5c0.6,0,1.2,0,1.6,0.3
		c1.4,0.9,2.9,1.8,3.3,3.4c0.5,1.8,2.1,2.3,3.9,2.5c0.2,0,0.4,0,0.7,0c0-0.3,0-0.6,0-0.9c-0.1-0.9,0.6-1.6,0.7-1.8
		c0.1-0.2-0.7-0.5-0.8-0.9c-0.1-0.4,0.5-0.7,0.5-1.1c0-0.5,0.1-1,0.8-1c0.2,0,0.5-0.1,0.9-0.2C439.9,441.4,439.1,440.6,438.5,439.9z
		"/>
	<path class="st1" d="M435.3,434.6c0-0.5,0-1,0-1.5C435.3,433.6,435.2,434.1,435.3,434.6z"/>
</g>
<g>
	<path class="st1" d="M438.5,439.9c-0.1-0.1-0.1-0.2-0.2-0.2l0,0C438.3,439.7,438.4,439.8,438.5,439.9z"/>
	<path class="st1" d="M433.1,444L433.1,444c0.2,0.2,0.3,0.4,0.4,0.6C433.4,444.4,433.3,444.2,433.1,444z"/>
	<path class="st1" d="M464.7,447.3c-0.3-0.6-0.2-0.7,0.1-2.1c0,0,0,0,0-0.1c-0.4-0.3-0.8-0.6-1.2-1c-1.3-1.1-2.8-1.7-4.6-2
		c-2.3-0.5-4.6-0.4-6.7,0.6c-0.7,0.3-1.4,0.6-2.1,0.9c-1.6,0.8-3.1,1.3-4.9,0.4c-2-0.2-3.5-1-4.8-2h0c-0.4,0.1-0.7,0.2-0.9,0.2
		c-0.7,0-0.8,0.6-0.8,1c0,0.5-0.6,0.8-0.5,1.1c0.1,0.4,1,0.8,0.8,0.9c-0.1,0.2-0.8,0.9-0.7,1.8c0,0.3,0,0.7,0,0.9
		c-0.2,0-0.4,0-0.7,0c0.5,0.1,1.2,0,1.7-0.2c1.9-0.6,3.6,0,4.7,1.1c1.1,1.1,2.5,1.6,3.7,2.4c1.3,1,2,0.9,3.5-0.2
		c0.7-0.5,0.9-1.1,0.6-1.8c-0.2-0.5-0.5-1.1,0-1.4c1.5-0.9,2.4-2.2,3.5-3.3c0.2-0.2,1.1-0.2,1.6,0c1.7,0.7,2.9,1.8,3,3.5
		c0.1,1.2,0.5,2.3,1.4,3.2c0.2,0.2,0.3,0.4,0.4,0.6l0.6-1.4c0,0,0.6-0.1,1.1-0.4c0.5-0.3,0.5-1,0.8-1.8
		C464.8,447.8,465.1,447.9,464.7,447.3z"/>
</g>
<g>
	<path class="st0" d="M460.2,448.2c0-0.2-0.1-0.4-0.1-0.5l0,0C460.1,447.8,460.2,448,460.2,448.2z"/>
	<path class="st0" d="M513,474.2c-0.4-0.7-0.3-1.2-0.5-1.6c-0.3-0.4-0.6-0.8-1.3-0.7c-0.7,0.1-0.5-1.7,0.4-2.5c1-0.8-0.1-2-0.7-3.4
		c-0.6-1.4,0.1-1.2-0.2-2.5c-0.3-1.3,0.2-2.2,0.1-2.8c-0.1-0.7,1.5-1.1,1.6-3.2c0.1-2.1-1.7-1.3-3.4-1.4c-1.6-0.2-3.1,0-4.6-0.1
		c-1.5-0.1-2.8-1.5-4.6-2.7c-1.8-1.2-2.3-0.5-3.3-0.5c-1,0-3.1-0.2-4-0.1c-1,0.1-2.5-0.3-3.3-1.5c-0.9-1.2,0.2-2.3-0.3-3.2
		c-0.5-0.8-1.7-3.1-2.1-3.5c-0.4-0.4-1.8-1.1-1.8-1.8c0-0.7,0.7-1.9,0.7-2.8c0-0.9,0.6-1.8,1.2-2.5c0.7-0.8,1.8-1.8,2.2-2.1
		c0.4-0.2,1.3-1.2,1.9-2.3c0.6-1.1,2.2-0.8,2.8-1.1c0.3-0.2,0.9-0.2,1.5-0.2c0,0,0.1-0.1,0.1-0.1c0.4-0.4,0.1-1.5-0.6-1.7
		c-0.5-0.2-1.1-0.4-1.6-0.3c-1.4,0.2-2.6,0.7-3.6,1.6c-1.3,1.1-2.7,2-4.4,2.3c-1.9,0.4-3.9,0.4-5.4,1.6c-0.2,0.2-0.8,0-1.1,0
		c-1.3-0.1-2.3,0.4-3.1,1.2c-1,1-2.1,2.1-2.3,3.5c-0.2,1.3-0.7,2.2-2,2.9c-1.1,0.6-2.2,1.5-3,2.3c-0.4,0.4-0.5,1.1-0.7,1.7
		c0,0,0.1,0,0.1,0l0,0.3l-0.1-0.2c0,0,0-0.1,0-0.1c-0.3-0.1-0.7-0.1-1-0.3c-1-0.8-2-1.6-3-2.4c0.4,0.3,0.8,0.6,1.2,1c0,0,0,0,0,0.1
		c-0.3,1.4-0.4,1.5-0.1,2.1c0.3,0.6,0.1,0.5-0.2,1.3c-0.3,0.8-0.3,1.5-0.8,1.8c-0.5,0.3-1.1,0.4-1.1,0.4l-0.6,1.4
		c-0.1-0.2-0.3-0.4-0.4-0.6c1.1,1.2,1.3,2.8,2.6,3.9c0.3,0.3,0.4,0.9,0.4,1.4c0,2.2,0.1,4.4-0.1,6.5c-0.2,1.3-0.1,2.3,0.8,3.3
		c0.4,0.5,0.2,1-0.1,1.4c-1.1,1.6-2.3,3.2-4.3,4c-2.1,0.8-3.4,2.2-4,4.1c-0.1,0.4-0.3,0.7-0.5,1c0.6,0.4,1.3,0.9,2.1,1.1
		c1.9,0.6,1.9,1.2,3.1,1.8c1.2,0.7,0.8-0.2,1.7,0.4c0.8,0.6,0.1,1.9,0.6,1.9c0.5,0,2.6,0.5,3.8,1c1.3,0.5,1.7,0.3,1.8-0.7
		c0.1-1,1-0.6,1.9-0.4c1,0.2,1.5,1.1,2.4,1.3c1,0.2,2,0.8,2.9,1.1c1,0.3,1.4,0.6,1.9,1.5c0.5,0.9-0.5,1.6,1.1,1.9
		c1.6,0.3,2.9,1,3.6,1.7c0.8,0.7,0.3,1.5,1.2,1.8c0.9,0.3,0.5,1.3,0.4,1.6c-0.1,0.3,1.3,0.6,2.2,0.9c0.9,0.3,2.4-0.3,2.4-0.3
		l2.6-0.5l1.8,0.1l1.8-0.3l1.3,0.6l1.3,0.7h1l0.1,0.4c0,0-2.4,4-3,4.7c-0.6,0.7,1,0.5,2.3,0.5c1.3,0,1.1,1.1,1.1,1.1
		s3.5-10.4,3.6-11.5c0.1-1.1-0.4-2.7-2.5-3.7c-2.1-1.1-1.3-2.2-1.4-3.1c-0.1-0.9,0.8-0.9,2.2-1.4c1.4-0.5,1,0.1,2,0.3
		c1,0.3,0.1-1.2,0.1-2c-0.1-0.8-1.1-0.6-1.9-1.3c-0.8-0.7-0.5-2.2-0.5-2.2s4.5,0.4,5.4-0.3c0.9-0.7,1.6-0.2,2.2,0.1
		c0.6,0.2,0.1-1.1,2-1.2c1.9-0.1,1.7,3.2,1.9,3.4c0.2,0.2,1.3-0.1,1.3-0.1S513.5,474.9,513,474.2z"/>
</g>
<g>
	<polygon class="st0" points="457.8,474.4 457.8,474.4 457.8,474.4 	"/>
	<path class="st0" d="M473.7,483.4c-0.9-0.3-1.4-1.1-2.3-1.2c-1-0.2-1.9-0.6-1.9,0.4c-0.1,1-0.5,1.2-1.8,0.7c-1.3-0.5-3.3-1-3.8-1
		c-0.5,0,0.2-1.3-0.6-1.9c-0.8-0.6-0.4,0.3-1.7-0.4c-1.2-0.7-1.1-1.3-3.1-1.8c-0.8-0.2-1.5-0.7-2.1-1.1c0.2-0.3,0.4-0.6,0.5-1
		c-0.3,1.1-1,1.8-2.1,2.3c-1,0.5-2.1,0.9-3.1,1.5c-0.3,0.2-0.5,0.5-0.6,0.8c-1.1,4.2-1.1,4.2-3,7c-0.2,0.3-0.6,0.6-0.6,0.9
		c-0.1,1.7-0.5,3.4-0.1,5c0.3,1.3,1.7,2.1,3.2,2.7c0.1,0,0.3-0.1,0.4-0.3c0.2-0.2,0.4-0.5,0.7-0.8c0.1,0.3,0.3,0.5,0.3,0.8
		c0,0.9-0.3,1.7-1.1,2.2c0.5,0.5,1.3,1.4,0.7,1.6c-0.9,0.4-2.4,1.6-1.6,2.1c0.8,0.5,1.2-0.8,2.2-0.2c1,0.6,1.9,0.4,2.2,0.9
		c0.4,0.5,1.3,2.4,1.9,2.1c0.6-0.3,2-2.3,2.7-3.7c0.7-1.3,2.4-4.3,3-4.6c0.6-0.3,2.6-0.8,3.8-1.1c1.2-0.3,3.1-1.4,3.5-1.8
		c0.4-0.4,2.2-1.7,3.1-2.6c0.8-0.8,1.5-2.7,1.5-2.7l0.8-0.1c0,0,1.1-1,0.4-1.9C474.5,485.8,473.9,484.4,473.7,483.4z"/>
</g>
<g>
	<path class="st0" d="M452,496.6c0-0.2,0.1-0.4,0.1-0.6C452.1,496.2,452,496.4,452,496.6z"/>
	<path class="st0" d="M507.2,536.3c-0.6-0.7-4.3-5-4.7-5.5c-0.4-0.4-4,0.9-4.2-0.1c-0.3-1-1.3-4.4-0.6-5.5c0.6-1,0.1-2.2-1.7-0.6
		c-1.8,1.7-2.7,1.4-4.5,1.3c-1.8-0.1-2.2-2.3-2.9-2.6c-0.8-0.2-4.5,0.1-4.5,0.1l0.8-1.5c0,0-2.4-4.2-2.9-4.6
		c-0.5-0.3-0.8-2.2-0.5-2.6c0.3-0.3,0-2.3,0.8-2.3c0.8,0,1.5-0.7,1.9-0.8c0.4-0.1,0-2.5,0-2.5l1.1-1.6l0.1-1.8l1.1-0.9l1.9-1.2
		l4.2-1.6c0,0,3.3-0.8,3.8-0.9c0.5-0.1,2.7,0.7,2.7,0.7l0.8-1.5c-0.1-0.3-0.3-0.8-1.1-0.8c-1.3,0-2.9,0.2-2.3-0.5
		c0.6-0.7,3-4.7,3-4.7l-0.1-0.4h-1l-1.3-0.7l-1.3-0.6l-1.8,0.3l-1.8-0.1l-2.6,0.5c0,0-1.5,0.7-2.4,0.3c-0.9-0.3-2.4-0.6-2.2-0.9
		c0.1-0.3,0.5-1.3-0.4-1.6c-0.9-0.3-0.4-1.1-1.2-1.8c-0.8-0.7-2-1.4-3.6-1.7c-1.6-0.3-0.6-0.9-1.1-1.9c-0.5-0.9-1-1.2-1.9-1.5
		c-1-0.3-2-0.9-2.9-1.1c0,0-0.1,0-0.1,0c0.2,1,0.7,2.3,1.3,3c0.8,0.9-0.4,1.9-0.4,1.9l-0.8,0.1c0,0-0.7,1.8-1.5,2.7
		c-0.8,0.8-2.6,2.2-3.1,2.6c-0.4,0.4-2.3,1.6-3.5,1.8c-1.2,0.3-3.1,0.8-3.8,1.1c-0.6,0.3-2.3,3.2-3,4.6c-0.7,1.3-2.2,3.4-2.7,3.7
		c-0.6,0.3-1.5-1.6-1.9-2.1c-0.4-0.5-1.3-0.3-2.2-0.9c-1-0.6-1.3,0.7-2.2,0.2c-0.8-0.5,0.7-1.7,1.6-2.1c0.6-0.3-0.1-1.1-0.7-1.6
		c0,0,0,0,0,0c-1.1,0.7-2.3,1.3-3.3,2c-1.5,1.2-2.5,2.6-1.8,4.5c0.3,0.8,0.5,1.6,0.7,2.5c0.1,0.5,0,1-0.2,1.5c-0.4,1,0,1.7,0.9,2.1
		c1.1,0.6,2.4,1.2,3.6,1.7c1.4,0.7,2.6,1.5,3.2,2.8c0.5,1.1,1.3,2,2.3,2.8c0.6,0.4,1.1,1,1.3,1.6c0.7,2.1,2.2,4,3.1,6
		c1.1,2.7,2.8,5.1,4.7,7.5c1.9,2.5,3.7,5.2,5.4,7.8c0.3,0.4,0.6,1,0.5,1.4c-0.4,1.6,0.6,2.6,1.7,3.6c3.3,3.2,7.7,5.1,11.5,7.6
		c0.7,0.5,1.8,0.6,2.7,0.9c2.1,0.9,4.3,1.6,6,3.1c2.2,1.9,4.6,3.6,6.9,5.4c0,0,0,0,0,0c0.9-0.3,1.8-0.6,2.3-0.8
		c1.7-0.4,2.2-1.1,2-2.3c-0.1-1.2,1-0.9,0.8-1.3c-0.3-0.4-1.3-0.8-0.1-1.9c1.2-1.1,1.8-1.4,2.3-2c0.3-0.4-0.5-1.3-1.1-2.2
		c-1.3-0.2-2.3-1-3-2.1c-0.1-0.2,0.1-0.6,0.2-0.8c0,0,0.4-0.1,0.5,0c0.6,0.4,1.2,0.8,1.8,1.3c0,0,0,0,0-0.1c0.3-1.3,0-3,0-3l0.9-3.6
		l-0.4-2.7l0.5-3.7C506.7,538.1,507.8,537,507.2,536.3z"/>
</g>
<g>
	<path class="st1" d="M542.1,440.1c1.1,0,1.9-0.6,2-1.5c0.2-0.9-0.5-1.7-1.5-1.8c-0.8-0.1-1.5,0.3-1.7,1c-0.1,0.3-0.1,0.7-0.2,1
		C540.7,439.6,541.3,440.1,542.1,440.1z"/>
</g>
<g>
	<path class="st0" d="M546.7,449l2-1.7l0.5-0.9c-0.3-0.1-0.7-0.3-1-0.4c-0.9-0.3-1.9-0.2-2.9-0.3c-0.6-0.1-1.1-0.3-1.1-0.9
		c0.1-1.6-0.9-2.5-2.4-3.1c-1.4-0.5-2.8-1.1-4.2-1.7c-0.5-0.2-1.1-0.6-1.2-1c-0.2-0.6,0.6-0.7,1.1-0.8c0.2-0.1,0.4-0.1,0.5-0.2
		c0.4-0.2,0.6-0.4,0.4-0.8c-0.1-0.1-0.3-0.2-0.5-0.3c-1.7-0.5-3.5-0.3-5.2-0.2c-1.1,0-1.8-0.3-2.5-0.9c-0.3-0.3-0.8-0.1-1,0.2
		c-0.3,0.4-0.2,1.1-0.6,1.4c-1.8,1.4-4.6,2.4-6.9,1c-1.4-0.9-2.8-0.9-4.4-0.8c-1.7,0.2-3.5,0.2-5.2,0.3c-0.8,0-1.4-0.3-1.7-1.1
		c-0.1-0.2-0.1-0.3-0.1-0.5c-0.3-1.1-1-1.8-2.3-2c-0.8-0.1-1.5-0.3-2.3-0.4c-1.5-0.2-2.5-0.8-2.9-2.1c-0.2-0.5-0.6-0.8-1.2-0.9
		c-0.6-0.1-1.6,0.4-1.9,1c-0.2,0.3-0.3,0.6-0.4,1c-0.1,1.2-0.8,1.8-2.1,2.1c-0.9,0.2-1.8,0.6-2.7,1c-0.6,0.2-1,0-1.4-0.6
		c-0.3-0.4-0.6-0.9-0.1-1.4c0.8-0.7,1.7-1.4,2.5-2.1c0.4-0.4,0.1-1.5-0.6-1.7c-0.5-0.2-1.1-0.4-1.6-0.3c-1.4,0.2-2.6,0.7-3.6,1.6
		c-1.3,1.1-2.7,2-4.4,2.3c-1.9,0.4-3.9,0.4-5.4,1.6l-0.4,1.7l2.2,9.8l17.6,12.9l6.2,11.2l6.3,2.8l1.8,3.9c0,0,4,2.9,4.9,2.9
		c0.8,0,2.2,0.3,2.7-0.2c0.5-0.5,1.7-1.4,1.9-1.7c0.2-0.2,2.4-1.1,2.8-1.3c0.4-0.3,0.9-0.9,1.1-1.3c0.3-0.4,0.9-1.1,1.3-1.2
		c0.4-0.2,1.1-0.4,1.7-0.6c0.6-0.2,0.7-0.4,1.4-0.7c0.7-0.3,0.2-0.5-0.4-0.6c-0.6-0.1-1.5-0.3-1.9-0.5c-0.4-0.2-2-0.2-2-0.2
		s-0.4-0.6-0.7-0.8c-0.3-0.2-0.1-0.8-0.1-0.8l0.1-1.2l0.8-0.9l-0.5-1.8l-1.1-0.4l-1-1.3l2.6,0.6l1.8,0.6h2.8l1.9-0.1l1.7-0.8
		l1.6-0.6l1.5,0.3l1.4-0.8l1.7-0.2l1.1-0.5l1.8-1.3l0.7-1.6l-1.5-1.1l-1.5-1.7l-0.6-1.3l1-0.6v-1.3l0.9-0.8l0.8,0.4l0.6-0.4l0.8,0.2
		l1.5-0.5l0.1-1l-0.9-0.6l-1.3-0.1l-0.6-1.5l1.1-1L546.7,449z M494.1,442.5c-0.1,0.4-0.9,1-1.2,0.9c-0.3-0.2-0.6-0.3-0.8-0.6
		c-0.9-1.3-0.8-1.8,0.8-3.4c0.2-0.2,0.6-0.2,1-0.2c0.1,0,0.2,0.3,0.2,0.4c0.1,0.5,0.1,1,0.2,1.6
		C494.2,441.6,494.1,442.1,494.1,442.5z M534.5,452.4l0.2-0.3l0.1,0.4L534.5,452.4z"/>
	<path class="st0" d="M541.6,431.2c0-0.1-0.3-0.1-0.4-0.1c-0.1,0-0.1,0.2-0.2,0.3C541.4,431.6,541.6,431.6,541.6,431.2z"/>
</g>
<path class="st0" d="M565.4,474.5l-0.7-1l-0.8-0.5l-0.3-0.8l-1-0.9l-0.3-1.7l-0.4-1.1l-1.1-0.4l-0.9-1.3l-1-1.1l-0.5-1.1l0.3-1.2
	l0.2-1.3l0.8-1.1l1.1,0.2l1.3-0.9l0.3-1.5l0.3-2.4c-1.9-1-3.5-2.5-5.8-2.9c-0.3,0-0.6-0.5-0.7-0.7c-0.3-0.8-0.7-1.6-1.4-2.2
	c-1.2-1.1-2.4-2.2-3.7-3.2c-0.6-0.4-1.3-0.8-2-1l-0.5,0.9l-2,1.7l-1,0.4l-1.1,1l0.6,1.5l1.3,0.1l0.9,0.6l-0.1,1l-1.5,0.5l-0.8-0.2
	l-0.6,0.4l-0.8-0.4l-0.9,0.8v1.3l-1,0.6l0.6,1.3l1.5,1.7l1.5,1.1l-0.1,0.1h0.2l0.6,0.3l0.5-0.3l1.1,0.2l0.7,0.8l0,1.2l-1,1.3
	l0.7,0.3h1.1l0.8,1.1l0.8-0.1v0.5l-0.8,1.3l-0.7,1.1l-0.6,1.3l-0.2,1.1l0,1.1l0,0.6v1l2.1,1.8l0.1,0.9l0.9,0.8l1.5,1l0.9,0.3
	l0.7-0.5l0.6-0.3l0.2,0.2l1-0.1l0.6-0.7l0.7-0.3l1.1-0.1l1.3,0l0.4-1.2l1.7-0.5l0.9,0l0.3,0.3l0.5,0h2L565.4,474.5z"/>
<path class="st0" d="M576.2,465.3l-0.9-0.6l0.1-1.5l-0.3-0.7l-0.2-1.2l1.1-1.5l1.9-1.5c-0.3-0.1-0.5-0.2-0.8-0.3c-2-0.9-4-1-6.2-1
	c-2.1,0.1-4.3,0-6.4-0.1c-0.5,0-1.1-0.2-1.6-0.5c-0.1,0-0.1-0.1-0.2-0.1l-0.3,2.4l-0.3,1.5l-1.3,0.9l-1.1-0.2l-0.8,1.1l-0.2,1.3
	l-0.3,1.2l0.5,1.1l1,1.1l0.9,1.3l1.1,0.4l0.4,1.1l0.3,1.7l1,0.9l0.3,0.8l0.8,0.5l0.7,1l0.2,0.2l0.9,0.2l0.5,0.3l0.9,0.1l0.7,0.1
	l0.3-0.2l-0.7-1.4l-0.9-0.8l0.1-0.8l1-0.5l1,0.1l1,0.1l1.1-0.2l1.1-0.3l1.4,0l0.3,0.6l1.2,0.2l1.1-0.6l0.5-0.9l-0.4-0.5l0-1.1
	l0.8-0.6l0.2-0.8l-0.5-1.4L576.2,465.3z M570.1,461.9c-0.1,0-0.1-0.2-0.1-0.3c0.3-0.1,0.5-0.2,0.8-0.3c0.1,0.1,0.2,0.3,0.1,0.4
	C570.7,462,570.4,462.1,570.1,461.9z"/>
<g>
	<path class="st0" d="M578.8,458.5c-0.6-0.1-1.1-0.3-1.6-0.6c0.3,0.1,0.5,0.2,0.8,0.3l-1.9,1.5l-1.1,1.5l0.2,1.2l0.3,0.7l-0.1,1.5
		l0.9,0.6l0.8,1.2l0.5,1.4l-0.2,0.8l-0.8,0.6l0,1.1l0.4,0.5l-0.5,0.9l-1.1,0.6l-0.2,0l0.3,1.1l0.4,0.3l-0.1,0.3l0.5,0.6l1,0.2
		l0.7-0.6l0.8-0.1l0.6,0.5l0,0.9l0.6,0.2l1-0.6l0.4-0.8l1-0.2l0.5-0.9l1.9-2.9l0-0.8l1.2-1.5l3.3-3.8
		C586.4,461.9,583.3,459.2,578.8,458.5z"/>
	<path class="st0" d="M576.7,457.8c0.2,0.1,0.3,0.1,0.5,0.2C577.1,457.9,576.9,457.8,576.7,457.8L576.7,457.8z"/>
</g>
<g>
	<path class="st0" d="M502.4,581.2c0.1-0.6,0.2-1.3,0.2-2C502.6,579.9,502.5,580.6,502.4,581.2z"/>
	<path class="st0" d="M502.5,578.3c0-0.5,0-1-0.1-1.4C502.5,577.4,502.5,577.9,502.5,578.3z"/>
	<path class="st0" d="M504.5,552c-0.1,0-0.1-0.1-0.2-0.1C504.4,551.9,504.5,551.9,504.5,552z"/>
	<path class="st0" d="M503.9,551.4c-0.2-0.2-0.4-0.5-0.6-0.7C503.4,550.9,503.6,551.2,503.9,551.4z"/>
	<path class="st0" d="M501.9,583.8L501.9,583.8c0.2-0.8,0.4-1.5,0.5-2.3C502.2,582.3,502.1,583,501.9,583.8z"/>
	<path class="st0" d="M562,560.4l-2-2.8l-2.4-0.6l-0.2-4.3l-8.4-0.3l-0.5-2.6l-1.4-1.5l0.7-1.3l-0.3-1.6l-0.1-2.2l-2.1-1.2l-3.2,0.1
		l-1.4-0.3l-0.5-1.3l-1.8-0.6l-2.3-0.7l-1.2-1.2l-2.5-0.7l-2-0.8l-1.5,0.7l-2.1-1.2l-2.4-2.3l-1.5-2.2l0.2-2.1l0.4-1.7l-0.6-2.5
		l-1.5-0.1h-2.3l-2.5,0.7l-3,1.4l-0.7,1.7l-1.2,0.4l-1.2-0.2l-0.9,0.8h-1l-1.7,0.7l-3.7-0.1l-0.6,0.2c0.6,0.7,4,4.7,4.6,5.4
		c0.6,0.7-0.5,1.8-0.5,1.8l-0.5,3.7l0.4,2.7l-0.9,3.6c0,0,0.3,1.7,0,3c0,0,0,0,0,0.1c0,0,0,0,0,0c0.6,0.5,1.1,1,1.4,1.8
		c0.1,0,0.1,0,0.2,0c0.1,0.1,0.2,0.2,0.3,0.2c-0.1,0-0.3-0.1-0.4-0.1c0-0.1-0.1-0.1-0.1-0.1c-0.3,0-0.5-0.1-0.8-0.1
		c0.6,1,1.4,1.9,1.1,2.2c-0.5,0.6-1.1,0.9-2.3,2c-1.1,1.1-0.1,1.5,0.1,1.9c0.1,0.1,0,0.2-0.1,0.2l0.4,0.2l0.3,1l1.3,1.2l0.1,1.1
		l0.3,2.2l1.9,2l1.2,1.3l-0.5,1.5l0.2,0.8l-1.1,2.3l3.2,2.9l3.4,7.9l1.2-0.1l0.6-0.3l2-2.3l1.9-1.8l1.2-0.4l1.5,0.8l2-0.3l1.1,0.3
		l2.5-0.2l0.3,0.9l0.8,2.4l0.6-0.4l0.2-1.1l0.5-0.9l-0.3-0.6l1-0.9l5,0.3l1.1,0.7l0.6-1.3l1.1-2.6l0.2-1.5l-0.7-1.3l1.9-2.7l0.3-1.6
		l1.1-0.6l6.5-1.6l5.6,0.2l3.1,2l1.5,0.6l1.4-3.1l1.3-2.3L562,560.4z"/>
	<path class="st0" d="M505.3,552.4C505.3,552.4,505.3,552.4,505.3,552.4C505.3,552.4,505.3,552.4,505.3,552.4z"/>
	<path class="st0" d="M484.5,553.8c-1.5-1-3-1.9-4.5-2.8C481.5,551.9,483,552.8,484.5,553.8z"/>
</g>
<g>
	<path class="st0" d="M504.6,724.2c-0.6,0.2-0.6,1,0,1.2c0.4,0.2,0.9,0.3,1.4,0.4c0-0.6,0-1.3,0-1.9
		C505.5,724,505,724.1,504.6,724.2z"/>
	<path class="st0" d="M502.7,697.3c0,0-0.1,0.1-0.1,0.1c0,0,0,0.1,0,0.1c0,0,0.1,0,0.1,0C502.7,697.5,502.7,697.4,502.7,697.3z"/>
	<path class="st0" d="M532.9,754.3C532.8,754.3,532.8,754.3,532.9,754.3c-0.1,0-0.1,0.1-0.1,0.1L532.9,754.3z"/>
	<path class="st0" d="M503.6,695.4c-0.2-0.2-0.6-0.5-0.9-0.5c-0.4,0-0.6,0.3-0.5,0.7c0.1,0.6,0.3,1.1,0.5,1.7c0.3-0.3,0.7-0.6,1-1
		C503.8,696.1,503.8,695.7,503.6,695.4z"/>
	<path class="st0" d="M524.6,748.3c-0.3,0-0.6,0-0.9,0C524.1,748.8,524.2,748.8,524.6,748.3z"/>
	<path class="st0" d="M523.5,748.2c0,0,0,0.1-0.1,0.1c0.1,0,0.1,0,0.2,0C523.6,748.3,523.6,748.3,523.5,748.2
		C523.6,748.2,523.5,748.2,523.5,748.2z"/>
	<path class="st0" d="M501.4,692.8c0.1-0.1,0.3-0.2,0.3-0.4c0-0.6-0.3-1.2-0.9-1.6c-0.3,0.2-0.7,0.3-0.8,0.5
		c-0.3,0.6,0.1,1.2,0.9,1.5C501.1,692.9,501.3,692.8,501.4,692.8z"/>
	<path class="st0" d="M538.8,746.8c-1.3-4.7-1.3-7.7-1.8-9.6c-0.5-0.2-1.1-0.3-1.8-0.3c-0.7,0-1.4,0-2,0c0,0.1-0.1,0.1-0.1,0.2
		c-0.1,0-0.2,0.1-0.2,0.1c-0.1,0.5-0.1,1-0.4,1.2c-1.9,0.8-1.9,2.3-2.1,3.8c0,0.2,0,0.3-0.1,0.5c-0.1,0.1-0.3,0.3-0.4,0.3
		c-0.2-0.1-0.4-0.2-0.4-0.3c0-0.7-0.1-1.3,0-2c0.3-1.7,1.4-2.9,3.3-3.4c0-0.1,0-0.2,0.1-0.2c0.1,0,0.2,0,0.3,0
		c0.5-0.9,0.9-1.7,2.4-1.3c0.2,0,0.4,0.1,0.6,0.1c0,0,0.1,0,0.1,0c-0.7-0.8-1.9-1.2-4.3-1.3c-6.9-0.3-11.5-0.8-11.5-0.8l-2.5-4.2
		l-0.4-2.5l-3.3,1.2l-2.7-3.5l-0.2-3.3l0.4-3l2.3-2.2l0.2-4.3l-0.6-2.5l1-2l-0.2-2.8l-0.6-4.8c0,0,0.2-1.7,0.6-2.8
		c0.4-1.2,0.2-3-1.3-3c-1.5,0-1.9-0.7-1.9-0.7s2.3-0.3,2.3-1.8c0-1.5-2.1-1.7-2.1-1.7s-1.5-3-1.1-4.8c0,0-2.1-3.5-2.1-5
		c0-1.5,1.7-2.2,0.6-3.3c-1.2-1.2-1.3-3.7-1.2-6.3c0.2-2.7-0.4-3.3,0-5.5l1.1-0.7l0.1-1.9l0.4-0.6l0.9-0.4l0.7-0.6l-2.7-5l0.5-2.3
		l-0.1-3.4l0.9-1.9l1.1-0.9l-0.1-1.1c0,0-1-2.3-1.4-2.3l0.9-1.4c0,0,0-1.5,0.3-2.6c0.3-1.1,1.3-1.2,1.3-1.2s0.8-1.4-0.1-4.3
		c-0.9-2.8-1.6-3.8-1.6-3.8L507,626c0,0-0.9-2.8-0.8-3.3c0.1-0.5,0.2-0.8,0.2-0.8l1.2-0.9l0.4-1.7l0.5-1.1l0.2-2.3l-1-1.3l0.5-2.6
		l0.6-3.2l1-1.4l1.1-2.8l1.5-1.3l1.2-1.1l-0.7-1.7l-0.5-0.9l0.2-0.7l0.8-0.4l-0.3-1.3l-0.6-0.9l-0.1-2.2c0,0-0.3-1-0.9-1.6
		c-0.6-0.6,0.7-1.6,0.7-1.6l2.6-1l2.7-1.3l1.2-4.7l-0.8-1.2l-1.1,0.6l-1.2,0.1l-3.4-7.9l-3.2-2.9l1.1-2.3l-0.2-0.8l0.5-1.5l-1.2-1.3
		l-1.9-2l-0.3-2.2l-0.1-1.1l-1.3-1.2l-0.3-1l-0.4-0.2c-0.2,0.1-0.8,0.2-0.7,1.1c0.1,1.2-0.4,1.9-2,2.3c-0.5,0.1-1.4,0.4-2.3,0.8
		c0.6,0.5,0.9,1.1,1,1.8c0.1,0.8,0.1,1.7,0.3,2.5c0.4,1.7,0.8,3.3,0.2,5c-0.2,0.6,0,1.4,0.2,2c1.2,3.4,0.9,6.7-0.1,10
		c-0.1,0.5-0.3,1-0.1,1.5c1.4,5,0.6,10.1,0.8,15.2c0.1,1.3-0.2,2.7-0.5,4c-0.3,1.7-0.7,3.3-1.2,5c-0.3,1-0.4,2,0,3
		c0.7,1.5,0.6,3-0.1,4.5c-0.7,1.5-0.7,3,0,4.5c0.9,1.9,0.3,4,1.2,6c0.4,0.9-0.1,2,0,3c0,0.8,0.2,1.7,0.4,2.5
		c0.3,0.9,0.2,1.6-0.1,2.5c-0.5,1.1-0.8,2.3-1.1,3.4c-1,3.8-2,7.6-3,11.4c-0.2,0.7-0.4,1.3-1,1.8c-1.3,0.9-1.3,2.2-0.5,3.2
		c1.3,1.8,1.4,3.9,2.6,5.6c1.1,1.6,1.1,3.2,0,4.8c-0.6,0.9-0.8,1.8-0.6,2.9c0.2,1,0.1,2,0.1,3c0,1.2,0.5,2.3,1.3,3.3
		c0.5,0.5,1,1.1,1.4,1.6c-2.1-0.1-2.5,0.1-2.9,1.5c-0.1,0.5-0.4,1-0.3,1.4c0.2,1.6,0.6,3.3,0.9,4.9c0.1,0.5,1.5,0.8,1.9,0.4
		c0.7-0.6,1.3-1.2,1.3-2.1c-0.1-1.2,0-2.3,0.2-3.4c0.2-1-0.4-1.9-1.1-2.7c1,0.3,1.8,0,2.7-0.4c0.7-0.3,0.8-0.2,1.1,0.6
		c0.1,0.5,0.5,1,0.5,1.4c-0.1,2.2-0.6,4.3-0.5,6.5c0.1,2.2-0.2,4.3-0.6,6.4c-0.1,0.7-0.2,1.3,0.2,1.9c1.4,1.9,0.9,3.8-0.1,5.7
		c-0.2,0.4-0.5,0.5-0.9,0.4c-0.2-0.1-0.4-0.2-0.4-0.3c-0.3-0.6-0.5-1.2-0.7-1.8c-1.7,0-3.1,0.8-3.4,2.1c-0.4,1.7-1.5,3-2.3,4.5
		c-0.1,0.2,0.1,0.7,0.4,0.9c0.2,0.2,0.7,0.3,1,0.3c0.5-0.2,1-0.7,1.4-0.7c1.1,0,2.2,0.3,3.3,0.5c0.6,0.1,1.2,1,1,1.6
		c-0.3,1.3-0.7,2.5-0.4,3.9l0.2,0c0,0.1,0,0.1,0.1,0.2c0.1,0,0.2,0.1,0.2,0.1c-0.1,0.2-0.1,0.1-0.2-0.1c-0.1,0-0.2,0-0.2-0.1
		c0,0,0-0.1,0-0.1c-1.1,0.2-2.1,0.3-2.9,1c-0.6,0.5-1,1-0.8,1.7c0.1,0.6,0.3,1.3,0.6,1.9c0.2,0.4,0.8,0.8,0.9,1.2
		c0.1,0.6-0.1,1.3,0.4,1.9c0.2,0.2,0.5,0.4,0.7,0.5v0l0.2-0.1l-0.1,0.2c0,0-0.1-0.1-0.1-0.1c0,0.5,0,0.9-0.1,1.4
		c-0.3,1.4-0.3,1.4,1.1,2.2c0.9,0.5,1.7,1,2.6,1.5c0,0,0,0.1,0,0.1c0,0,0.1,0,0.1,0c0.7,1.1,0.7,1.2,0,2c0,0-0.1,0-0.1,0
		c0,0.1,0,0.1,0,0.2l0.2-0.1c0,1.6,0.7,3.3,0.1,4.9c-0.2,0.7,0.4,1.2,1.3,1.2c0.9,0,1.3-0.4,1.4-1.2c0.1-1.2,0-2.5,0.6-3.7
		c0,0,0-0.1-0.1-0.1l-0.2-0.3l0.3,0.2c0,0.1-0.1,0.1-0.1,0.2c0.5,0.5,0.9,1,0.9,1.7c0,0.7,0.3,1.3,0.8,1.8c0.6,0.6,0.9,1.1,0.2,1.8
		c-0.5,0.5-0.9,1.1-1.8,1.1c-0.4,0-0.8-0.1-1.1,0c-0.3,0.1-0.7,0.3-0.8,0.6c-0.2,0.3,0,0.7,0.4,0.8c0.5,0.2,1.1,0.4,1.6,0.4
		c1.9,0.1,2.4,1.5,3.1,2.6c-0.4,1,0.1,1.6,1,2.1c1.2,0.7,2.4,1.5,3.5,2.3c0.1,0,0.2,0,0.3,0c0,0.1,0.1,0.2,0.1,0.2
		c0.3,0.1,0.6,0.4,0.7,0.7c0.1,0,0.1,0.1,0.3,0.1l0.1,0.2l-0.3-0.1c0-0.1-0.1-0.1-0.1-0.2c-0.4-0.1-0.6-0.3-0.7-0.7
		c-0.1,0-0.2-0.1-0.3-0.1c-0.1,0-0.1-0.1-0.2-0.1c-1.7,0.2-3.2-0.1-4.7-0.9c-0.3-0.2-0.7-0.2-1.1-0.2c-0.1,0-0.4,0.2-0.4,0.3
		c0,0.3,0.1,0.7,0.3,0.9c2.3,1.4,4.7,2.8,6.7,4.7c0.7,0.7,1.9,1.1,3,1.4c0.7,0.2,1.5,0,2.2,0c0.2-0.4,0.4-0.8,0.6-1.1
		c0.1-0.1,0.3-0.3,0.4-0.3c0.4,0,0.5,0.2,0.3,0.6c-0.1,0.2-0.1,0.5-0.1,0.8c0.3,0.1,0.7,0.2,1,0.3c1.2,0.3,2.1,0.7,1.8,2
		c-0.1,0.4,0.1,0.7,0.5,0.8c1.4,0.3,2.2,1.1,2.8,2.2c0.3,0.7,1.2,0.8,1.9,0.8c0.7-0.7,1.1-1.6,2.2-2c0.4-0.2,0.8-0.1,1,0.3
		c0.1,0.3,0.1,0.6,0.1,1c-0.1,0.7-0.2,1.4,0.5,1.8c0.6,0.4,1.4,0.6,2.1,0.7c0.2,0,0.5,0,0.7,0C539.9,753.9,540,751,538.8,746.8z
		 M505.6,714.7c-0.1-0.1-0.2-0.1-0.2-0.2c0-0.1,0-0.3,0-0.4c0.2-0.3,0.3-0.3,0.4,0.2C505.8,714.4,505.7,714.5,505.6,714.7z
		 M517.9,733.9c0,0.1,0,0.1-0.1,0.2l-0.4,0.1l0.2-0.3C517.8,733.9,517.8,733.9,517.9,733.9c0-0.1,0-0.1,0.1-0.2
		C518.2,733.7,518.2,733.8,517.9,733.9z M521,739c-0.3,0.1-0.6,0.3-1,0.4c-0.1,0-0.4-0.1-0.4-0.2c-0.3-0.4-0.1-0.6,0.4-0.7
		c0.4,0,0.7,0.1,1.1,0.1C521.1,738.6,521,738.8,521,739z M522,744.9c-0.1,0-0.1-0.2-0.1-0.3c0.1,0,0.3-0.1,0.4-0.1
		c0,0.1,0.1,0.2,0.1,0.3C522.3,744.9,522.2,744.9,522,744.9z M524.9,741c0,0.1-0.1,0.1-0.1,0.2c-0.1,0-0.2,0.1-0.3,0.1
		c-0.1,0.3-0.4,0.6-0.8,0.7c0,0.1-0.1,0.1-0.1,0.2l-0.3,0.2l0.1-0.3c0.1,0,0.2-0.1,0.3-0.1c0.1-0.3,0.4-0.5,0.8-0.7
		c0-0.1,0.1-0.1,0.1-0.3C524.8,741,524.8,741,524.9,741c0.1-0.1,0.1-0.2,0.2-0.3C525.3,740.9,525.2,740.9,524.9,741z M532.9,748.1
		c-0.3,0.1-0.6,0.2-0.9,0.3c0,0.1,0,0.1,0,0.2c-0.1,0-0.2-0.1-0.2-0.1c-0.3,0.1-0.6,0.2-0.9,0.3c-0.6,0.1-1-0.1-1.1-0.6
		c-0.1-0.2-0.1-0.4-0.2-0.7c-0.1,0-0.1-0.1-0.2-0.1c0-0.1-0.1-0.1-0.1-0.2c-0.3,0-0.7,0-0.8-0.5c0,0,0.4-0.1,0.4-0.1
		c0.1,0.2,0.3,0.4,0.4,0.6c0.1,0,0.2,0,0.3,0.1c0,0.1,0,0.2,0.1,0.2c0.7,0.3,1.4,0.7,2.2,1c0,0,0.1,0,0.1,0c0,0,0.1,0,0.1,0
		c0-0.3,0-0.5,0-0.7c0-0.4,0.3-0.6,0.7-0.5c0.2,0,0.3,0.1,0.4,0.2C533.4,747.7,533.3,748,532.9,748.1z M534,744.1
		c-0.3,0.2-0.6,0.4-0.9,0.6c-0.2,0-0.4,0-0.5-0.1c-0.4-0.2,0-0.8,0.6-1.1c0.4-0.2,0.7-0.1,0.9,0.2
		C534.3,743.8,534.1,744.1,534,744.1z"/>
	<path class="st0" d="M524.6,748.3c0.1,0,0.1,0,0.2,0c0,0,0-0.1,0-0.1c0,0-0.1,0-0.1,0C524.7,748.3,524.6,748.3,524.6,748.3z"/>
</g>
<path class="st0" d="M579.7,587.4l-0.6-0.6l-1.3-0.6l-1.9,1.1l-0.9-0.2l-0.8-2.1l-1-3.2l-0.5-1.9c-0.8,0-2.1-1.1-2.1-1.1l-2.4,0.8
	l-0.8-0.3h-1.1l-1.5-0.1l-0.6-0.3l-1.7,0.2l-0.6-0.6l0.4-1.2l-0.1-1.8v-2l-0.6-1.3l-0.2-1.1l-1.1-0.8l0.3-0.7l-0.4-0.6l-1.5-0.6
	l-3.1-2l-5.6-0.2l-6.5,1.6l-1.1,0.6l-0.3,1.6l-1.9,2.7l0.7,1.3l-0.2,1.5l-1.1,2.6l-0.5,1.2l0.9,1.2l1.2,0.3l0.9,1.8l3.3,2.7h1
	l1.3,1.1l0.8,1.1l2.7,0.5l1.8,0.9h1.2l2,1.7l2.2,1l2.9,0.3l2.6,2.2l0.4,0.9l-0.4,1.2l-0.6,0.7l-0.9,0.5l-0.3,0.8l0.4,0.7l-0.8,1.6
	l-1.6,1.6l-0.3,0.8l4.2-0.4l2.9,0.7l2.1,1.1l1.2-0.3h0.4l0.7,0.3l0.8-1l0.6-0.2l1,0.3l1-1.3l0.3-0.8l2.2-1.2l0.6-1.3l1.1-1.1
	l0.3-1.3l-0.1-0.7l-0.2-1.3l0.3-0.2l0.4-2l-0.3-1.1l0.3-1.6L579.7,587.4z"/>
<g>
	<path class="st0" d="M598.1,482.6c-0.4-0.8-1.2-0.9-2.1-0.9C596.4,482.6,597.2,482.7,598.1,482.6z"/>
	<path class="st0" d="M598.3,482.8c0-0.1,0-0.1,0-0.2c-0.1,0-0.1,0-0.2,0C598.1,482.7,598.2,482.7,598.3,482.8
		C598.2,482.8,598.3,482.8,598.3,482.8z"/>
	<path class="st0" d="M570.6,462c-0.1,0-0.3,0-0.5,0C570.3,462,570.4,462.1,570.6,462z"/>
	<path class="st0" d="M587.6,463c-0.1-0.1-0.1-0.1-0.2-0.2l0,0C587.5,462.9,587.5,462.9,587.6,463z"/>
	<path class="st0" d="M570,461.9L570,461.9C570.1,461.9,570.1,461.9,570,461.9C570.1,461.9,570.1,461.9,570,461.9z"/>
	<path class="st0" d="M669.8,512.9c-0.8-2.2-1.8-4.5-2.8-6.7c-0.2-0.4-0.7-0.8-1.2-1c-0.9-0.3-1.9-0.7-2.8-0.6
		c-1.7,0.1-3-0.4-4.3-1.3c-1.5-1.1-3.6-1.5-4.7-2.9c-1.8-2.4-4.7-3.5-7.4-4.8c-1.2-0.6-2.5-0.9-3.9-0.9c-4.7,0.1-9.3-0.6-13.8-1.6
		c-0.5-0.1-1.2,0-1.7,0.1c-0.7,0.2-1.4,0.6-2.1,0.9c-0.5,0.2-1.1,0-1.3-0.6c-0.3-0.8-0.5-1.7-1-2.4c-0.4-0.5-1.1-1.2-1.7-1.3
		c-2.6-0.2-4.7-1.5-7-2.4c-1.8-0.7-3.6-1.2-5.6-1.3c-1.7-0.1-3.1,0.2-3.9,1.6c-0.1,0.1-0.3,0.3-0.5,0.3c-0.4,0-0.5-0.3-0.4-0.7
		c0.1-0.3,0.2-0.7,0.3-1c0.4-1.4-0.6-2.1-1.5-2.4c-1.4-0.5-2.9-0.8-4.3-1.2c-0.1,0.3-0.1,0.6-0.2,0.9c0,0,0.1,0,0.1,0l0.2,0.2
		l-0.3-0.1c0,0,0-0.1,0-0.1c-1.6-0.2-3.2-0.1-4.5,0.9c-0.4-0.8-1.3-0.9-2.2-0.9c1.2-1.1,2.8-1.6,4.5-2c0.4-1.3,0.8-2.5,1.2-3.8
		c0.2-0.8,0.2-1.7-0.5-2.4c-0.7-0.8-1.2-1.7-2-2.5c-1.6-1.5-2.7-3.3-3.1-5.4c-0.2-1-0.7-1.9-1.6-2.7c-0.1-0.1-0.3-0.2-0.4-0.4
		l-3.3,3.8l-1.2,1.5l0,0.8l-1.9,2.9l-0.5,0.9l-1,0.2l-0.4,0.8l-1,0.6l-0.6-0.2l0-0.9l-0.6-0.5l-0.8,0.1l-0.7,0.6l-1-0.2l-0.5-0.6
		l0.1-0.3l-0.4-0.3l-0.3-1.1l-1-0.2l-0.3-0.6l-1.4,0l-1.1,0.3l-1.1,0.2l-1-0.1l-1-0.1l-1,0.5l-0.1,0.8l0.9,0.8l0.7,1.4l-0.3,0.2
		l-0.7-0.1l-0.9-0.1l-0.5-0.3l-0.9-0.2l-0.2-0.2l0.5,0.5h-2l-0.5,0l-0.3-0.3l-0.9,0l-1.7,0.5l-0.4,1.2l-1.3,0l-1.1,0.1l-0.7,0.3
		l-0.6,0.7l-1,0.1l-0.2-0.2l-0.6,0.3l-0.7,0.5l-0.9-0.3l-1.5-1l-0.9-0.8l-0.1-0.9l-2.1-1.8v-1l0-0.6l0-1.1l0.2-1.1l0.6-1.3l0.7-1.1
		l0.8-1.3v-0.5l-0.8,0.1l-0.8-1.1h-1.1l-0.7-0.3l1-1.3l0-1.2l-0.7-0.8l-1.1-0.2l-0.5,0.3l-0.6-0.3h-0.2l-0.6,1.5l-1.8,1.3l-1.1,0.5
		l-1.7,0.2l-1.4,0.8l-1.5-0.3l-1.6,0.6l-1.7,0.8l-1.9,0.1H529l-1.8-0.6l-2.6-0.6l1,1.3l1.1,0.4l0.5,1.8l-0.8,0.9l-0.1,1.2
		c0,0-0.1,0.6,0.1,0.8c0.3,0.2,0.7,0.8,0.7,0.8s1.6,0,2,0.2c0.4,0.2,1.3,0.4,1.9,0.5c0.6,0.1,1.1,0.3,0.4,0.6
		c-0.7,0.3-0.8,0.5-1.4,0.7c-0.6,0.2-1.3,0.4-1.7,0.6c-0.4,0.2-1.1,0.8-1.3,1.2c-0.3,0.4-0.7,1.1-1.1,1.3c-0.4,0.3-2.6,1.1-2.8,1.3
		c-0.2,0.2-1.4,1.2-1.9,1.7c-0.5,0.5-1.9,0.2-2.7,0.2c-0.6,0-3-1.6-4.2-2.4c-0.1,0-1.1,0.3-1.2,0.1c-0.2-0.2-0.1-3.6-1.9-3.4
		c-1.8,0.1-1.4,1.4-2,1.2c-0.6-0.2-1.3-0.7-2.2-0.1c-0.9,0.7-5.4,0.3-5.4,0.3s-0.4,1.5,0.5,2.2c0.8,0.7,1.8,0.5,1.9,1.3
		c0.1,0.8,1,2.2-0.1,2c-1-0.3-0.6-0.8-2-0.3c-1.4,0.5-2.2,0.5-2.2,1.4c0.1,0.9-0.7,2.1,1.4,3.1c2.1,1.1,2.6,2.6,2.5,3.7
		c-0.1,1.1-3.6,11.5-3.6,11.5s0-0.1,0-0.3l-0.8,1.5c0,0-2.2-0.8-2.7-0.7c-0.5,0.1-3.8,0.9-3.8,0.9l-4.2,1.6l-1.9,1.2l-1.1,0.9
		l-0.1,1.8l-1.1,1.6c0,0,0.4,2.3,0,2.5c-0.4,0.1-1.2,0.8-1.9,0.8c-0.8,0-0.5,2-0.8,2.3c-0.3,0.3,0,2.2,0.5,2.6
		c0.5,0.3,2.9,4.6,2.9,4.6l-0.8,1.5c0,0,3.7-0.3,4.5-0.1c0.8,0.2,1.1,2.4,2.9,2.6c1.8,0.1,2.7,0.3,4.5-1.3c1.8-1.7,2.3-0.4,1.7,0.6
		c-0.6,1,0.4,4.4,0.6,5.5c0.3,1,3.8-0.3,4.2,0.1c0.1,0.2,0.8,1,1.6,1.9c-0.7-0.8-1.3-1.6-1.6-1.8l0.6-0.2l3.7,0.1l1.7-0.7h1l0.9-0.8
		l1.2,0.2l1.2-0.4l0.7-1.7l3-1.4l2.5-0.7h2.3l1.5,0.1l0.6,2.5l-0.4,1.7l-0.2,2.1l1.5,2.2l2.4,2.3l2.1,1.2l1.5-0.7l2,0.8l2.5,0.7
		l1.2,1.2l2.3,0.7l1.8,0.6l0.5,1.3l1.4,0.3l3.2-0.1l2.1,1.2l0.1,2.2l0.3,1.6l-0.7,1.3l1.4,1.5l0.5,2.6l8.4,0.3l0.2,4.3l2.4,0.6
		l2,2.8l0.9,3.3l-1.3,2.3l-1.4,3.1l-0.1,0l0.4,0.6l-0.3,0.7l1.1,0.8l0.2,1.1l0.6,1.3v2l0.1,1.8l-0.4,1.2l0.6,0.6l1.7-0.2l0.6,0.3
		l1.5,0.1h1.1l0.8,0.3l2.4-0.8c0,0,1.3,1.1,2.1,1.1l0.5,1.9l1,3.2l0.8,2.1l0.9,0.2l1.9-1.1l1.3,0.6l0.6,0.6l-0.2,1.9l-0.3,1.6
		l0.3,1.1l-0.4,1.9l0.9-0.4l2.1,0.3v0.7l1,2l0.1,0.5v1l0.3,2.9l-0.5,0.6l-0.7,0l-1.3,0.5l-0.6,0.8l-0.3-0.2l-2.2,1.1l-0.1,0.5
		l-0.9,0.1l-0.8,0.4l-0.9,1l-0.9,0.4l0.1,0.7l-0.4,0.3H573l-1.8,1.9v0.7l0,0.8l-0.6,0l-0.5,0.5l-1.1,1.7l-1.4,1.5l-0.1,0.5l-0.7,0.4
		l-0.1,0.5h0.3l1,0.2l2.4-0.5l0.8,0.5l0.6,0.6l0.6,0.8l1,0.4l0.6,1l1.1,1.8l0.5,0l1.1-0.9l0.5,0.1l1.1,1.5l0.9,0.4l1.6,0.3l1,1.1
		l0.2,0.9h0.6l2.5,1.1l1.5,2.2l1.1,0.8l-0.3,0.7l-1.1,1.7l0.5,0.5v0.4l0.8,0.8l1.3,1.1c0.2-0.2,0.3-0.3,0.5-0.5
		c1.4-1,2.1-2.4,2.6-3.9c0.5-1.6,1-3.3,1.4-4.9l0.1,0.1c0-0.1,0-0.1,0.1-0.2c0,0-0.1,0-0.1,0c-0.5-1.4-0.3-2,0.9-2.7
		c0.4-0.2,0.9-0.3,1.4-0.4c0.3-1.3,0.8-2.5,1.6-3.6c0.2-0.2,0.6-0.5,0.9-0.5c0.2,0,0.5,0.4,0.6,0.7c0.2,0.4,0.3,0.9,0.4,1.4
		c1.1-0.1,1.6-0.8,2-1.6c1.6-3.3,3.3-6.5,5.7-9.4c1.6-2,2.5-4.2,1-6.7c-0.2-0.3-0.2-0.6-0.3-1c-0.6-3,0.1-5.7,2.9-7.8
		c1.2-0.9,2.3-1.8,3.4-2.8c1.8-1.6,4-2.7,6.4-3.4c1.3-0.4,2.4-0.8,3.4-1.7c0.8-0.7,1.9-1.2,2.2-2.3c0-0.2,0.7-0.4,0.9-0.4
		c1.2,0.2,2.3,0,3.4-0.1c1.1-0.1,2.3,0.1,3.4,0.1c2.2,0,4.1-0.4,5.6-2.1c0.7-0.8,2-1.1,2.9-1.7c0.6-0.4,1-1,0.8-1.8
		c-0.2-0.9-0.1-1.7,0.4-2.4c1.2-1.8,2.2-3.6,3.4-5.3c1-1.4,1.5-2.7,1.3-4.3c-0.2-1.2-0.2-2.5,0.6-3.4c1.6-1.9,1.8-4.1,1.9-6.3
		c0.1-2.7,0.1-5.4,0.1-8.1c0-1.9-0.2-3.7-0.2-5.6c0-0.9,0.3-1.8,1.3-2.1c2.7-1,4.2-2.9,5.1-5.3c0.2-0.5,0.5-0.9,0.8-1.4
		c0.7-1.4,1.7-2.6,3.1-3.6c1.6-1.2,3.1-2.6,4.5-3.9c1.5-1.4,2.6-2.9,3.4-4.7C669.7,518.2,670.3,514.2,669.8,512.9z M592.8,485.8
		c-0.4,0.5-1.4,0.6-1.9,0.3c-0.5-0.3-0.6-0.8-0.4-1.3c0.2-0.4,0.4-0.7,0.7-1c0,0.3,0.1,0.5,0.2,0.7c0.2,0.5,0.7,0.7,1.3,0.6
		c0.2-0.1,0.5-0.2,0.7-0.3C593.2,485.2,593,485.5,592.8,485.8z M598.6,491.4c0-0.1,0-0.3,0.1-0.3c0.3-0.1,0.6-0.3,1-0.3
		c0.1,0,0.3,0.2,0.3,0.3c0,0.1-0.2,0.3-0.3,0.3C599.3,491.4,598.9,491.4,598.6,491.4z M600.1,502.8c0,0-0.3,0-0.3,0
		c-0.3-0.4-0.6-0.8-0.9-1.2c-0.2-0.4-0.2-0.6,0.2-0.8c0.1,0,0.3,0.1,0.4,0.3c0.3,0.4,0.5,0.8,0.7,1.2
		C600.2,502.5,600.1,502.7,600.1,502.8z M604.1,561.6l-0.4-0.1l0.4-0.1L604.1,561.6z"/>
	<path class="st0" d="M599.4,619.1C599.4,619.1,599.4,619.1,599.4,619.1c0.1-0.1,0.1-0.1,0.1-0.1c0,0,0,0-0.1,0
		C599.3,619,599.4,619.1,599.4,619.1z"/>
	<path class="st0" d="M595.9,621.1c-0.6,0.6-1.2,1.1-1.7,1.8c-0.3,0.3-0.4,0.8-0.5,1.2c3.1-0.3,4.9-2,5.8-4.6c0-0.1,0-0.2,0-0.4
		c-0.5,0.2-1,0.3-1.4,0.5C597.2,620.1,596.6,620.6,595.9,621.1z"/>
	<path class="st0" d="M595.9,621.1c0,0,0.1-0.1,0.1-0.1C595.9,621,595.9,621,595.9,621.1C595.8,621.1,595.8,621.1,595.9,621.1
		C595.8,621.2,595.8,621.1,595.9,621.1z"/>
	<path class="st0" d="M596,481.7c0,0-0.1-0.1-0.1-0.1c0,0-0.1,0-0.1,0c0,0,0,0.1,0,0.1C595.9,481.7,595.9,481.7,596,481.7z"/>
</g>
<g>
	<path class="st0" d="M587.6,632.2l-0.8-0.8V631l-0.5-0.5l1.1-1.7l0.3-0.7l-1.1-0.8l-1.5-2.2l-2.5-1.1h-0.6l-0.2-0.9l-1-1.1
		l-1.6-0.3l-0.9-0.4l-1.1-1.5l-0.5-0.1l-1.1,0.9l-0.5,0l-1.1-1.8l-0.6-1l-1-0.4l-0.6-0.8l-0.6-0.6l-0.8-0.5l-2.4,0.5l-1-0.2h-0.3
		l-0.5,1.2l-1,1.1l0.4,0.9l-0.4,0.9l0.1,1.1l0.1,1.3l-0.3,0.5l-0.1,0.9l-0.4,1.2l0.4,1.1l-0.4,0.4l0.1,1.4l0.4,1.8l-0.2,0.8
		l-0.6,0.2l-0.3,0.6v1.8l0.7,1.4l1.6,2l1.5,0.9c2.5,0.2,5,0.3,7.2,1.5c0.5,0.2,1.1,0.3,1.7,0.3c1.2,0.1,2.3,0.1,3.5,0.1
		c2.9,0,5.2-0.9,6.8-3.2c0.7-1,1-2.1,1.9-2.9L587.6,632.2z"/>
	<path class="st0" d="M590.5,631.9c0-0.1,0.1-0.1,0.1-0.2C590.6,631.7,590.6,631.8,590.5,631.9z"/>
	<polygon class="st0" points="591.4,630.6 591.4,630.6 591.4,630.6 	"/>
</g>
<g>
	<path class="st0" d="M574,646.7c-0.5-0.3-1.1-0.4-1.6-0.7c-0.5-0.3-0.7-0.8-0.7-1.3c0-0.5,0.1-1,0.3-1.5c0.6-1.3-0.1-2.3-1.2-3.1
		c-1.2-1-2.8-1.5-3.9-2.6c-0.1,0-0.2,0-0.3,0c0-0.1,0-0.2,0-0.3c-0.1-0.1-0.2-0.2-0.3-0.2c0.1,0,0.2,0.1,0.3,0.1c0,0,0,0.1,0,0.1
		c0.1,0.1,0.1,0.1,0.2,0.2c0.1,0.1,0.1,0.1,0.2,0.1c1.2,0.1,2.4,0.2,3.6,0.3c-0.9-0.1-1.8-0.2-2.7-0.3l-1.5-0.9l-1.6-2l-0.7-1.4
		v-1.8l0.3-0.6l0.6-0.2l0.2-0.8l-0.4-1.8l-0.1-1.4l0.4-0.4l-0.4-1.1l0.4-1.2l0.1-0.9l0.3-0.5l-0.1-1.3l-0.1-1.1l0.4-0.9l-0.4-0.9
		l1-1.1l0.5-1.2l0.1-0.5l0.7-0.4l0.1-0.5l1.4-1.5l1.1-1.7l0.5-0.5l0.6,0l0-0.8v-0.7l1.8-1.9h1.1l0.4-0.3l-0.1-0.7l0.9-0.4l0.9-1
		l0.8-0.4l0.9-0.1l0.1-0.5l2.2-1.1l0.3,0.2l0.6-0.8l1.3-0.5l0.7,0l0.5-0.6l-0.3-2.9v-1l-0.1-0.5l-1-2V594l-2.1-0.3l-0.9,0.4l0,0.1
		l-0.3,0.2l0.2,1.3l0.1,0.7l-0.3,1.3l-1.1,1.1L577,600l-2.2,1.2l-0.3,0.8l-1,1.3l-1-0.3l-0.6,0.2l-0.8,1l-0.7-0.3h-0.4l-1.2,0.3
		l-2.1-1.1l-2.9-0.7l-4.2,0.4l0.3-0.8l1.6-1.6l0.8-1.6l-0.4-0.7l0.3-0.8l0.9-0.5l0.6-0.7l0.4-1.2l-0.4-0.9l-2.6-2.2l-2.9-0.3l-2.2-1
		l-2-1.7h-1.2L551,588l-2.7-0.5l-0.8-1.1l-1.3-1.1h-1l-3.3-2.7l-0.9-1.8l-1.2-0.3l-0.9-1.2l0.5-1.2l-0.6,1.3l-1.1-0.7l-5-0.3l-1,0.9
		l0.3,0.6l-0.5,0.9l-0.2,1.1l-0.6,0.4l-0.8-2.4l-0.3-0.9l-2.5,0.2l-1.1-0.3l-2,0.3l-1.5-0.8l-1.2,0.4l-1.9,1.8l-2,2.3l0.5-0.3
		l0.8,1.2l-1.2,4.7L515,590l-2.6,1c0,0-1.2,1-0.7,1.6c0.6,0.6,0.9,1.6,0.9,1.6l0.1,2.2l0.6,0.9l0.3,1.3l-0.8,0.4l-0.2,0.7l0.5,0.9
		l0.7,1.7l-1.2,1.1l-1.5,1.3l-1.1,2.8l-1,1.4l-0.6,3.2l-0.5,2.6l1,1.3l-0.2,2.3l-0.5,1.1l-0.4,1.7l-1.2,0.9c0,0-0.1,0.3-0.2,0.8
		c-0.1,0.5,0.8,3.3,0.8,3.3l2.5,4.1c0,0,0.8,0.9,1.6,3.8c0.9,2.8,0.1,4.3,0.1,4.3s-1.1,0.1-1.3,1.2c-0.3,1.1-0.3,2.6-0.3,2.6
		l-0.9,1.4c0.5,0,1.4,2.3,1.4,2.3l0.1,1.1l-1.1,0.9l-0.9,1.9l0.1,3.4l-0.5,2.3l2.7,5l-0.7,0.6l-0.9,0.4l-0.4,0.6l-0.1,1.9l-1.1,0.7
		c-0.4,2.2,0.2,2.8,0,5.5c-0.2,2.7,0,5.2,1.2,6.3c1.2,1.2-0.6,1.8-0.6,3.3c0,1.5,2.1,5,2.1,5c-0.4,1.8,1.1,4.8,1.1,4.8
		s2.1,0.2,2.1,1.7c0,1.5-2.3,1.8-2.3,1.8s0.4,0.7,1.9,0.7c1.5,0,1.7,1.8,1.3,3c-0.4,1.2-0.6,2.8-0.6,2.8l0.6,4.8l0.2,2.8l-1,2
		l0.6,2.5l-0.2,4.3l-2.3,2.2l-0.4,3l0.2,3.3l2.7,3.5l3.3-1.2l0.4,2.5l2.5,4.2c0,0,4.6,0.5,11.5,0.8c2.3,0.1,3.6,0.5,4.3,1.3
		c0,0-0.1,0-0.1,0c0.3-0.1,0.8-0.2,1-0.4c0.2-0.2,0.2-0.7,0-0.9c-0.8-1.1-1.9-2.1-2.6-3.3c-0.7-1.2-0.9-2.6-1.4-3.8
		c-0.5-1.4-0.2-2.7,0.9-3.8c0.5-0.5,1-1,1.6-1.4c1.5-1,2.2-2.3,2-3.9c-0.1-1.4,0.4-2.6,1.6-3.6c1.2-1.1,2.3-2.3,3.3-3.5
		c0.6-0.7,0.8-1.5,0.7-2.4c-0.1-0.5-0.1-1-0.2-1.5c-0.4-1.4-1-2.6-2.9-2.6c-1,0-1.9-0.4-2.6-0.9c-0.9-0.6-1.8-1.2-2.7-1.9
		c-1.8-1.4-2-3.2-0.5-4.9c0.6-0.7,1.3-1.3,2.1-1.7c1.2-0.6,2.5-1,3.7-1.5c0.3-0.1,0.8-0.4,0.8-0.7c0.2-1.5,1.6-2.8,0.8-4.4
		c-0.2-0.5-0.3-1-0.3-1.5c-0.2-1.4,0.2-2.6,1.4-3.7c0.8-0.6,1.4-1.4,2-2.2c0,0,0,0,0,0c0-0.1-0.1-0.1-0.1-0.2c-0.5,0-0.9,0-1.3-0.2
		c-0.4-0.1-0.3-0.5,0-0.7c0.1-0.1,0.5-0.1,0.5-0.1c0.3,0.3,0.5,0.7,0.8,1c0.1,0,0.2,0,0.3,0c-0.1,0.1-0.1,0.1-0.1,0.2
		c0.4,0.1,0.7,0.2,1.1,0.1c1.4-0.1,2.3-0.9,2.1-1.9c-0.2-0.8-0.5-1.6-0.8-2.4c-0.1-0.4-1-0.7-1.5-0.5c-0.4,0.1-0.7,0.3-1,0.5
		c-1.8,0.7-3.6,0-4-1.6c-0.3-1-0.5-2-0.8-3c-0.1-0.3-0.2-0.6-0.3-0.9c-0.2-0.6,0.9-1.3,1.6-1.1c1.1,0.3,2.2,0.7,3.2,1.2
		c1.4,0.7,2.9,0.8,4.5,0.6c1.6-0.2,3.5-1.8,3.4-3c0-1-0.5-2-0.4-3c0-1.2,0.4-2.3,0.5-3.5c0-0.2-0.1-0.3-0.2-0.5
		c-0.1-0.3-0.2-0.6-0.3-1c-0.2-1.1,0.3-1.7,1.5-1.5c4.3,0.8,8.5,0.5,12.6-1c1.1-0.4,2.2-0.6,3.3-1.1c1.8-0.7,3.4-1.6,3.8-3.5
		c0.2-1.1,1.1-2.1,1.6-3.2c0.3-0.6,0.5-1.3,0.6-1.9C575.3,648.1,574.8,647.1,574,646.7z M543.2,618.8c-0.3-0.1-0.6-0.2-0.9-0.3
		c0.2-0.1,0.3-0.2,0.5-0.2c0.2,0,0.4-0.1,0.5,0c0.2,0.1,0.3,0.2,0.4,0.3C543.5,618.7,543.4,618.7,543.2,618.8z"/>
	<path class="st0" d="M501.7,584.5c1-3.3,1.3-6.5,0.1-9.8C503,578,502.7,581.2,501.7,584.5z"/>
	<path class="st0" d="M552.6,748.8c-2.5-0.9-4.9-1.9-7.3-2.9c-0.3-0.1-0.7-0.3-0.9-0.6c-1.1-1.2-2.6-1.9-3.7-3.1
		c-0.6-0.7-0.9-1.3-1.1-2.2c-0.5-2.2-1.8-3.1-4.3-3.2c0.7,0,1.3,0.1,1.8,0.3c0.5,1.9,0.5,4.9,1.8,9.6c1.2,4.2,1.1,7.1,0.6,9.1
		c-0.2,0-0.5,0.1-0.7,0c0.5,0.1,1.1-0.2,1.7-0.2c0.7,0,1.5,0.1,2.2,0.1c1.2,0.1,1.2,0,0.9-1.5c-0.1,0-0.1,0-0.2,0c0-0.1,0-0.2,0-0.2
		c-0.1,0-0.2-0.1-0.2-0.1c0.1-0.2,0.2-0.1,0.2,0.1c0.1,0,0.1,0.1,0.2,0.1c0,0,0,0.1,0,0.1c1-0.3,2.1-0.6,3.1-0.8
		c0.9-0.2,1.2-0.7,1.4-1.4c0.1-0.4,0.5-0.5,0.9-0.4c0.7,0.1,1.7,0.4,2.2,0.2c1.3-0.6,2.5-1.5,3.7-2.3c0.1,0,0-0.3-0.1-0.4
		C554.1,748.7,553.2,749.1,552.6,748.8z"/>
	<path class="st0" d="M633.2,581.8C633.2,581.8,633.2,581.9,633.2,581.8L633.2,581.8C633.2,581.9,633.2,581.8,633.2,581.8z"/>
	<path class="st0" d="M575.1,639.1c-0.6-0.3-1.2-0.5-1.9-0.7C573.8,638.5,574.5,638.8,575.1,639.1z"/>
	<path class="st0" d="M571.2,637.9c0.5,0.1,0.9,0.2,1.4,0.3C572.1,638.1,571.7,638,571.2,637.9z"/>
	<path class="st0" d="M559.7,750c0.1,0,0.3-0.1,0.4-0.2c-0.1-0.1-0.3-0.2-0.4-0.2C559.2,749.7,559.2,749.8,559.7,750z"/>
	<path class="st0" d="M587.7,635.2c-0.2,0.4-0.4,0.8-0.7,1.1C587.3,635.9,587.5,635.6,587.7,635.2z"/>
</g>
</svg>
